<svg width="34" height="32" viewBox="0 0 34 32" fill="none" xmlns="http://www.w3.org/2000/svg">
<path d="M14.2872 0.384291C14.4029 0.387444 14.4719 0.463062 14.5771 0.4642C14.9391 0.466981 15.4069 0.241204 15.3151 0.666321C15.4219 0.578411 15.5311 0.491505 15.6441 0.40466C16.0384 0.870492 16.4088 0.262453 16.4824 0.710193C16.5701 0.623836 16.6613 0.538186 16.755 0.453232C17.1327 0.489472 17.5332 0.530165 18.0852 0.62715C18.3645 0.678112 18.6823 0.739577 19.1303 0.868443C19.5929 1.02768 20.1263 1.10547 21.3364 1.91665C21.6402 2.14341 21.9451 2.377 22.2703 2.63896C22.6157 2.92443 22.878 3.11864 23.5081 3.73105C23.8557 4.08477 24.1757 4.44284 24.4607 4.78396C24.6367 4.76324 25.1224 5.42401 25.1 5.4342C25.1087 5.56068 24.9341 5.64021 24.926 5.73503C24.903 5.74542 24.8899 5.74382 24.9292 5.7601C25.0424 5.68294 25.1599 5.61011 25.2801 5.54074C25.5935 5.82999 25.37 5.77944 25.4509 6.01549C25.5398 6.09497 25.5937 5.99458 25.7142 6.12987C25.9315 6.38375 26.2929 6.79639 26.7326 7.60426C26.9078 7.92167 27.0896 8.33619 27.245 8.81229C27.4299 9.05988 27.5403 8.75456 27.4768 9.15229C27.4164 9.08758 27.3532 9.02566 27.292 8.9627C27.4942 9.62686 27.6386 10.3998 27.621 11.2001C27.6205 11.4751 27.616 11.75 27.61 11.9773C27.6061 12.1143 27.5079 12.0904 27.505 12.1324C27.5005 12.2522 27.6137 12.4986 27.5912 12.7826C27.5661 13.0539 27.5368 13.3712 27.4721 13.7666C27.5475 13.8632 27.4847 14.1209 27.6884 13.917C27.5634 14.1469 27.6669 14.7356 27.6241 14.8775C27.5998 14.9634 27.4311 14.9868 27.4236 14.9997C27.4063 15.0498 27.6036 15.4906 27.4909 15.545C27.2734 15.6504 27.3566 14.756 27.3938 14.1803C27.3416 14.431 27.2784 14.7107 27.1885 15.0216C26.9098 16.0662 26.1361 17.4328 25.5387 18.1099C25.5492 18.084 25.5363 18.094 25.4917 18.1459C25.5091 18.196 25.5257 18.2444 25.5371 18.2697C25.4445 18.3889 25.1221 18.2086 25.4494 18.616C24.9789 18.7027 25.3062 18.9193 25.3256 18.9904C25.3591 19.1029 25.1585 19.0361 25.1031 19.1048C25.0435 19.1779 25.1409 19.2915 25.1376 19.3054C25.1004 19.4166 24.8215 19.8937 24.6832 19.9525C24.6672 19.9632 24.6543 19.9691 24.6456 19.9681C24.6448 19.9522 24.6435 19.9366 24.6424 19.9211C24.6334 19.8893 24.6242 19.8566 24.6142 19.8256C24.5948 19.8382 24.5798 19.8519 24.5704 19.8647C24.4693 19.9994 24.6242 20.0713 24.6048 20.1327C24.5743 20.1704 24.5428 20.2097 24.5124 20.247C24.4894 20.2041 24.4655 20.1607 24.4419 20.1186C24.2697 20.3519 24.5273 20.2779 24.268 20.5949C24.1031 20.7947 23.8035 20.8885 23.7979 20.9145C23.8057 20.9226 23.9328 20.9378 23.8794 21.0242C23.7876 21.173 23.5914 21.3913 23.4532 21.3109C23.4159 21.3857 23.5308 21.4811 23.53 21.4942C23.5101 21.5465 22.9944 22.1671 22.9048 22.2526C22.7669 22.4018 22.6063 22.5351 22.4739 22.6302C22.2046 22.8333 22.2129 22.8258 22.1574 22.8699C22.146 22.8751 22.1108 22.788 22.101 22.7947C22.1026 22.8046 21.9908 23.0076 21.9444 23.0282C21.8731 23.0782 21.5874 23.0652 21.5401 23.1128C21.5335 23.12 21.65 23.2386 21.5385 23.2945C21.4093 23.3546 21.4601 23.1747 21.4539 23.1692C21.2908 23.1505 21.1597 23.186 21.0356 23.2256C20.9412 23.2537 20.852 23.2849 20.7583 23.2977C20.6842 23.3076 20.5455 23.177 20.4418 23.2178C20.4297 23.2225 20.4551 23.3462 20.4433 23.3525C20.2847 23.4203 20.1327 23.1916 20.0642 23.177C19.8971 23.1418 19.9867 23.3078 19.9795 23.3118C19.8667 23.3175 19.7151 23.2553 19.544 23.2616C18.8534 23.286 18.2728 23.278 17.5948 23.2146C17.524 23.2078 17.4514 23.1994 17.3786 23.1911C17.2821 23.1801 17.1825 23.0526 17.1655 23.047C17.1198 23.0426 17.1159 23.1838 16.9838 23.1645C16.7065 23.1227 16.4503 23.0907 16.1815 23.0391C16.1274 23.0287 16.1276 22.8961 16.0875 22.8856C15.9545 22.8553 15.4124 23.0813 15.5062 22.6647C15.1489 22.9643 15.0517 22.6004 14.845 22.5409C14.8394 22.5392 14.8335 22.5378 14.8278 22.5362C14.3247 22.3981 13.5893 22.1745 13.1435 21.8844C13.0491 21.8241 13.0528 21.7026 13.0009 21.6682C12.9644 21.644 12.8527 21.592 12.7267 21.5318C12.5283 21.4377 12.2965 21.3246 12.2833 21.3047C12.2403 21.2408 12.5216 20.8514 12.0075 21.0305C11.8161 20.9492 11.9408 20.792 11.9104 20.761C11.6734 20.5226 11.1665 20.7169 11.4356 20.4116C11.0583 20.2968 10.7268 20.3375 10.8183 19.9431C10.7149 20.0942 10.5049 20.0818 10.3796 19.9023C10.7353 19.7788 10.8199 19.6017 11.2162 19.9415C11.2226 19.9469 11.1347 20.0489 11.141 20.0543C11.1982 20.1038 11.3663 20.1347 11.4701 20.211C11.5739 20.2874 11.4649 20.3253 11.5092 20.352C11.5501 20.3748 11.6172 20.2688 11.6753 20.3034C11.8652 20.4192 12.0519 20.4933 12.161 20.5573C12.2296 20.5977 12.2487 20.74 12.3021 20.7719C12.4481 20.8587 12.7324 20.9741 12.9742 21.0837C13.0739 21.1291 13.1662 21.1741 13.239 21.2169C13.2903 21.2475 13.2105 21.3461 13.3221 21.4159C13.3356 21.4233 13.4446 21.3343 13.5555 21.3595C13.6668 21.3848 13.7153 21.4799 13.7843 21.4974C13.8413 21.5108 13.8689 21.397 13.977 21.4378C14.052 21.4742 14.7261 21.8051 15.019 21.9173C15.0753 21.941 15.1137 21.9579 15.1239 21.9643C15.201 22.0151 15.1985 22.1847 15.2571 22.1805C15.2684 22.1762 15.3244 22.0326 15.359 22.0285C15.8911 22.0045 16.9615 22.3806 17.6606 22.4484C17.6976 22.4527 17.7342 22.4567 17.7687 22.4594C18.8366 22.5397 19.9493 22.4982 20.9996 22.4155C21.273 22.3912 21.5269 22.3505 21.6874 22.3059C21.6935 22.2766 21.6993 22.2471 21.7031 22.2181C21.6442 22.2313 21.5628 22.2456 21.4696 22.2573C21.4589 22.1839 21.4489 22.1098 21.4383 22.0364C21.3162 22.0403 21.3464 22.2118 21.3631 22.3168C21.3064 22.2777 21.2483 22.2384 21.1891 22.1977C21.178 22.3063 21.1034 22.3449 20.998 22.3513C20.8299 22.3612 20.5995 22.3093 20.4527 22.3121C20.2882 22.3154 20.0897 22.4151 20.0015 22.4077C19.8155 22.3922 19.8203 22.2331 19.8056 22.2306C19.7773 22.2296 19.52 22.3663 19.334 22.3576C19.0573 22.3443 19.0347 22.0998 18.654 22.2933C18.3417 22.1967 18.009 22.1775 17.6857 22.1648C17.519 22.1583 17.3518 22.1535 17.189 22.1413C17.3057 21.928 16.856 22.0885 16.6673 22.0536C16.1579 21.9638 15.6244 21.8212 15.1083 21.6274C14.4557 21.3856 13.9136 21.0825 13.3377 20.7108C13.2967 20.6843 13.265 20.6482 13.2375 20.6105C13.1776 20.5284 13.1414 20.4375 13.087 20.41C13.0438 20.3891 12.9472 20.5135 12.899 20.4617C12.8938 20.4477 12.9551 20.3201 12.8599 20.2392C12.6189 20.0379 11.8196 19.8243 11.8132 19.4793C11.5334 19.3104 11.2604 19.1371 11.011 18.9685C10.7391 18.7826 10.4782 18.5978 10.2636 18.4358C10.0593 18.2901 9.85612 18.0861 9.94241 18.207C9.84989 18.089 9.76015 17.979 9.67918 17.8827C9.70532 17.819 9.7318 17.7552 9.75909 17.6931C9.56333 17.6933 9.36753 17.4965 9.34075 17.4424C9.31078 17.3819 9.38647 17.4403 9.37365 17.4314C9.36185 17.4327 9.31416 17.3259 9.28434 17.1322C9.23215 16.6712 9.19177 16.2045 9.18876 15.8364C9.18793 15.7019 9.2757 15.593 9.27651 15.4651C9.27633 15.4097 9.16589 15.3386 9.16683 15.2802C9.16951 15.0554 9.19032 14.8239 9.21697 14.5109C9.2604 14.0587 9.34532 14.074 9.34231 14.0596C9.97241 12.9245 10.351 12.3978 11.0752 11.7376C11.2302 11.5975 11.3852 11.4578 11.5406 11.3192C12.3019 10.6375 13.1479 9.92891 13.6574 9.62861C14.0263 9.41201 14.2196 9.3048 14.2261 9.30271C14.2327 9.29837 14.1783 9.29699 14.2857 9.28861C14.8604 9.28074 15.4279 9.27966 15.9355 9.29957C16.1799 9.30912 16.4142 9.32534 16.5827 9.34501C16.7747 9.48266 16.9655 9.62455 17.1185 9.74299C17.0571 9.77085 16.9855 9.80258 16.8992 9.84483C16.6208 9.98524 16.2672 10.1748 15.7945 10.5436C15.5957 10.7362 15.3696 11.1091 15.406 11.2299C15.4335 11.3635 15.7235 11.126 16.1721 10.7066C16.1839 10.797 16.117 10.9916 16.0437 11.2174C16.0562 11.5653 16.1087 11.8754 16.18 12.1449C16.2121 12.1532 16.2042 12.1528 16.1815 12.1512C16.3479 12.7763 16.6086 13.178 16.6923 13.2966C16.8385 13.4914 16.7778 13.4155 16.3038 12.8735C15.9703 12.4772 15.7797 12.2799 15.6034 12.1136C15.5993 12.1134 15.5949 12.1138 15.5908 12.1136C15.3497 12.1003 15.0803 12.0934 14.7965 12.0854C14.4439 12.3097 13.697 12.8786 13.0839 13.4047C12.9981 13.4771 12.865 13.4307 12.8254 13.4642C12.7917 13.4928 12.7567 13.5246 12.7204 13.5582C12.5109 13.7532 12.3786 14.0342 12.2535 14.1787C12.1196 14.3279 11.9477 14.5886 11.6424 15.1031C11.593 15.3604 11.5201 15.5544 11.315 15.6546C11.299 15.7874 11.5609 15.8618 11.5751 15.8959C11.6183 16.0054 11.4357 16.2798 11.4466 16.3425C11.4485 16.3515 11.6403 16.295 11.5845 16.4428C11.5802 16.4512 11.5242 16.4509 11.4857 16.4835C11.524 16.4998 11.5726 16.5244 11.6127 16.5524C11.6192 16.5453 11.6289 16.5403 11.6362 16.5321C11.7053 16.6191 12.0262 16.8967 12.3569 17.1588C12.9097 17.6066 13.6888 18.135 14.3797 18.5533C14.3812 18.5542 14.3828 18.5555 14.3844 18.5564C14.4139 18.5039 14.4426 18.4507 14.4721 18.3982C14.6582 18.7755 14.9274 18.4543 14.9171 18.8385C15.0398 18.8125 15.1556 18.7806 15.2649 18.7444C15.4668 18.8599 15.6575 18.9527 15.9073 19.0453C16.3946 19.227 16.9296 19.3404 17.54 19.4088C17.4646 19.3724 17.3789 19.3378 17.2815 19.3116C17.5809 19.2413 17.9016 19.1729 18.231 19.1017C18.2286 19.0524 18.2254 19.0021 18.2231 18.9528C17.9087 18.7263 17.6076 18.6604 17.1843 18.663C17.1946 18.6166 17.2052 18.5699 17.2157 18.5235C17.5752 18.2735 18.0569 18.2058 18.3485 17.8764C17.8817 17.673 17.4311 17.4641 16.9932 17.2607C17.0122 17.2236 17.0309 17.1864 17.0496 17.1494C17.2476 17.0432 17.7027 16.9626 17.8753 16.8658C18.5299 16.4963 17.2743 16.6491 17.471 16.4349C18.1882 16.3969 18.8512 16.3978 19.6709 16.2861C19.5704 16.2043 16.8812 15.9228 16.8678 15.4776C17.091 15.4331 17.3112 15.39 17.5322 15.3476C17.4268 15.2389 17.3217 15.1301 17.2157 15.0216C17.2415 14.9838 17.2654 14.945 17.2909 14.9073C17.6633 14.7973 18.0328 14.6902 18.3923 14.5782C17.2776 14.7337 16.7395 14.6924 16.357 13.8199C16.3899 13.7941 16.4248 13.7687 16.4589 13.7431C16.7873 14.2805 17.9483 14.043 18.5224 13.8904C18.3961 13.7341 17.8732 13.8928 17.7515 13.7995C17.7179 13.7728 17.8237 13.6521 17.7468 13.5974C17.5503 13.4547 16.6687 13.3065 16.7801 13.1132C16.8747 12.986 18.1962 12.7537 18.4362 12.7435C18.2235 12.9603 18.0996 13.1047 18.173 13.2041C18.3055 13.1168 18.4889 12.9283 18.7073 12.7106C18.8733 12.6108 18.8484 12.7542 18.9266 12.5946C18.992 12.4456 19.0451 12.0852 19.0943 11.7C19.1033 11.6317 19.2256 11.6285 19.2306 11.6201C19.2789 11.4601 19.1053 11.558 19.1037 11.3208C19.1037 11.3034 19.124 11.2581 19.1491 11.1954C19.0631 11.0813 18.9481 10.9424 18.8201 10.7896C18.7305 10.6811 18.6645 10.6101 18.6227 10.5765C18.5636 10.5297 18.5093 10.6398 18.4942 10.6361C18.4337 10.6032 18.5377 10.4793 18.5052 10.434C18.4166 10.3108 18.0881 10.1332 18.0461 10.0877C18.0327 10.0725 18.0207 10.0495 18.0038 10.025C18.1195 9.99491 18.2343 9.97527 18.35 9.97175C18.3267 9.79005 18.0503 9.8104 17.8643 9.82133C17.8592 9.81346 17.8538 9.80573 17.8487 9.79783C18.0343 9.63436 18.2057 9.51789 18.3422 9.43589C18.6339 9.73425 18.9115 10.056 19.2337 10.4465C19.6006 10.8275 19.7787 11.1039 19.8432 11.1892C19.8304 11.9984 19.759 12.823 19.6176 13.0333C19.6705 13.0622 19.7236 13.091 19.7759 13.1211C19.8938 12.9872 20.0773 12.628 20.1315 12.2139C20.1752 11.9092 20.1159 11.4821 20.13 11.0873C20.1392 11.1534 20.2061 11.112 20.3054 10.9322C20.3913 11.0109 20.2497 11.1016 20.4543 11.0466C20.4574 10.9779 20.3794 10.794 20.2193 10.5781C20.1484 10.6461 20.0763 10.7132 20.0046 10.7802C19.8712 10.6458 19.7154 10.4726 19.5048 10.2224C19.4408 10.1456 19.3797 10.0729 19.3183 10.0046C19.2791 9.96077 19.2367 10.049 19.204 10.0109C19.1685 9.96863 19.2581 9.94015 19.2557 9.93101C19.1659 9.82173 19.0691 9.84862 19.0582 9.83543C19.0329 9.80012 19.1217 9.76833 19.0598 9.65838C18.9435 9.45329 18.6634 9.49169 18.9846 9.27137C18.9351 9.21672 18.8843 9.16322 18.8342 9.10999C18.7451 9.16808 18.6563 9.22654 18.5678 9.28547C18.5695 9.09337 18.4994 8.9974 18.4143 8.94234C18.2759 8.86991 18.0157 8.94131 18.1416 8.52399C18.0214 8.54284 17.9003 8.56299 17.7797 8.58353C17.8071 8.47205 17.8344 8.35931 17.8596 8.24666C17.7977 8.31272 17.735 8.37946 17.6732 8.44565C17.4962 8.26558 17.2726 8.12334 17.048 7.9897C17.2637 8.13343 17.0838 8.05007 16.9665 8.03514C16.7473 7.98846 16.6751 7.9471 16.4291 7.93016C15.8562 7.90211 16.4453 7.76284 15.9638 7.54002C15.9843 7.65169 16.0044 7.76362 16.0233 7.87532C15.9406 7.91119 15.8571 7.94811 15.7726 7.985C15.7204 7.89259 15.6638 7.79971 15.6096 7.70767C15.3376 8.16466 15.1797 7.78844 15.1427 7.78601C15.1129 7.78645 15.0107 8.06454 14.7009 7.82362C14.8266 8.20689 14.4675 7.82843 14.433 7.82205C14.4223 7.82143 14.3632 7.83376 14.2857 7.84869C14.2016 7.87241 14.1047 7.91021 14.0569 7.91449C13.9951 7.91801 13.8586 7.86063 13.7718 7.89412C13.695 7.92378 13.7484 8.04477 13.7435 8.04767C13.6545 8.09476 13.6755 7.97696 13.5978 8.00537C13.5162 8.03728 13.4937 8.17505 13.4694 8.17772C13.4564 8.17861 13.4339 8.05107 13.38 8.06648C13.2717 8.09688 13.1201 8.24783 12.9523 8.37357C12.916 8.40441 12.8785 8.43273 12.8426 8.45348C12.7928 8.48229 12.6732 8.43666 12.6123 8.47229C12.519 8.52784 12.5524 8.67001 12.4979 8.70261C12.4755 8.71134 12.2377 8.62398 12.1078 8.76058C12.0853 8.79381 12.2686 9.2008 11.774 8.78722C11.8199 8.86455 11.8673 8.942 11.9135 9.01911C11.5549 9.58139 10.9471 9.15352 11.141 9.8323C10.7326 10.0897 10.8148 9.68812 10.7509 9.69128C10.7089 9.69542 10.6348 9.85197 10.6193 9.8605C10.5912 9.87494 10.5426 9.81165 10.5174 9.83386C10.0616 10.2565 10.3682 10.1875 10.2855 10.3901C10.2359 10.5125 10.1599 10.5951 10.085 10.6439C9.92919 10.7422 9.76579 10.6686 9.94398 10.4888C9.9969 10.4367 10.076 10.376 10.1868 10.3086C10.157 10.2753 10.1274 10.2417 10.0975 10.2083C10.0526 10.2699 9.96992 10.3529 9.88287 10.4199C9.74687 10.5225 9.5969 10.5826 9.56951 10.4105C9.56192 10.3587 9.60891 10.2791 9.67762 10.1927C9.91143 9.90292 10.3589 9.53547 9.839 9.74142C9.70229 9.7966 9.72672 9.94408 9.44886 9.94198C9.41274 9.94128 9.37103 9.93719 9.32351 9.93101C9.18247 10.0394 9.44746 10.3495 9.16996 10.3948C9.29777 10.4687 9.42474 10.544 9.5507 10.6204C9.46785 10.9602 9.04218 11.0605 8.95687 11.2926C8.92406 11.3742 9.29995 12.0009 8.79706 11.5386C8.74849 11.6615 8.29663 12.1051 8.28627 12.2452C8.28321 12.2798 8.57141 12.4933 8.25023 12.7905C8.19653 12.7931 8.14273 12.7952 8.08885 12.7983C8.17179 12.3925 7.70631 12.9279 7.50285 12.5931C7.66939 12.6113 7.90844 12.3887 8.00111 12.3862C8.15899 12.3834 8.17914 12.6838 8.30194 12.3909C7.91706 11.9169 7.84239 12.552 7.41824 12.1998C7.41732 12.7069 7.18734 12.6266 7.12838 12.709C7.11163 12.7329 7.09521 12.7562 7.07981 12.7795C6.88762 13.0752 6.85301 13.3178 6.72727 13.6522C6.81169 13.7466 7.12627 13.1692 7.12995 13.0944C7.339 13.4097 7.48915 13.2205 7.49815 13.0161C7.51031 12.9418 7.50879 12.8637 7.49032 12.7936C7.60455 12.8353 7.71933 12.877 7.83345 12.919C7.77751 12.9822 7.72418 13.0477 7.67364 13.1148C7.57143 13.2339 7.50889 13.3867 7.53419 13.5598C7.48727 13.561 7.44033 13.563 7.39317 13.5661C7.34136 13.4984 7.29184 13.4274 7.24589 13.353C7.07759 13.5237 7.44738 13.4829 7.08764 13.6914C7.2185 13.7259 7.34953 13.7596 7.48092 13.7917C7.40855 13.9818 7.35681 14.1908 7.31327 14.4529C7.30307 14.5174 7.29235 14.5798 7.28193 14.6409C7.54528 14.8284 7.42727 15.4451 7.07981 15.324C7.05003 15.5765 7.24347 15.2681 7.32423 15.5058C7.35922 15.6091 7.36674 15.8094 7.27253 15.8583C6.93792 15.8357 6.89978 15.5308 6.67243 15.4337C6.58917 15.4911 6.8356 16.9118 6.44837 16.7937C6.40438 16.9097 6.60327 16.8523 6.66146 17.0554C6.67752 17.1121 6.68846 17.1716 6.69593 17.234C6.73604 17.7575 6.68707 18.5985 7.2929 18.6771C7.31569 18.1586 7.03327 18.1748 6.94193 17.7981C6.92477 17.7182 6.88387 17.4908 6.88082 17.2262C6.87063 16.7029 6.93092 16.0999 7.16285 16.3315C7.11742 16.2736 7.07163 16.2151 7.02654 16.156C7.13156 16.0964 7.23767 16.0372 7.34304 15.979C7.35769 16.1449 7.37262 16.3103 7.39004 16.4757C7.28586 16.5172 7.18225 16.5589 7.07824 16.601C7.15323 16.6182 7.22885 16.6345 7.30386 16.6512C7.32009 16.7207 7.33571 16.79 7.35244 16.8595C7.2621 16.8426 7.17169 16.8253 7.08137 16.8078C7.06871 16.917 7.05678 17.026 7.04534 17.1353C7.16442 17.1019 7.28339 17.068 7.40258 17.035C7.40892 17.1034 7.41312 17.159 7.41511 17.2058C7.42976 17.464 7.341 17.381 7.17068 17.6132C7.17356 17.7888 7.35697 17.4816 7.47465 17.8075C7.63698 18.1413 7.1898 18.0281 7.47935 18.4546C7.53486 18.4319 7.59043 18.4094 7.64543 18.3856C7.64491 18.5053 7.66144 18.6367 7.69244 18.7789C7.74172 18.7205 7.79217 18.6633 7.84285 18.6066C7.96395 18.8223 8.37365 19.0984 8.20793 19.3696C8.11068 19.0116 7.71633 19.3382 7.69244 19.4605C7.68412 19.5098 7.74056 19.6174 7.83659 19.7692C8.06177 20.1562 8.85902 20.7306 9.42379 21.1041C9.68088 21.2753 9.89641 21.4073 9.99882 21.4739C10.5138 21.8064 10.8266 22.1964 11.4387 22.2698C11.2146 21.9065 10.0073 21.3217 9.89227 21.0524C9.88007 21.0256 10.159 20.6506 9.72305 20.985C9.68377 20.9445 9.64237 20.9053 9.59928 20.8675C9.2382 20.5502 8.71657 20.3063 8.33797 19.9258C8.44456 19.8413 8.55104 19.7567 8.65604 19.6704C8.71919 20.1236 9.41023 19.8625 9.03835 20.2376C9.09784 20.2855 9.15921 20.3342 9.2201 20.3818C9.27572 20.3106 9.33056 20.2383 9.38619 20.1671C9.4771 20.2381 9.57 20.3095 9.66352 20.3802C9.60903 20.4523 9.55348 20.5244 9.499 20.5964C9.56315 20.6449 9.62824 20.6922 9.69328 20.7406C9.70717 20.7509 9.72152 20.7615 9.73559 20.7719C9.79685 20.7057 9.85788 20.6393 9.91891 20.5729C10.0351 20.8979 11.1374 21.032 10.4783 21.2373C10.592 21.3135 10.706 21.3899 10.8214 21.4645C10.8568 21.4088 10.8926 21.3524 10.9279 21.2968C10.9821 21.3212 11.0366 21.3449 11.0909 21.3689C11.0425 21.409 10.9938 21.4496 10.9452 21.4895C11.2293 21.5442 11.2839 21.9464 11.5437 21.8624C11.4666 21.7632 11.3903 21.6631 11.315 21.5632C11.4602 21.7555 11.9072 21.814 11.9386 21.8311C12.035 21.8869 12.0198 22.0313 12.1219 22.0975C12.2143 22.1567 12.2517 22.0608 12.2676 22.074C12.3082 22.1075 12.3419 22.1416 12.3694 22.1742C12.6542 22.5087 12.326 22.7923 12.8223 22.3764C12.8062 22.469 12.7904 22.5624 12.7752 22.6553C12.8438 22.6062 12.9115 22.5564 12.9789 22.5064C13.1269 22.5883 13.2762 22.6669 13.4255 22.7414C13.4206 22.6164 13.4162 22.4914 13.4145 22.367C13.6532 22.4228 13.6699 22.6691 13.6903 22.6866C13.747 22.7246 13.8288 22.6073 13.8485 22.613C14.7691 22.9752 14.1539 22.8781 14.4831 23.5484C14.4974 23.5399 14.5104 23.5309 14.5223 23.5217C14.6449 23.4252 14.6414 23.2889 14.6366 23.1519C14.6338 23.0799 14.6317 23.0068 14.6445 22.9389C14.6608 22.9526 14.6763 22.9653 14.6915 22.9765C14.8594 23.0994 14.9529 23.0772 15.1741 23.1472C15.2366 23.1678 15.2778 23.2955 15.3182 23.3071C15.3545 23.3164 15.4927 23.2259 15.5767 23.2444C15.7174 23.2758 15.8919 23.3855 16.0891 23.4199C16.2535 23.4501 16.7705 23.4457 17.1263 23.4825C17.278 23.4994 17.2327 23.5972 17.2721 23.6016C17.2898 23.6023 17.4209 23.4932 17.5181 23.5014C17.5347 23.5028 17.5514 23.5046 17.5682 23.5061C18.3515 23.5737 19.1864 23.672 20.0015 23.6674C20.3533 23.6652 20.7081 23.6223 21.0513 23.5813C21.2673 23.5543 21.471 23.5247 21.6639 23.5014C21.7636 23.4889 21.7259 23.5851 21.7704 23.5813C21.7846 23.576 21.7819 23.4242 21.9334 23.4559C21.988 23.4674 21.9532 23.5873 22.0055 23.5813C22.0294 23.5777 22.0157 23.4435 22.1277 23.3776C22.3168 23.2589 22.456 23.3745 22.4771 23.3588C22.4982 23.3326 22.4327 23.2433 22.463 23.2178C22.5229 23.1703 22.5866 23.1086 22.7372 22.9874C22.8601 22.8826 22.9883 22.76 23.1242 22.6271C23.2263 22.5459 23.9335 21.7658 23.9859 21.7246C24.1073 21.655 24.2032 21.9036 24.3103 21.7684C24.2971 21.6925 24.2838 21.6165 24.2695 21.5412C24.1856 21.5695 24.1011 21.599 24.0173 21.6259C24.2121 21.5188 24.2846 21.2655 24.387 21.148C24.41 21.1245 24.6584 20.9878 24.7349 20.8738C24.7329 20.9469 24.7314 21.0196 24.7286 21.0931C24.7711 21.1007 24.8133 21.1088 24.8555 21.1166C24.9775 20.8808 25.1402 20.6705 25.3193 20.4523C25.3293 20.4404 25.3393 20.428 25.3491 20.4163C25.4032 20.3504 25.4588 20.4279 25.5136 20.3583C25.8239 19.9306 25.4014 19.8989 26.2751 19.7535C26.1536 19.8937 25.8999 20.4929 25.8129 20.5557C25.7779 20.5863 25.4963 20.5273 25.4572 20.562C25.4337 20.5851 25.4805 20.6361 25.6734 20.7406C25.3019 21.2097 25.3513 20.5914 25.0702 21.0665C25.1364 21.1054 25.203 21.1435 25.2692 21.1824C25.1873 21.3617 25.1266 21.4963 24.9495 21.5005C25.2104 21.7654 24.6277 22.1274 24.409 22.4014C24.0944 22.8014 23.7538 23.278 23.3843 23.5922C23.3345 23.6344 23.2763 23.6509 23.2276 23.6533C23.1394 23.6685 23.0755 23.6527 23.0646 23.6612C23.0394 23.6833 23.0481 23.8358 23.002 23.8696C22.8299 24.0256 22.215 24.0236 22.1057 24.3882C22.5769 24.2924 22.939 24.123 23.3326 23.7959C24.057 23.2452 24.6901 22.5148 25.2958 21.7872C25.1162 21.808 25.5547 21.2036 25.8176 20.8456C25.9051 20.7283 25.9677 20.6403 25.9805 20.6262C26.0235 20.5784 26.092 20.691 26.109 20.6795C26.2351 20.5889 26.1524 20.3889 26.1748 20.352C26.1936 20.3236 26.2987 20.3061 26.3566 20.1985C26.3673 20.1784 26.2939 20.1302 26.3049 20.1092C26.3792 19.9702 26.4485 19.8302 26.5101 19.683C26.5146 19.6746 26.6479 19.6855 26.6637 19.6469C26.6793 19.6081 26.5742 19.5233 26.5775 19.5138C26.625 19.3955 26.7767 19.2104 26.8141 19.0891C26.8256 19.048 26.7288 19.0489 26.7436 19.003C26.788 18.8613 26.9489 18.9579 26.9535 18.7632C26.9542 18.7072 26.8541 18.6759 26.8564 18.5972C26.8556 18.5891 26.8577 18.5798 26.8626 18.569C26.8876 18.5128 27.1289 18.5548 27.1431 18.5455C27.16 18.5294 26.9963 18.2245 27.1635 18.1381C27.575 18.3882 27.2044 17.9024 27.0209 17.9125C27.0748 17.7964 27.1286 17.68 27.1823 17.5631C27.1393 17.5181 27.0968 17.4744 27.0538 17.4299C27.1541 17.232 27.1946 17.0648 27.2152 16.9003C27.2433 16.6756 27.2306 16.46 27.2794 16.1874C27.2845 16.1638 27.3993 15.7692 27.4627 15.7878C27.5679 16.0313 27.5618 16.2752 27.3484 16.4177C27.6625 16.6468 27.4992 16.677 27.4486 16.9175C27.4384 16.9667 27.4324 17.0226 27.4361 17.0914C27.444 17.2299 27.5502 17.2478 27.5505 17.2638C27.556 17.6848 27.5844 18.31 27.3531 18.7256C27.2888 18.8259 27.2144 18.9075 27.1306 18.9622C27.1846 19.0826 27.3133 18.7424 27.3358 18.8949C27.3414 18.9398 27.2464 19.4186 27.0789 19.7895C26.912 20.1648 26.7012 20.4067 26.6746 20.0669C26.6574 20.1251 26.6392 20.1843 26.6198 20.2423C26.8923 20.454 26.6623 20.6946 26.3942 20.4852C26.4383 20.5451 26.4816 20.6055 26.5242 20.667C26.5427 20.7467 26.5313 20.8223 26.4913 20.9129C26.4632 20.9762 26.3935 21.0857 26.2923 21.2185C25.8642 21.8069 24.8517 22.8794 24.8085 22.9671C24.8654 23.023 24.9225 23.0787 24.9793 23.1347C25.5575 22.6128 25.9489 21.9541 26.4866 21.3705C26.6362 21.2079 26.7903 21.042 26.9535 20.8675C26.8725 20.856 26.7908 20.8437 26.7107 20.8299C27.0351 20.5201 27.3291 20.1565 27.5818 19.7676C27.5598 20.2601 27.277 21.0562 26.8658 21.4049C26.795 21.467 26.7506 21.3502 26.7279 21.3595C26.6882 21.3761 26.7274 21.4525 26.7201 21.5538C26.7216 21.5948 26.7114 21.6434 26.6809 21.6917C26.5866 21.8421 26.2023 22.1179 26.1779 22.1523C26.1341 22.2187 26.1575 22.5193 26.0667 22.6239C25.9474 22.7608 25.9276 22.5852 25.9022 22.6114C25.7958 22.7185 25.7571 22.8614 25.6719 22.9451C25.5458 23.07 25.1367 23.1871 25.2942 23.5029C25.3919 23.42 25.4888 23.3364 25.5841 23.2522C25.2019 23.851 24.5506 23.9315 24.1834 24.6467C24.2884 25.0765 24.778 24.6169 24.4388 25.1058C24.5201 25.0362 24.5962 24.9661 24.6691 24.8974C24.6332 24.8181 24.5968 24.7391 24.5594 24.6608C24.7244 24.5987 24.8852 24.5326 25.0436 24.465C24.9589 24.4422 24.8737 24.4187 24.7897 24.3944C25.1666 23.9684 25.4617 23.5265 25.8881 23.6549C25.8233 23.5818 25.7588 23.5084 25.6938 23.4355C26.1163 23.145 26.2556 22.3212 26.5884 22.7696C26.5811 22.7334 26.5728 22.6973 26.5649 22.6615C26.8353 22.5044 26.5844 22.459 26.6323 22.3591C26.648 22.3298 27.0856 21.9614 27.0585 22.2557C27.2067 22.1347 27.2439 22.0361 27.2309 21.9565C27.2267 21.7723 27.0176 21.6727 27.0742 21.5726C27.5316 21.395 27.5631 20.5421 27.7573 21.0117C27.8009 20.964 27.8449 20.9154 27.8874 20.8659C27.7039 20.5423 28.1026 20.5205 28.2994 20.352C28.3348 20.2842 28.3698 20.2163 28.4028 20.1483C28.3223 20.0641 28.2397 19.9812 28.1569 19.9008C28.8471 19.4096 27.462 19.2352 28.6488 19.2631C28.703 19.3254 28.7572 19.3882 28.8102 19.4527C28.8108 19.5699 28.8088 19.6902 28.804 19.813C28.8913 19.5888 28.9676 19.3703 29.0374 19.1612C29.1647 18.683 29.1716 18.4958 29.2098 18.2713C29.5425 17.799 29.2833 17.5223 29.473 17.0648C29.489 17.0228 29.5085 16.9791 29.531 16.9348C29.5043 16.8774 29.478 16.8185 29.4511 16.7608C29.7063 16.8339 29.655 17.0511 29.7958 16.6496C29.9814 16.6249 29.9894 16.9051 29.8396 17.0209C29.8032 17.0486 29.68 16.7816 29.6547 17.0711C29.6546 17.0732 29.6549 17.0753 29.6547 17.0773C29.6442 17.2424 29.8801 16.9491 29.7629 17.4659C29.809 17.4493 29.8561 17.434 29.9023 17.4173C29.897 17.4742 29.8919 17.5316 29.8866 17.5897C29.7795 17.6335 29.6711 17.6777 29.5639 17.7229C29.7042 17.8692 29.9103 17.9475 29.8412 18.2791C29.7823 18.1852 29.5692 18.2849 29.556 18.4687C29.6307 18.4754 29.7054 18.4824 29.7801 18.4891C29.774 18.9346 29.6394 18.8409 29.5999 19.3069C29.6019 19.3412 29.6069 19.3837 29.6171 19.4386C29.5504 19.458 29.4836 19.4774 29.4166 19.4965C29.6151 19.7379 29.5083 20.5828 29.2066 20.316C29.4711 20.6536 29.1082 21.0902 28.7648 21.1276C28.8254 21.1735 28.8864 21.2204 28.9465 21.267C28.9138 21.3665 28.8788 21.4655 28.8416 21.5647C28.774 21.5939 28.7056 21.6226 28.6379 21.6494C28.6403 21.7353 28.6417 21.8225 28.641 21.9094C28.5541 21.9079 28.4671 21.9057 28.3809 21.9016C28.3941 22.0473 28.4026 22.195 28.4075 22.3435C28.3172 22.3678 28.2261 22.3907 28.1365 22.4108C28.178 22.4449 28.159 22.5363 28.1051 22.6443C28.0554 22.783 27.8848 22.988 27.773 23.0203C27.7817 23.0823 27.7896 23.1463 27.798 23.2084C27.7265 23.1787 27.6535 23.1502 27.5818 23.1206C27.6082 23.1828 27.6349 23.2452 27.6602 23.3086C27.5666 23.33 27.4718 23.3522 27.3781 23.3729C27.4614 23.846 27.2055 23.6516 27.1619 23.7066C27.0818 23.8103 26.9522 24.3101 26.8893 24.3615C26.828 24.4121 26.7059 24.3528 26.6543 24.3913C25.7876 25.0252 26.3247 24.9514 26.2155 25.1481C26.1507 25.256 26.0023 25.231 25.9319 25.3173C25.8418 25.4345 25.4064 25.9769 25.1203 26.2198C25.1209 26.229 25.0954 26.2516 25.089 26.2527C25.0216 26.2721 24.8131 25.7108 24.7035 25.9801C24.9281 26.2165 23.9981 26.4485 24.586 26.5849C24.2343 26.7652 23.8502 26.9027 23.5112 26.9829C23.6759 27.3142 23.1686 27.2474 22.7873 27.3464C22.2157 27.5168 21.1954 27.8109 21.222 27.4294L21.2189 27.431C21.13 27.5205 21.0398 27.6104 20.951 27.6989C20.3136 27.6003 19.7203 27.7256 19.1037 27.7177C18.4993 27.7093 17.875 27.6774 17.2141 27.608C15.9942 27.4812 14.7007 27.2079 13.5117 26.7886C13.4081 26.7523 13.3048 26.7144 13.2014 26.6758C13.109 26.641 13.1608 26.5304 13.0949 26.505C12.7489 26.3811 11.796 26.0826 11.3604 25.825C11.2189 25.7448 11.2049 25.6024 11.163 25.5743C11.0217 25.4788 10.9836 25.6357 10.917 25.5962C10.8698 25.5675 10.7431 25.4642 10.6067 25.3486C10.4388 25.2064 10.2526 25.0439 10.1555 24.9773C10.0685 24.9182 9.89816 24.9621 9.81236 24.8661C9.8049 24.8579 9.88782 24.7567 9.88131 24.7501C9.69834 24.6215 9.75495 24.7864 9.69328 24.7423C9.25376 24.426 8.77274 24.1138 8.29567 23.7505C8.17724 23.6602 8.04319 23.4522 7.94313 23.3682C7.90465 23.3363 7.91854 23.4702 7.78332 23.3603C7.77455 23.3532 7.77021 23.3423 7.76765 23.3306C7.75898 23.282 7.79143 23.2016 7.75511 23.166C7.56126 22.9771 7.2369 23.2441 7.24746 22.8339C6.86855 22.5546 6.15228 22.1513 5.59915 21.4284C5.59743 21.4262 5.59456 21.4228 5.59288 21.4206C5.55567 21.3702 5.59522 21.2991 5.55214 21.2451C5.52131 21.2068 5.37204 21.2055 5.31085 21.1307C5.25022 21.0555 5.23404 20.8616 5.07426 20.6513C4.90674 20.4376 4.62035 20.0905 4.58384 20.0151C4.53728 19.9279 4.64092 19.823 4.59638 19.7363C4.44744 19.4807 4.0626 18.7547 3.99941 18.4201C3.91625 18.0581 3.96967 17.8554 3.95711 17.7432C3.94607 17.6425 3.82113 17.5302 3.81766 17.4863C3.81295 17.4271 3.9085 17.4011 3.93674 17.3421C3.94211 17.3335 3.94517 17.3231 3.94457 17.3124C3.93788 17.2024 3.84797 17.091 3.84116 16.9254C3.80345 16.0531 3.82237 15.118 3.8584 14.3495C3.86662 13.632 4.02933 12.3903 4.62928 11.3944C5.25328 10.2839 6.3175 8.77323 7.51539 7.80325C7.52501 7.79516 7.53396 7.78626 7.54359 7.77818C7.7803 7.58003 7.84534 7.39012 8.2236 7.11697C8.37742 7.00694 8.41044 7.16654 8.50406 7.0496C8.54572 6.99742 8.45995 6.92351 8.51973 6.86471C8.7844 6.60525 9.19375 6.40489 9.32351 6.29909C9.37435 6.25707 9.35408 6.11036 9.46139 6.02332C9.88405 5.68611 10.3616 5.32656 11.0282 4.95161C11.3621 4.77477 12.0866 4.30743 13.0071 4.08829C13.3927 3.99204 13.8558 3.92869 14.2872 3.91593C14.7009 3.8937 15.1544 3.87226 15.547 3.87833C15.9812 3.88549 16.4305 3.90014 16.943 3.9504C17.2009 3.97679 17.4727 4.01109 17.8063 4.07888C18.1641 4.179 18.4787 4.14793 19.3622 4.71032C19.9534 5.14076 20.4287 5.46159 21.1562 6.1377C21.3414 6.31814 21.5158 6.49802 21.6796 6.67356C22.0094 7.02582 22.3263 7.40212 22.5695 7.68574C22.725 7.99809 24.0937 8.74419 24.2131 11.1484C24.208 11.7522 24.2049 12.3588 24.0878 13.1618C24.096 13.1629 24.1046 13.1638 24.1129 13.165C24.1296 13.1691 24.1464 13.1735 24.163 13.1775C24.1322 13.2278 24.0964 13.2848 24.0611 13.3389C24.0465 13.4326 24.0279 13.5323 24.0032 13.6366C24.0513 13.6353 24.0993 13.6345 24.1473 13.6334C24.0952 13.6498 24.0427 13.6654 23.9906 13.682C23.9189 13.9715 23.8144 14.2929 23.6804 14.6096C23.7154 14.6443 23.7507 14.6797 23.7854 14.7161C23.8808 14.5232 23.9651 14.3246 24.0376 14.1301C23.9645 14.1175 23.9002 14.114 24.0549 14.0878C24.1592 13.8011 24.237 13.5248 24.2695 13.2872C24.4338 12.4057 24.4383 11.7523 24.4654 11.1516C24.4695 10.9653 24.4612 10.7822 24.4419 10.6047C24.0919 8.44194 22.9525 7.75998 22.8186 7.47891C22.46 7.03713 21.9466 6.42982 21.3897 5.89954C20.5981 5.17452 20.1301 4.88273 19.5361 4.46589C18.8002 3.98446 18.4708 3.95555 18.1558 3.86109C17.8547 3.78779 17.6175 3.75047 17.399 3.72165C16.9649 3.66659 16.6014 3.64732 16.2489 3.63234C15.5512 3.60518 14.9146 3.60884 14.2872 3.61353C13.5514 3.60088 12.5399 3.80541 11.8414 4.14312C11.3964 4.34694 11.082 4.541 10.8653 4.66018C9.54595 5.42822 8.66821 6.22314 7.79428 6.90389C7.74433 6.94381 7.71118 7.10458 7.60313 7.18748C7.58131 7.20372 7.24328 7.29593 7.12525 7.37237C7.11486 7.37956 7.10612 7.38764 7.09861 7.3943C7.41454 7.53538 6.8022 7.71308 6.67713 7.85339C6.52067 8.02334 6.30245 8.47668 5.89058 8.84206C5.51802 9.1784 5.50688 9.0003 5.4832 9.01598C5.33636 9.12769 5.4592 9.29541 5.39859 9.41395C5.24698 9.68697 4.67423 10.5588 4.29241 11.2033C3.69748 12.2031 3.53681 13.2352 3.49489 13.635C3.46922 13.8839 3.34822 13.8768 3.34291 13.9311C3.33461 14.0487 3.4163 14.2092 3.44005 14.3369C3.44462 14.354 3.44713 14.3748 3.44632 14.3949C3.43576 14.6381 3.30473 14.9743 3.3006 15.1298C3.28796 15.5079 3.42244 16.2378 3.43692 16.7342C3.44034 16.8738 3.31014 16.8681 3.31157 16.9316C3.31496 17.0312 3.34021 17.1887 3.37268 17.3641C3.43155 17.7876 3.56667 18.3615 3.65941 18.7382C3.83164 19.68 4.50063 20.8991 4.90191 21.2906C4.87953 21.3562 4.85592 21.422 4.8314 21.4848C4.91285 21.4894 4.99159 21.4896 5.06799 21.488C5.128 21.5741 5.17823 21.6442 5.22311 21.7058C6.26071 22.9723 6.86357 23.1606 7.51069 23.6768C7.55309 23.7081 7.59588 23.7398 7.6376 23.7708C7.73319 23.8444 8.13793 24.2632 8.21576 24.3145C8.2809 24.3585 8.4251 24.282 8.50876 24.3631C8.62531 24.4761 8.34889 24.6231 8.61217 24.7015C8.6825 24.7214 8.69042 24.5855 8.82839 24.631C8.87673 24.6513 9.65446 25.0798 9.69955 25.1121C9.76144 25.1651 9.69649 25.4193 9.71209 25.4348C9.79169 25.5135 9.88485 25.3467 9.95651 25.3675C10.1687 25.4304 10.354 25.683 10.3874 25.6981C10.3941 25.7011 10.4008 25.7044 10.4078 25.7075C10.8054 25.8879 11.6185 26.1361 12.0435 26.4094C12.1017 26.4487 12.0391 26.5768 12.0482 26.5864C12.1105 26.6449 12.2184 26.5141 12.2895 26.5379C12.6158 26.6547 13.0746 26.9009 13.4302 27.0518C13.4914 27.0781 13.5508 27.1017 13.6057 27.1223C13.649 27.1384 13.7644 27.0898 13.8407 27.1192C14.2693 27.2825 14.101 27.364 14.1212 27.3777C14.1784 27.4064 14.3198 27.2997 14.4815 27.3291C14.8999 27.4094 15.6861 27.5751 16.1204 27.6425C16.4432 27.6953 16.4211 27.8491 16.4416 27.8572C16.4873 27.8684 16.6302 27.7587 16.8443 27.7663C17.0476 27.773 17.1352 27.8032 17.1937 27.8352C17.2531 27.8678 17.2814 27.9018 17.3661 27.9057C17.3796 27.9058 17.3667 27.7829 17.5494 27.7835C17.9056 27.7871 18.6699 27.9404 19.0332 27.9402C19.1727 27.9408 19.2076 27.8244 19.3497 27.8242C19.5749 27.8244 20.0841 27.9509 20.1253 27.9496C20.1367 27.9444 20.1624 27.8139 20.2271 27.8133C20.3001 27.8127 20.3724 27.8819 20.4277 27.8807C20.7374 27.8757 21.2828 27.6164 21.1484 28.1078C21.1807 28.0687 21.2128 28.0296 21.244 27.9903C21.3257 27.9045 21.4004 27.8177 21.4806 27.7302C22.2731 27.6849 23.1835 27.5886 24.4011 26.9233C24.6599 26.7755 24.9244 26.7052 25.0796 26.5849C25.1366 26.5411 25.2603 26.4147 25.2457 26.3906C25.4598 26.1768 25.6416 25.9417 25.6938 25.8939C25.8739 25.7478 26.5976 25.0068 26.6778 24.9256C26.8567 24.7655 27.1584 24.7301 27.1932 24.6326C27.2201 24.5546 27.0883 24.5312 27.1588 24.4023C27.2817 24.1791 27.6592 23.9562 27.704 23.8978C27.7224 23.873 27.6202 23.8609 27.7996 23.6314C27.8969 23.5062 28.0239 23.5013 28.0597 23.4559C28.0664 23.4407 27.9359 23.3599 28.138 23.1378C28.2805 22.9813 28.4255 22.9922 28.4373 22.978C28.4446 22.9691 28.4413 22.9355 28.4342 22.9013C28.4431 22.8322 28.46 22.7434 28.5251 22.66C28.7975 22.329 29.351 21.6888 29.5325 21.3015C29.5673 21.2283 29.4189 21.1862 29.5545 20.902C29.6484 20.6998 29.7482 20.7808 29.7832 20.7046C29.8375 20.5829 29.7612 20.3481 29.8459 20.0951C29.8778 20.001 29.9753 19.7305 30.0747 19.4292C30.219 18.8813 30.2304 18.6587 30.2705 18.4326C30.3039 18.2162 30.3311 18.0351 30.3583 17.8717C30.4119 17.5485 30.4589 17.3066 30.4758 17.2748C30.4998 17.2279 30.5101 17.1771 30.5431 17.1416C30.5542 17.1283 30.5681 17.1165 30.5854 17.1087C30.609 17.1221 30.6324 17.1358 30.6559 17.1494C30.695 17.1692 30.7344 17.1895 30.7735 17.2089C30.5262 17.4675 30.7948 17.3766 30.8064 17.4502C30.8226 17.5582 30.7608 17.9625 30.8111 18.0738C30.8297 18.1133 30.9755 18.0331 31.032 18.2446C31.0917 18.4787 30.8343 18.5856 31.1573 18.7476C30.9521 18.9481 30.9033 19.3286 30.8863 19.6391C30.9154 19.7048 30.9842 19.7348 31.0586 19.6845C31.1131 19.585 31.1724 19.4318 31.2169 19.274C31.3639 18.6667 31.4603 17.8624 31.5631 17.2168C31.6157 16.834 31.6505 16.5019 31.6634 16.3566C31.6971 15.9945 31.6105 15.3125 31.6258 14.8462C31.6403 14.5798 31.6197 13.8727 31.7966 13.881C31.7995 13.6077 31.6423 13.9086 31.6133 13.8528C31.5831 13.7941 31.5858 13.5604 31.5757 13.2684C31.5596 12.9675 31.5599 12.6305 31.3814 12.0556C31.3531 11.9685 31.314 11.8514 31.2545 11.7078C31.0197 11.1887 30.4663 10.3849 30.3018 9.80409C30.2804 9.73625 30.2624 9.6689 30.247 9.60197C30.3063 9.60986 30.3661 9.61824 30.4256 9.62704C30.4464 9.64141 30.4686 9.6672 30.493 9.70068C30.6284 9.86648 30.8462 10.4437 31.0602 10.4308C30.9179 10.1367 30.7683 9.85343 30.6418 9.62077C30.2253 8.85108 29.7227 8.09605 29.191 7.42721C29.0425 7.53661 28.1689 6.5143 28.265 6.49651C28.3462 6.44566 28.4274 6.39456 28.5094 6.34453C28.6409 7.04119 29.0094 6.73433 29.1471 7.30343C29.2845 7.48086 29.3655 7.33134 29.4589 7.40214C30.3825 8.14127 29.2168 7.59989 29.8396 8.22943C29.8747 7.87937 30.3589 8.43131 30.5541 8.70261C30.5851 8.74275 30.805 9.1558 30.9474 9.45469C31.0008 9.56865 31.0484 9.6704 31.0649 9.69912C31.319 10.1243 31.7978 10.9416 31.9345 11.4289C32.1843 12.0917 32.1594 12.1557 32.2024 12.3377C32.2281 12.4829 32.2383 12.5802 32.2447 12.6667C32.3557 13.4752 32.5091 13.6275 32.5785 14.0925C32.6231 14.4192 32.5035 14.3294 32.5079 14.4795C32.5149 14.7902 32.8623 14.8846 32.381 15.0828C32.4428 15.286 32.5011 15.4867 32.5581 15.6876C32.4831 15.6863 32.4075 15.6841 32.3325 15.6829C32.3304 15.8081 32.3284 15.9314 32.3246 16.0542C32.3983 16.0924 32.4721 16.1309 32.5456 16.1701C32.4284 16.5577 32.2532 16.3866 32.0379 16.449C32.0196 16.5309 32.0005 16.6141 31.9815 16.695C32.1411 16.7675 32.3002 16.8421 32.4594 16.916C32.4477 17.0373 32.4365 17.1565 32.4233 17.2779C32.3999 17.4768 32.3773 17.6738 32.3544 17.8796C32.2784 17.8943 32.2016 17.9088 32.1256 17.9234C32.2003 17.9291 32.275 17.935 32.3497 17.9407C32.3424 18.1266 32.3366 18.3113 32.3231 18.5533C32.2947 18.8251 32.3368 19.0093 32.1225 19.9587C32.0755 20.1585 32.0207 20.3771 31.9549 20.6105C31.9876 20.7651 32.1913 20.3166 32.309 20.0073C32.517 19.2316 32.513 19.062 32.5314 18.9936C32.6459 18.2575 32.5593 17.5188 32.8323 17.5019C32.7914 17.453 32.7638 17.3833 32.7492 17.303C32.705 16.9467 32.8018 16.4209 32.9937 16.2265C32.967 16.5916 32.9346 16.9536 32.895 17.3124C32.8929 17.329 32.8907 17.3461 32.8887 17.3625C32.9785 17.3594 33.0683 17.3562 33.1582 17.3531C32.7713 17.6977 32.7891 17.7446 33.1018 18.1773C32.9819 18.1695 32.8613 18.1615 32.7414 18.1537C32.9395 18.3144 32.8543 18.5181 32.7712 18.7695C32.6922 19.0044 32.588 19.3977 32.8338 19.4762C32.7942 19.6372 32.745 19.8394 32.6646 20.0998C32.6018 20.2273 32.5348 20.3629 32.4641 20.5056C32.4258 20.7515 32.5537 20.7204 32.6035 20.8581C32.6387 21.0028 32.6657 21.3013 32.0802 22.4375C31.9952 22.5934 31.8944 22.5044 31.7841 22.7461C31.7504 22.8107 31.7312 23.3153 31.2388 24.02C31.1614 24.1287 31.0623 24.0726 30.9725 24.1751C30.8626 24.2997 30.7564 24.5315 30.6607 24.653C30.631 24.6913 30.5756 24.6949 30.4773 24.5417C30.0037 24.9726 30.3919 24.9649 30.3551 25.2045C30.3246 25.37 30.1745 25.2099 30.1311 25.3424C30.0767 25.5052 30.329 25.5501 29.8255 25.9958C29.8624 25.929 29.8996 25.8614 29.9352 25.7952C29.8658 25.7856 29.7951 25.7763 29.7253 25.767C29.5905 26.1484 29.4548 25.9859 29.5874 26.3436C29.2864 26.462 29.1147 26.6406 28.8463 26.9672C28.2915 27.615 28.8913 27.5443 27.7369 27.9543C27.6385 28.1333 27.5271 28.319 27.3922 28.5152C27.0653 28.6202 27.1105 28.3993 26.836 28.5246C26.9389 28.6427 27.031 28.639 26.8689 28.8239C26.7029 29.022 26.2027 29.409 26.1309 29.6261C26.0614 29.5796 25.9914 29.5326 25.9225 29.4851C25.7363 29.5905 25.5397 29.6914 25.3538 29.7781C25.3787 29.833 25.4041 29.8877 25.429 29.9426C25.1534 30.0214 24.8889 30.0797 24.6393 30.1212C24.4866 30.2395 24.3335 30.3526 24.1865 30.4581C23.8795 30.4169 23.6061 30.352 23.3545 30.2763C23.209 30.2982 23.0731 30.3143 22.9409 30.328C22.996 30.4098 23.0549 30.4921 23.1148 30.5725C22.9327 30.5751 22.7627 30.5711 22.5993 30.5631C22.8119 30.6803 22.7001 30.8782 22.2233 30.925C21.8483 30.9547 22.2142 30.6234 21.4774 30.7981C21.4577 30.803 21.433 30.8407 21.3693 30.8874C21.2922 30.9595 21.1344 31.0563 20.8225 31.0848C20.2107 31.1382 20.5066 30.9723 20.3979 30.9689C20.3766 30.9689 20.1936 31.0811 20.0234 31.0974C19.9272 31.1064 19.8341 31.0175 19.8213 31.0175C19.7617 31.0214 19.7439 31.1478 19.6615 31.1522C19.451 31.1621 19.1698 31.0959 18.9627 31.0974C18.8686 31.098 18.778 31.1695 18.7355 31.1694C18.6701 31.1684 18.5903 31.0529 18.524 31.0504C18.2807 31.045 17.8774 31.404 17.7875 30.8717C17.5174 31.3425 17.0224 30.7188 17.0355 31.0441C16.9997 31.0347 16.96 31.0264 16.918 31.019C16.18 30.909 14.3551 30.9348 14.5035 30.4252C13.9926 30.7957 14.0952 30.4698 13.919 30.4377C13.7197 30.3995 13.801 30.5118 13.6448 30.4706C13.2777 30.3718 12.9333 30.2368 12.57 30.1244C12.649 30.0704 12.7272 30.0163 12.805 29.9614C12.6773 29.9152 12.6034 29.9081 12.5449 29.916C12.4335 29.9306 12.3788 30.0006 12.114 29.9363C11.3638 29.7429 11.7157 29.7146 11.6769 29.4945C11.6403 29.6873 10.7883 29.3193 10.7149 29.2532C10.6716 29.2167 10.9836 29.0921 10.4516 28.9383C10.4475 29.0186 10.4439 29.099 10.4407 29.1796C10.247 28.9832 9.60578 28.8094 9.5272 28.7377C9.48722 28.6994 9.54284 28.0541 9.12139 28.3664C9.13353 28.2876 9.14598 28.2082 9.159 28.1298C9.12945 28.1253 9.09925 28.1218 9.06969 28.1172C8.84474 28.0835 8.62247 28.0469 8.40222 28.0107C8.43768 27.8754 8.47381 27.7398 8.51033 27.6049C8.44683 27.5676 8.3838 27.5297 8.32074 27.4921C8.30123 27.62 8.28117 27.7492 8.26277 27.8775C7.89583 27.5991 7.32316 27.4613 7.46055 27.069C7.33837 27.0799 7.21569 27.0897 7.09234 27.0988C7.11165 26.9514 7.13127 26.804 7.15188 26.657C6.75374 26.4338 6.69714 26.5025 6.34966 26.436C6.4202 26.3573 6.491 26.2769 6.56118 26.1979C6.35814 26.1875 6.06768 26.1083 5.7997 25.9769C5.71307 25.9378 5.63098 25.8934 5.55684 25.8438C5.42889 25.7584 5.29397 25.4714 5.25445 25.4568C5.21508 25.45 4.53877 25.6301 4.8079 25.2155C4.16378 24.9674 4.00671 24.5152 3.70798 24.2158C3.50374 24.0056 3.32155 23.9909 3.01387 23.6267C2.969 23.5726 2.92103 23.5103 2.87443 23.4481C2.8451 23.4139 2.8155 23.3045 2.75221 23.2366C2.71237 23.1947 2.61504 23.2535 2.58143 23.2193C2.40282 23.0201 2.60651 23.0947 2.37461 22.8025C2.35354 22.7741 2.05295 22.6202 1.79801 22.1852C1.65451 21.9593 1.41701 21.1633 1.39534 21.0963C1.27528 20.8139 1.02974 21.1455 1.0334 20.023C0.984932 20.0694 0.93548 20.1165 0.887682 20.164C0.374956 18.9609 0.693611 18.8058 0.665191 18.5878C0.662337 18.5609 0.527917 18.3309 0.528877 18.1945C0.529801 17.9592 0.666114 17.868 0.669892 17.8184C0.673795 17.7475 0.661649 17.6219 0.65579 17.4706C0.650483 17.3349 0.654743 17.167 0.732565 17.0382C0.329621 17.095 0.172517 16.3377 0.630721 16.1717C0.540244 16.0402 0.450287 15.9069 0.361226 15.7737C0.436693 15.7153 0.512674 15.6563 0.588416 15.5982C0.513933 15.5608 0.438735 15.5249 0.364359 15.487C0.53224 15.2978 0.701789 15.111 0.872013 14.9323C0.707484 14.9158 0.542976 14.8989 0.378461 14.8822C0.398739 14.8313 0.419164 14.7802 0.439567 14.7302C0.572003 14.6949 0.7051 14.6602 0.837543 14.6268C0.814698 14.5643 0.791531 14.5044 0.768602 14.4466C0.674273 14.4294 0.579341 14.412 0.485005 14.3949C0.455512 14.3072 0.513564 14.2728 0.589983 14.2508C0.779632 14.1157 1.02701 14.1863 0.558647 13.2088C0.657302 13.0039 0.763934 12.7898 0.879847 12.5743C0.567501 12.2471 0.902427 11.7672 1.00676 11.3302C1.083 11.0186 0.936197 10.9825 1.10704 10.5593C1.28786 10.1374 1.41487 10.2147 1.42981 10.1833C1.51916 10.0111 1.57138 9.84756 1.62566 9.69598C1.62727 9.64219 1.63068 9.59195 1.66326 9.5581C1.67528 9.54779 1.83268 9.59778 1.90456 9.49386C1.97753 9.3872 1.86554 9.23039 2.0017 9.06298C2.07227 8.97709 2.20707 9.01837 2.26963 8.93764C2.56265 8.56115 2.30767 7.67039 3.24577 7.79541C3.20994 7.65725 3.36505 6.84385 3.59674 6.61089C3.94735 6.25443 3.94518 6.50887 4.09656 6.3837C4.11927 6.36651 4.17761 6.21412 4.46633 5.93088C4.51692 5.88083 4.43988 5.82803 4.44596 5.81964C4.61678 5.64682 4.88649 5.41238 5.1573 5.19604C5.33818 5.05869 5.52468 4.91818 5.65712 4.80903C5.68104 4.78712 5.63698 4.48647 6.08017 4.55677C6.23568 4.0822 7.21593 3.96537 7.50755 3.2563C7.57576 3.19368 7.72361 3.19775 7.75511 3.17012C8.04064 2.92623 7.7254 2.78827 8.75005 2.59039C8.60715 2.51494 8.71767 2.2838 9.04932 2.09684C9.21487 2.00426 9.31304 1.98683 9.37052 2.00126C9.43923 2.05648 9.45776 2.17721 9.57264 2.09527C9.53562 2.03022 9.49841 1.96448 9.46139 1.89942C10.1112 1.79015 10.2494 1.21159 11.9119 0.708626C12.5419 0.526753 13.4441 0.598094 13.5618 0.595814C13.6168 0.586341 14.1924 0.383098 14.2418 0.385858C14.2573 0.385512 14.2725 0.384124 14.2872 0.384291ZM15.8901 5.23677C15.7792 5.2367 15.581 5.40447 15.3057 5.39816C15.0482 5.39167 14.65 5.38713 14.2872 5.37152C13.9365 5.3572 13.581 5.38414 13.355 5.39816C13.2789 5.40175 13.1864 5.29701 13.1309 5.31355C13.0466 5.3402 13.0523 5.47632 13.0385 5.4812C12.7756 5.57031 12.8919 5.4023 12.7267 5.4953C12.6395 5.54746 12.6008 5.72243 12.4258 5.82747C12.2006 5.96651 12.1671 5.78954 12.0827 5.85411C12.0748 5.86168 12.1288 5.9711 12.0467 6.02176C11.9471 6.08296 11.8426 6.15115 11.7396 6.21605C11.4581 6.38882 11.1902 6.58491 10.9953 6.72213C10.9131 6.7801 10.8044 6.75659 10.6914 6.83808C10.4458 6.99765 9.3015 8.02104 9.18563 8.06961C9.17245 8.07315 9.15536 7.84999 8.99761 7.9944C9.00019 8.09209 9.00214 8.19002 9.00545 8.2874C8.84793 8.26585 8.68997 8.24531 8.53226 8.22473C8.72707 8.44015 8.58672 8.72462 8.38968 8.76842C8.29936 8.7919 8.19931 8.77088 8.11392 8.67597C8.04801 8.71356 7.98228 8.75097 7.9165 8.79035C8.01051 9.10859 7.8595 9.10301 7.78175 9.43589C7.68505 9.4072 7.58671 9.38085 7.48875 9.35441C7.52504 9.40363 7.56185 9.45274 7.59843 9.50169C7.24933 9.4018 7.32108 9.8175 7.30543 9.84326C7.23357 9.94089 7.11211 9.96115 7.07824 10.0078C6.94907 10.1816 6.77351 10.6192 6.59879 10.7928C6.59025 10.8008 6.47908 10.7155 6.42644 10.7646C6.33267 10.8538 6.49712 10.972 6.20708 10.9855C6.24035 11.0456 6.27495 11.1047 6.30893 11.1641C6.26419 11.1777 6.21877 11.1911 6.17418 11.2048C6.08139 11.3892 5.99438 11.5719 5.91095 11.7501C5.79603 11.477 5.57752 11.5928 5.64459 11.8504C5.66754 11.9374 5.82115 11.9589 5.82947 11.9883C5.8307 11.9954 5.81859 12.0201 5.79814 12.0556C5.62183 12.3106 5.29654 13.1037 5.22311 13.1556C5.25433 13.221 5.28628 13.2849 5.32025 13.3467C5.22649 13.3567 5.13205 13.3667 5.03822 13.3796C5.06384 13.4161 5.09018 13.4525 5.11656 13.4877C4.96398 13.6908 5.08795 14.1693 5.1714 14.3886C5.20238 14.4667 5.22268 14.5348 5.21371 14.5626C5.19637 14.6187 4.81409 14.5514 4.84394 14.8274C4.94893 14.8402 5.05387 14.8536 5.15887 14.8665C5.17185 14.9301 5.18638 14.992 5.19961 15.0561C5.18666 15.1735 4.99908 15.3445 4.87371 15.3476C4.94772 15.387 5.02205 15.4246 5.0962 15.4635C4.84903 15.5593 4.93196 16.103 5.08993 16.3174C5.01652 16.3806 4.94202 16.4456 4.86901 16.5101C4.96001 16.5946 5.05153 16.6778 5.1432 16.7608C5.17437 16.9548 5.02284 16.7543 5.01002 16.7937C4.98857 16.8733 5.19228 17.2269 5.02726 17.2983C5.00499 17.3093 4.97512 17.3151 4.93795 17.3124C4.94023 17.3874 4.94425 17.4578 4.94891 17.5349C5.04112 17.5674 5.13358 17.5972 5.22624 17.6273C4.93344 17.7848 5.04432 17.9924 5.05859 18.5298C5.13853 18.5547 5.21952 18.5803 5.29988 18.6019C5.2469 18.784 5.20777 18.9792 5.18394 19.1832C5.30682 19.1714 5.42921 19.1552 5.55058 19.1377C5.59551 19.1959 5.64145 19.253 5.68846 19.3069C5.52139 19.5618 5.90048 19.637 5.87491 19.7895C5.84225 20.0182 5.612 20.0409 5.38449 19.7347C5.30635 19.7938 5.4404 20.0698 5.60228 20.2862C5.76523 20.5072 5.92806 20.6644 5.98146 20.7218C6.00439 20.6902 6.02759 20.658 6.0504 20.6262C5.92427 20.5146 5.78002 20.3839 5.62109 20.2157C5.90618 19.7881 6.15136 20.3331 6.31989 20.4382C6.33582 20.4492 6.54915 20.4221 6.64893 20.5823C6.65529 20.5933 6.65938 20.6139 6.66146 20.6403C6.72757 20.849 6.81163 21.2048 6.85105 21.2608C7.22797 21.7919 7.14845 21.1977 7.36027 21.828C7.43705 21.5564 7.5455 21.9295 7.82562 22.0849C7.87511 22.1141 8.35583 22.219 8.38185 22.2306C8.52586 22.303 8.32563 22.3594 8.42572 22.4453C8.44275 22.4598 8.46902 22.4741 8.50563 22.4907C8.56784 22.4625 8.63019 22.4348 8.69208 22.4061C8.74355 22.4435 8.79543 22.4805 8.8472 22.5174C8.8569 23.177 9.15914 22.9052 9.29844 22.9389C9.35562 22.9527 9.21936 23.028 9.35485 23.083C9.40578 23.1034 9.51855 23.0413 9.64315 23.1128C10.0317 23.334 9.90583 23.8375 10.5268 23.611C10.5426 23.7075 10.5587 23.8043 10.5754 23.9009C10.6578 23.8459 10.7397 23.7904 10.8214 23.7348C10.9734 24.1237 11.0062 23.8339 11.1066 23.8946C11.1705 23.9333 11.2504 23.9843 11.3338 24.0403C11.5977 24.2192 11.9133 24.4577 11.8822 24.6232C12.3497 24.309 12.4175 24.9504 12.5355 24.9804C12.6218 24.953 12.7075 24.9234 12.7925 24.8943C12.8421 24.9801 12.8936 25.0659 12.946 25.1512C13.0873 24.6902 13.2955 25.2786 13.3346 25.2985C13.3642 25.3145 13.682 25.3551 13.9441 25.3925C14.0614 25.4098 14.1686 25.4285 14.2371 25.4489C14.4558 25.5162 14.8141 25.7382 14.8529 25.7482C14.8934 25.7585 15.3066 25.719 15.6049 25.7748C15.863 25.845 17.3975 26.2145 17.3206 25.9801C17.2254 25.9118 17.0867 25.8458 16.9665 25.8046C16.6306 25.7137 14.8146 25.3152 14.0647 25.0008C13.9753 24.9677 13.9 24.939 13.8423 24.9162C13.0333 24.6024 12.2119 24.2104 11.4795 23.7787C11.2207 23.6274 10.9679 23.4702 10.7227 23.3086C10.6673 23.2721 10.7226 23.1602 10.6757 23.1284C10.6038 23.0813 10.3531 23.0727 10.2824 23.025C10.0186 22.8478 9.70597 22.6188 9.56637 22.5205C9.25361 22.302 9.08319 22.0874 8.8566 21.9047C8.85187 21.9009 8.84421 21.8968 8.83623 21.8922C8.72531 21.8292 8.31596 21.6849 8.12175 21.4504C8.09885 21.3869 8.07652 21.3229 8.05438 21.2592C8.20797 21.3335 8.60397 21.508 8.76572 21.6133C8.83752 21.6609 8.89269 21.7096 8.93807 21.7559C9.04591 21.8654 9.09703 21.9619 9.159 22.005C9.23328 22.058 9.67574 22.2247 9.84997 22.3356C9.90376 22.3704 9.84273 22.4874 9.88914 22.5174C10.1413 22.6799 10.4783 22.888 10.7666 22.9122C10.6532 22.894 11.1796 23.3024 11.2115 23.318C11.2633 23.3478 11.3803 23.2739 11.4857 23.3337C11.5777 23.3859 11.5976 23.4574 11.6268 23.5123C11.6625 23.5785 11.712 23.6211 11.9198 23.5734C11.9485 23.6739 11.978 23.7752 12.0091 23.8758C12.1619 23.576 12.8067 24.4098 13.2218 24.1187C13.2326 24.0866 12.2153 23.4635 12.1422 23.4026C12.0382 23.338 11.9208 23.2722 11.7975 23.2037C11.3335 22.9466 10.7726 22.6561 10.4234 22.3764C10.2883 22.2704 9.9618 21.8038 9.92831 21.7841C9.87228 21.7538 9.85332 21.8838 9.82803 21.8718C9.30761 21.62 9.67845 21.5856 9.65725 21.4864C9.64295 21.4198 9.40192 21.4132 9.38305 21.4002C9.35122 21.377 9.39972 21.3287 9.40969 21.3141C9.35591 21.2785 9.31884 21.2716 9.29218 21.2796C9.21268 21.3034 9.21569 21.4615 9.08065 21.4034C9.0492 21.3901 8.75185 21.0352 8.60434 20.927C8.37505 20.7625 8.16979 20.5685 8.08885 20.4993C7.96384 20.3926 7.64988 20.2912 7.44331 20.0606C7.42845 20.0442 7.41434 20.0271 7.40101 20.0104C7.32806 19.919 7.40285 19.8087 7.3258 19.7159C7.11781 19.4599 6.76125 19.1215 6.52201 18.652C6.28008 18.1853 6.19276 17.6495 6.18514 17.2528C6.1827 17.128 6.18618 17.0159 6.19455 16.9191C6.20982 16.7472 6.3706 16.5808 6.35593 16.4913C6.2948 16.4215 6.23325 16.3506 6.17261 16.2798C6.71428 16.0579 6.2324 15.989 6.18358 15.7502C6.15335 15.6004 6.31293 15.5322 6.31519 15.5121C6.31439 15.3788 6.23903 15.3102 6.22902 15.205C6.21809 15.0867 6.29707 14.9199 6.28542 14.8775C6.27654 14.8529 6.06014 14.9231 6.08017 14.4717C6.08094 14.4536 6.08254 14.4329 6.0833 14.4153C6.09868 13.964 6.16578 13.4721 6.3434 13.0051C5.67266 12.9676 6.04224 13.2789 6.0269 13.4862C6.02217 13.5453 5.92828 13.4901 5.92348 13.5426C5.90783 13.6922 5.97954 13.9722 5.95012 14.0831C5.9167 14.2035 5.68146 14.1532 5.7621 14.3103C5.76635 14.3181 5.8659 14.2978 5.88118 14.3338C5.89257 14.361 5.90139 14.3871 5.90938 14.4106C6.00625 14.6924 5.85414 14.8163 5.83887 15.2191C5.82055 15.48 5.90355 16.9328 5.89528 17.2654C5.89347 17.3043 5.89009 17.3284 5.88431 17.3359C5.81319 17.4132 5.75139 17.3823 5.70099 17.2732C5.5175 16.923 5.51368 15.7378 5.54274 15.5685C5.55361 15.4921 5.66027 15.5731 5.68219 15.5042C5.68789 15.4716 5.48863 15.2045 5.48007 14.9433C5.47503 14.8025 5.50702 14.5945 5.54118 14.3996C5.58125 14.1379 5.64663 13.8224 5.67436 13.6287C5.73437 13.1638 5.88093 12.6769 6.12874 12.2421C6.73725 11.1213 7.5871 9.91523 8.63254 9.03791C9.28981 8.46878 9.95435 7.89937 10.6679 7.3473C10.7122 7.31243 10.6965 7.16904 10.8465 7.05744C11.1548 6.82982 11.4773 6.60743 11.8445 6.4025C12.3858 6.0717 13.3943 5.57673 14.2857 5.63475C14.894 5.64213 15.5067 5.65539 16.1345 5.69586C16.4497 5.71691 16.7674 5.74485 17.1028 5.79457C17.4518 5.86546 17.751 5.84872 18.3156 6.19411C18.8446 6.57738 19.3411 6.92489 19.8902 7.43191C20.2244 7.75419 20.5358 8.09424 20.8288 8.43155C20.9492 8.56986 21.072 8.70497 21.1891 8.82952C21.4987 9.16714 22.0767 9.58196 22.2985 10.4575C22.4275 10.5693 22.5513 10.7083 22.6573 10.8742C22.5704 10.4229 22.4222 9.7223 22.3893 9.67718C22.3775 9.65763 22.2234 9.59254 22.1167 9.43589C21.9665 9.21836 21.9662 9.08997 21.9538 9.07082C21.9149 9.02392 21.8677 9.11421 21.8315 9.07082C21.6662 8.87281 21.5275 8.73659 21.4289 8.62897C21.3532 8.54487 21.2744 8.4535 21.1907 8.35321C20.9411 8.05433 20.9317 7.77956 20.589 7.68887C20.6213 7.61325 20.6533 7.53639 20.6846 7.46011C20.545 7.47972 20.3434 7.36631 20.1159 7.20158C19.6332 6.84352 19.1565 6.47626 18.889 6.26305C18.7612 6.1627 18.8614 6.07286 18.817 6.04056C18.7915 6.02345 18.7169 6.13616 18.4723 5.97005C18.3917 5.91407 18.307 5.86407 18.2247 5.81964C17.8651 5.63911 17.8481 5.52852 17.6967 5.48903C17.6179 5.47286 17.604 5.59695 17.5008 5.57521C16.9276 5.46484 16.5357 5.40388 16.0515 5.35272C15.918 5.33955 15.9206 5.23695 15.8901 5.23677ZM20.5577 26.0052C20.6617 26.0041 20.7655 26.0027 20.8695 26.0005C20.8623 25.9381 20.7436 25.9412 20.6987 25.9002L20.6533 25.814C20.6408 25.7837 20.624 25.7541 20.5796 25.7372C20.5725 25.8262 20.5648 25.9162 20.5577 26.0052ZM7.70497 24.7454C7.18241 25.099 7.88104 24.9061 7.89613 25.4724C8.00081 25.1205 8.4031 25.399 8.44295 25.3957C8.45951 25.2651 8.47693 25.1341 8.49466 25.0039C8.25658 24.9925 8.017 24.9773 7.77391 24.9569C7.75094 24.8867 7.72752 24.8158 7.70497 24.7454ZM14.8529 24.8363C14.903 24.968 14.9552 25.0999 15.0096 25.2311C15.0228 25.0801 15.0358 24.9291 15.0503 24.7783C14.985 24.7982 14.919 24.8174 14.8529 24.8363ZM20.7034 24.4728C20.1735 24.3076 20.405 24.563 19.862 24.5496C19.8438 24.6837 20.6389 24.593 20.7034 24.4728ZM23.6804 24.2675C23.629 24.3055 23.5721 24.3502 23.5112 24.396C23.5918 24.4666 23.6731 24.5374 23.754 24.6075C23.7642 24.5326 23.7699 24.4613 23.7728 24.3929C23.7856 24.3196 23.7967 24.2445 23.8058 24.172C23.765 24.204 23.7221 24.2368 23.6804 24.2675ZM31.2764 23.3901C30.9431 23.8452 30.3764 24.4289 30.703 24.4728C30.8971 24.1935 31.0838 23.899 31.2576 23.5922C31.2644 23.5252 31.2708 23.4572 31.2764 23.3901ZM3.80983 20.6623C3.46687 20.3488 3.62156 21.1007 3.48706 21.1699C3.72595 21.4773 4.15747 21.878 4.24697 21.9815C4.29824 22.043 4.05176 22.183 4.4726 22.1977C4.46274 22.2278 4.45251 22.257 4.44126 22.2855C4.50914 22.4601 4.5698 22.6131 4.62615 22.754C4.97964 22.9764 5.27153 23.0868 5.54274 23.1739C5.50761 23.2838 5.47201 23.3931 5.43777 23.5029C5.45485 23.5439 6.01233 23.7052 6.0363 23.6204C6.06533 23.9049 6.35401 24.1804 6.64893 24.4148C6.7121 24.3915 6.77442 24.3667 6.83695 24.3427C6.47362 24.2222 6.78071 24.2254 6.76017 24.0732C6.74808 23.9853 6.66839 23.7671 6.6693 23.6471C6.65555 24.0092 5.83744 23.3978 5.51767 22.9937C5.44663 22.9049 5.40432 22.6383 5.32339 22.5816C5.24032 22.5805 5.15514 22.5754 5.06799 22.5675C5.10609 22.4844 4.98134 22.3413 4.74366 22.0614C4.65633 21.9987 4.44478 21.9072 4.29398 21.8233C4.33799 21.7581 4.38247 21.6922 4.42559 21.6259C4.34154 21.567 4.24772 21.4958 4.14669 21.4096C4.21639 21.3783 4.28608 21.3465 4.35508 21.3141C4.22753 21.2936 4.09403 21.2634 3.95554 21.2216C3.61128 20.8876 4.11321 20.9145 3.80983 20.6623ZM24.5907 23.6189C24.5523 23.5786 24.4047 23.7255 24.3682 23.7301C24.353 23.7317 24.3333 23.6218 24.246 23.669C24.1896 23.7749 24.1317 23.8801 24.069 23.9855C24.2223 24.1802 24.6611 23.6903 24.5907 23.6189ZM24.749 23.1645C24.7181 23.1617 24.4928 23.4086 24.492 23.4308C24.5043 23.7286 24.9785 23.2071 24.749 23.1645ZM23.6005 20.1123C23.508 20.1837 23.4392 20.1936 23.3764 20.2016C23.2589 20.2882 23.1494 20.3629 23.0474 20.4288C23.0202 20.5122 23.0007 20.5976 22.9189 20.6983C22.7889 20.8594 22.2242 20.9948 22.6181 21.2216C22.0615 21.2469 22.4795 21.755 22.0697 21.5726C22.0948 21.6305 22.1206 21.6882 22.1449 21.7465C21.9154 21.6861 21.9334 21.7788 21.9162 21.8734C21.8481 21.9488 21.7988 22.0114 21.7657 22.0458C21.7608 22.0516 21.7544 22.0506 21.7469 22.0489C21.754 22.0652 21.7631 22.0837 21.772 22.1037C21.7647 22.0832 21.7529 22.064 21.7391 22.0458C21.7252 22.0393 21.7095 22.0268 21.6968 22.0144C21.692 22.0066 21.6875 21.9987 21.6827 21.9909C21.6836 21.995 21.6834 21.9994 21.6843 22.0035L21.6858 22.0082C21.7018 22.0816 21.7178 22.1551 21.7313 22.2291C21.7416 22.2602 21.8089 22.2587 21.8315 22.2526C21.8429 22.2496 21.8341 22.25 21.8284 22.2495C21.8306 22.2436 21.8143 22.25 22.0525 22.0599C22.4233 21.7467 23.1286 20.8016 23.2276 20.6121C23.4594 20.4883 23.6705 20.1929 23.8778 19.882C23.7836 19.9622 23.6928 20.0424 23.6005 20.1123ZM21.6968 22.0144C21.7044 22.027 21.7127 22.0394 21.7203 22.052C21.7254 22.0752 21.7323 22.0983 21.7438 22.1178C21.6576 21.9743 21.659 21.981 21.6858 22.0082C21.6855 22.0066 21.6846 22.0051 21.6843 22.0035C21.6877 22.007 21.6925 22.0102 21.6968 22.0144ZM25.7862 21.1762C25.5238 21.3054 25.9096 21.7589 25.9116 21.347C25.9114 21.3335 25.7983 21.1717 25.7862 21.1762ZM21.4383 21.148C21.3667 21.1702 21.2991 21.1896 21.2361 21.2091C21.2768 21.2673 21.3442 21.3031 21.4539 21.3H21.4555C21.4637 21.299 21.4745 21.295 21.4868 21.2906C21.51 21.3082 21.5481 21.3049 21.5856 21.3297C21.5682 21.2537 21.5351 21.189 21.4962 21.1307C21.4799 21.1358 21.4635 21.1399 21.4477 21.1448C21.4356 21.1074 21.4226 21.0644 21.4132 21.0289C21.4205 21.0679 21.4312 21.1126 21.4383 21.148ZM5.97206 17.914C6.04123 18.833 6.74008 19.7244 7.17695 20.258C7.43493 20.5869 7.70299 20.7985 7.97134 20.9944C7.96603 21.0863 7.9621 21.1793 7.9588 21.2717C7.65452 21.0116 7.35023 20.7597 7.04377 20.3567C6.55849 19.7791 5.72497 18.6082 5.74016 17.5505C5.81321 17.6757 5.88991 17.7951 5.97206 17.914ZM21.4477 21.1448C21.471 21.2172 21.4865 21.2687 21.4508 21.2075C21.4482 21.2017 21.4444 21.1783 21.4383 21.148C21.4414 21.147 21.4445 21.1458 21.4477 21.1448ZM21.7532 21.0446C21.7988 21.0637 21.8396 21.0927 21.8503 21.1589C21.8784 21.1119 21.9068 21.0621 21.9365 21.0117C21.9243 21.0057 21.9126 20.9988 21.9005 20.9929C21.8505 21.0113 21.8016 21.0276 21.7532 21.0446ZM30.7547 20.5259C30.5508 20.4762 30.4057 20.6792 30.4194 21.0555C30.4814 21.062 30.5436 21.0684 30.6058 21.0743C30.5025 20.8451 30.8824 20.727 30.9881 20.2298C30.8875 20.2 30.7864 20.1703 30.6857 20.1405C30.7115 20.2643 30.7351 20.3933 30.7547 20.5259ZM25.3836 20.0606C25.3257 20.1599 25.2632 20.258 25.1955 20.3552C25.0899 20.5028 24.9951 20.6379 24.8963 20.7751C24.8682 20.738 24.8399 20.7007 24.8117 20.6638C24.9028 20.5368 24.9914 20.4109 25.0906 20.2721C25.1561 20.1774 25.2166 20.0818 25.2723 19.9854C25.3094 20.0104 25.3465 20.0356 25.3836 20.0606ZM15.149 20.0136C15.1992 20.0258 15.2509 20.038 15.3025 20.0496C15.3417 19.9742 15.38 19.8981 15.4185 19.8224C15.3294 19.8871 15.2399 19.9513 15.149 20.0136ZM14.2857 8.22786C14.8694 8.22431 15.4494 8.22702 15.992 8.25136C16.262 8.26369 16.5259 8.28275 16.744 8.3109C16.8397 8.32307 16.9288 8.33797 16.9853 8.35007C17.4195 8.65379 17.8911 9.00316 18.1354 9.22907C18.1787 9.27054 18.22 9.31378 18.2623 9.35598C18.1961 9.37125 18.1052 9.39178 17.9709 9.42962C17.8779 9.45708 17.7928 9.48165 17.6418 9.5346C17.6396 9.53319 17.6378 9.53117 17.6356 9.5299C17.4968 9.44903 17.4104 9.59548 17.283 9.51266C17.1792 9.44509 17.3771 9.42 17.1749 9.21026C17.1036 9.13528 16.8363 8.99365 16.65 8.89376C16.4758 8.89254 16.2335 8.89356 16.0828 8.9063C16.0683 8.90716 16.0259 9.03373 15.9904 9.03008C15.9165 9.02039 15.9477 8.8621 15.8917 8.84206C15.8469 8.81748 14.794 8.81096 14.6022 8.81229C14.4761 8.81087 14.3876 8.90526 14.317 8.90473C14.3047 8.90452 14.2943 8.89786 14.2857 8.8875C14.2743 8.85142 14.2676 8.77329 14.2512 8.76998C14.2428 8.77 14.1928 8.88798 14.1666 8.88906C14.1375 8.88649 14.05 8.79862 14.0115 8.81386C13.9989 8.8188 14.0508 8.9005 14.0115 8.9157C13.9728 8.92906 13.8802 8.83907 13.8438 8.85616C13.7592 8.89594 13.6884 9.05707 13.5446 9.13976C13.5011 9.16465 13.4584 9.1869 13.4192 9.20556C13.2445 9.27744 13.1753 9.18209 13.1607 9.18363C13.1074 9.20107 13.1646 9.33127 13.1513 9.34344C13.0948 9.39375 12.9449 9.52886 12.8865 9.57847C12.8144 9.63839 12.703 9.55686 12.6186 9.61921C12.5555 9.66687 12.5075 9.86786 12.3663 9.98898C12.0473 10.2623 11.6632 10.6219 11.3275 10.9118C11.2279 10.998 11.1319 10.9228 11.0987 10.9463C10.9276 11.0762 10.9277 11.2586 10.8809 11.2989C10.8454 11.3291 10.8053 11.3608 10.7619 11.3929C10.4581 11.6013 9.97941 11.8607 9.78886 12.0791C9.69638 12.1755 9.44451 12.6913 9.2436 12.9989C9.22043 13.0335 9.15948 12.9512 9.14803 12.9989C9.12053 13.1139 9.29208 13.2047 9.25771 13.2511C9.23982 13.273 9.11346 13.273 9.06185 13.3404C8.95293 13.4828 8.87293 13.6259 8.80802 13.7572C8.79586 13.8033 8.8078 13.8476 8.79392 13.8763C8.74639 13.9828 8.70461 14.1057 8.68425 14.4936C8.62183 15.4643 8.58939 16.2901 8.60747 17.1588C8.60953 17.3877 8.63447 17.561 8.65604 17.6461C8.68136 17.7347 8.67771 17.7483 8.78296 17.9046C8.85036 18.0044 9.08762 18.1107 9.2436 18.4953C9.2032 18.5416 9.16191 18.587 9.12139 18.6332C9.17689 18.6082 9.23341 18.5843 9.28904 18.5596C9.31297 18.5869 9.33653 18.6135 9.35955 18.6395C9.38545 18.6161 9.49832 18.6619 9.63061 18.8698C9.64297 18.8893 9.52366 19.1505 9.78259 18.9215C9.85953 19.3068 9.88841 19.0076 10.0881 19.1377C10.2635 19.2511 10.4023 19.422 10.5613 19.5733C10.5855 19.5969 10.6106 19.6217 10.6365 19.6438C10.6494 19.7163 10.5526 19.7436 10.4328 19.7472C10.255 19.7453 10.0317 19.697 10.0145 19.683C9.96733 19.6452 10.0213 19.4729 9.98315 19.4307C9.86714 19.3062 9.66302 19.3118 9.73246 19.1722C9.47559 19.1672 9.71761 19.2658 9.60868 19.3618C9.53921 19.2276 9.47701 19.0968 9.43162 18.9748C9.19012 19.1896 9.07 18.8481 9.11826 18.8181C9.03872 18.6674 8.96714 18.5865 8.87853 18.6865C8.88834 18.5771 8.89856 18.4694 8.91144 18.3653C8.35403 18.4182 8.49895 18.0674 8.54636 17.8702C8.49944 17.9088 8.45418 17.9497 8.41005 17.9924C8.38276 17.9997 8.23304 17.9224 8.48369 17.8498C8.12379 17.8699 8.65728 17.7044 8.233 17.6759C8.16281 17.5863 8.4015 17.6132 8.37245 17.4189C8.36354 17.3511 8.31786 17.2677 8.27843 17.1713C8.24629 17.0706 8.21608 16.9692 8.20949 16.8705C8.207 16.8198 8.34221 16.7934 8.34111 16.7483C8.33986 16.7037 8.20718 16.6836 8.20166 16.6292C8.19209 16.5149 8.28484 16.3647 8.2753 16.2939C8.267 16.2296 8.14774 16.1391 8.12959 15.9837C8.06791 15.4419 8.2364 15.6073 8.2941 15.523C8.35609 15.433 8.13699 15.3628 8.16719 15.1783C8.17042 15.16 8.30723 15.21 8.3035 15.1501C8.29945 15.1011 8.1504 15.0732 8.12802 14.9088C8.12429 14.8812 8.12357 14.7141 8.12332 14.478C8.11686 14.1642 8.13677 13.9518 8.14682 13.8982C8.16495 13.7644 8.34428 13.6002 8.40378 13.5285C8.41164 13.5159 8.41925 13.5039 8.42572 13.4924C8.47282 13.4091 8.41719 13.2613 8.46645 13.1759C8.63221 12.8899 8.89135 12.4752 9.10259 12.1857C9.29412 11.9118 9.84168 11.6725 9.78573 11.3866C10.0729 11.0374 10.3048 11.1156 10.3294 11.0936C10.3663 11.0644 10.3679 11.0157 10.3733 10.9636C10.3827 10.911 10.3951 10.855 10.4422 10.8084C11.2267 10.0378 12.2951 9.11786 13.1168 8.66657C13.9131 8.22223 13.8982 8.25498 14.2747 8.22786C14.2781 8.2278 14.2822 8.2279 14.2857 8.22786ZM26.0401 19.5044C25.9496 19.2309 26.0714 18.7982 26.3942 19.0719C26.1403 19.2553 26.2307 19.4602 25.9852 19.7331C25.9398 19.6551 25.8929 19.5776 25.8442 19.5028C25.9089 19.5044 25.9749 19.5048 26.0401 19.5044ZM10.8386 16.6214C10.6604 16.3469 10.5587 16.7031 10.87 16.7828C10.6526 16.8235 10.5051 16.6526 10.5065 16.6653C10.5093 16.6758 10.7336 16.9051 10.953 17.2278C10.9722 17.212 10.9915 17.1963 11.011 17.1807C10.9442 17.1865 10.9992 17.162 11.0831 17.176C11.0631 17.1912 11.0434 17.2078 11.0235 17.2231C11.0395 17.2973 11.0851 17.3933 11.1426 17.4972C11.0694 17.5838 10.995 17.6709 10.9217 17.7573C10.8937 17.695 10.8695 17.6347 10.8512 17.5787C10.8045 17.6063 10.7578 17.6339 10.7117 17.6618C10.6705 17.7976 10.6406 17.9427 10.6193 18.0926C10.7216 18.1184 10.8299 18.147 10.9421 18.1773C10.9401 18.0998 10.9393 18.0225 10.9405 17.9469C11.1779 18.0504 10.9669 18.2354 11.0846 18.4577C11.2112 18.4219 11.339 18.3852 11.4669 18.3496V18.3543C11.4839 18.4969 11.5073 18.6429 11.5343 18.7899C11.7121 18.855 11.7709 18.7984 11.7396 18.6301C11.8914 18.569 11.851 18.8024 11.9746 18.8197C11.9848 18.8211 12.0438 18.7036 12.0514 18.7068C12.5783 18.9545 12.3768 19.2227 12.4478 19.2866C12.5006 19.3311 12.8487 19.2779 12.8928 19.2129C12.9494 19.1225 12.7095 18.4917 13.4364 18.9215C13.2115 18.4536 12.6413 18.4312 12.6859 18.9607C12.5874 18.8511 12.0237 18.6025 11.9997 18.569C11.9651 18.5221 12.0706 18.4016 12.0185 18.359C11.9899 18.3358 11.6806 18.5659 11.6283 18.1381C11.628 18.1365 11.6286 18.1334 11.6283 18.1318C11.5564 18.1532 11.485 18.1761 11.4137 18.1976C11.4103 18.1334 11.4082 18.0686 11.4058 18.0049C11.5777 17.9147 11.75 17.8243 11.9229 17.7338C11.5365 17.6842 11.5634 17.2504 11.2539 17.3876C11.2032 17.3182 11.1832 17.2716 11.2037 17.2246C11.2141 17.2322 11.2252 17.2401 11.235 17.2497C11.234 17.2478 11.233 17.2453 11.2319 17.2434C11.2252 17.2313 11.2149 17.2228 11.2084 17.2136C11.2236 17.1877 11.2489 17.1589 11.2946 17.129C11.2692 17.1075 11.2454 17.0869 11.2256 17.0695C11.1846 17.1 11.144 17.1312 11.1034 17.1619C11.0939 17.1654 11.0872 17.1683 11.0846 17.1666L11.0831 17.1651C10.9064 16.8704 10.9246 16.75 10.8386 16.6214ZM28.0456 18.1428C28.0233 18.3718 28.0687 18.5638 27.9751 18.887C27.9377 18.9953 27.881 19.1053 27.7871 19.2145C27.7624 19.0577 27.7918 18.9483 27.8278 18.8479C27.897 18.6272 27.9439 18.4724 27.8121 18.2493C27.8901 18.2137 27.968 18.1782 28.0456 18.1428ZM24.8884 18.8792C24.9278 18.8699 24.9659 18.8364 24.9934 18.757C24.96 18.797 24.9247 18.8375 24.8884 18.8792ZM2.38401 17.7229C2.53023 18.3277 2.55107 18.8285 2.85406 18.5768V18.5752C2.77452 18.2214 2.72601 17.8957 2.69267 17.5975C2.58991 17.6373 2.48617 17.6798 2.38401 17.7229ZM30.5666 18.2634C30.5617 18.3303 30.5573 18.4018 30.551 18.4781C30.6462 18.511 30.7413 18.5473 30.8361 18.5831C30.8554 18.4456 30.8713 18.3299 30.8863 18.2196C30.78 18.2347 30.673 18.248 30.5666 18.2634ZM26.5869 18.3762C26.594 17.869 26.8427 18.4576 26.6903 18.5126C26.6035 18.5433 26.5861 18.4298 26.5869 18.3762ZM26.3738 18.1302C26.4992 17.9651 26.5244 18.1404 26.4991 18.2932C26.4727 18.4549 26.4006 18.5002 26.3425 18.4154C26.3382 18.4191 26.3651 18.1502 26.3738 18.1302ZM29.227 16.7452C29.1725 16.8362 29.1424 16.9358 29.1283 17.0397C29.0916 17.2993 29.1744 17.5765 29.1612 17.6931C29.1535 17.7522 29.0301 17.7569 29.0249 17.8043C28.9972 18.0783 29.2531 18.4036 28.8384 18.4044C28.9836 18.1125 28.7215 17.8645 28.746 17.82C28.7663 17.787 29.1854 17.5892 28.8275 17.3108C28.8957 17.2182 28.9641 17.125 29.0327 17.0319C29.098 16.936 29.1628 16.8422 29.227 16.7452ZM25.5481 18.2587C25.5547 18.2969 25.5483 18.2945 25.5371 18.2697C25.5391 18.2672 25.5432 18.2662 25.5449 18.2634C25.5459 18.2618 25.5472 18.2604 25.5481 18.2587ZM11.8649 17.8874C11.8636 17.9512 11.8629 18.0154 11.8633 18.0801C11.9545 18.071 12.0466 18.0612 12.1391 18.0519C12.133 17.9946 12.1282 17.9378 12.1234 17.8811C12.0366 17.8833 11.9496 17.885 11.8649 17.8874ZM26.6762 17.9767C26.5692 17.9105 26.4622 17.8426 26.355 17.7761C26.4389 17.6428 26.5232 17.5061 26.6073 17.3703C26.6174 17.4522 26.6269 17.5346 26.637 17.6163C26.71 17.4191 26.7842 17.2185 26.8579 17.0209C26.7965 17.3403 26.7371 17.6648 26.6762 17.9767ZM10.1743 17.0397C10.1831 17.2015 10.2655 17.4498 10.3655 17.7338C10.461 17.6615 10.5567 17.5884 10.6522 17.516C10.4597 17.2965 10.2913 17.1234 10.1931 17.0303C10.1867 17.0341 10.1806 17.0373 10.1743 17.0397ZM22.9158 17.6915H22.9205C22.9194 17.6859 22.9202 17.6805 22.9189 17.6759C22.9171 17.681 22.9169 17.6864 22.9158 17.6915ZM9.74812 17.198C9.73255 17.214 9.71393 17.2274 9.69955 17.245C9.7695 17.2382 9.79769 17.2104 9.8249 17.1745C9.80011 17.1838 9.77496 17.1927 9.74812 17.198ZM11.1034 17.1619C11.1259 17.1538 11.1619 17.1485 11.2084 17.2136C11.2063 17.2173 11.2053 17.2209 11.2037 17.2246C11.1633 17.1953 11.1206 17.1823 11.0831 17.176C11.0896 17.1711 11.0969 17.1669 11.1034 17.1619ZM2.71931 17.1886C2.83851 17.0647 2.45496 16.7348 2.44198 16.9598C2.4329 17.1323 2.65521 17.2559 2.71931 17.1886ZM11.4497 16.5697C11.4501 16.5822 11.476 16.641 11.5108 16.717C11.5056 16.7224 11.4975 16.7263 11.492 16.7342C11.4782 16.7768 11.4678 16.8226 11.4607 16.8705C11.4259 16.8905 11.3884 16.916 11.3432 16.9379C11.3958 16.9933 11.4445 17.0336 11.4889 17.0617C11.485 17.0446 11.4833 17.0282 11.4826 17.0131C11.5278 16.9969 11.5739 16.9815 11.6205 16.9661C11.6314 16.9919 11.6433 17.0158 11.6518 17.0382C11.6642 17.0455 11.673 17.0499 11.6753 17.0523C11.6881 17.0753 11.6851 17.0485 11.6127 16.8658C11.6153 16.8377 11.6182 16.8106 11.6205 16.7937C11.6614 16.7657 11.7036 16.7404 11.7349 16.7107C11.7163 16.6858 11.6959 16.6691 11.6785 16.6543C11.6778 16.6863 11.6571 16.7182 11.6127 16.7608C11.5977 16.7309 11.577 16.6922 11.5453 16.695C11.5429 16.6895 11.5414 16.6835 11.539 16.6778C11.5334 16.6651 11.5248 16.6532 11.5186 16.6402C11.5028 16.6484 11.5027 16.641 11.5139 16.6308C11.4976 16.5966 11.4794 16.5619 11.4607 16.5274C11.4565 16.5397 11.4496 16.5527 11.4497 16.5697ZM11.5453 16.695C11.5597 16.729 11.5712 16.7607 11.5829 16.789C11.5945 16.7797 11.6034 16.7697 11.6127 16.7608C11.6158 16.7671 11.6213 16.7715 11.6236 16.7765C11.6242 16.7782 11.6218 16.7844 11.6205 16.7937C11.6107 16.8005 11.6018 16.8086 11.5923 16.8157C11.5996 16.8336 11.6065 16.8502 11.6127 16.8658C11.609 16.9043 11.6086 16.9453 11.6205 16.9661C11.6031 16.925 11.5823 16.8812 11.5625 16.8376C11.5136 16.8803 11.4788 16.9341 11.4826 17.0131C11.4709 17.0173 11.4598 17.0229 11.4481 17.0272C11.4499 16.9732 11.4533 16.9204 11.4607 16.8705C11.4959 16.8503 11.5275 16.834 11.5531 16.8157C11.5376 16.7817 11.5247 16.7474 11.5108 16.717C11.5241 16.7029 11.534 16.696 11.5453 16.695ZM31.2231 16.5509C31.188 16.6534 31.1514 16.7594 31.115 16.8611C31.079 16.7206 31.0419 16.5785 31.0038 16.4365C31.0767 16.4744 31.1504 16.512 31.2231 16.5509ZM3.06558 15.5951C2.68608 15.5926 2.65208 15.3398 2.29783 15.6891C2.30387 15.7585 2.31019 15.8271 2.31663 15.8959C2.39972 15.9415 2.48407 15.9874 2.56733 16.0323C1.88822 16.9159 3.04967 17.1572 2.61277 15.6923C2.76326 15.6599 2.91499 15.6268 3.06558 15.5951ZM30.8502 16.3566C31.3471 16.5522 30.2198 16.9495 30.6559 16.4396C30.7 16.3879 30.8021 16.3387 30.8502 16.3566ZM29.8475 15.9806C29.813 16.0716 29.6682 16.7898 29.5936 16.6339C29.6514 16.3371 29.5397 16.1666 29.7362 15.9116C29.7732 15.9345 29.8106 15.9575 29.8475 15.9806ZM11.188 16.5195C10.9969 16.3034 10.9605 16.258 11.0329 16.3973C10.9968 16.4272 10.9597 16.4557 10.9232 16.4851C10.9836 16.5441 11.0885 16.6055 11.188 16.5195ZM29.2411 16.4851C29.1564 16.4345 29.0707 16.3816 28.9857 16.3315C28.9903 16.2549 28.9944 16.1749 28.9982 16.0981C29.086 16.0542 29.174 16.0084 29.2615 15.9633C29.2561 16.1386 29.25 16.3109 29.2411 16.4851ZM4.46163 16.3237C4.52152 16.3761 4.58166 16.4301 4.64181 16.4819C4.65042 16.2452 4.74405 15.9822 4.55094 15.8395C4.51984 16.0001 4.49035 16.1622 4.46163 16.3237ZM31.1981 16.0918C31.1434 15.9365 31.0863 15.7804 31.0289 15.6249C30.9224 15.65 30.8157 15.6738 30.7092 15.6985C30.6968 15.5925 30.6839 15.485 30.6701 15.3789C30.7225 15.3025 31.0929 15.5549 31.1871 15.0937C31.1974 15.4308 31.2011 15.7626 31.1981 16.0918ZM23.6224 14.7396C23.4097 15.2146 23.1424 15.6703 22.8469 15.9821C22.8341 15.9948 22.8207 16.009 22.8061 16.0244C22.8271 16.0143 22.8469 16.0041 22.8657 15.9962C22.9207 15.9525 22.9736 15.9001 23.0286 15.8442C23.0332 15.8285 23.0397 15.8131 23.0443 15.7972C23.0536 15.7986 23.0631 15.799 23.0725 15.8004C23.3248 15.5307 23.5718 15.1486 23.776 14.7396C23.7248 14.7396 23.6736 14.7396 23.6224 14.7396ZM29.6438 13.3733C29.8803 13.8938 29.6171 14.0602 30.0527 14.1521C29.9643 14.1808 29.8749 14.2082 29.7864 14.2351C29.6528 14.6816 29.9643 14.7889 30.0825 15.0326C30.0147 15.0324 29.9466 15.0328 29.8788 15.0326C29.8737 15.192 29.8669 15.3538 29.8584 15.5105C29.9033 15.4885 29.9484 15.4667 29.9932 15.4447C29.9927 15.5003 29.9909 15.5591 29.99 15.6139C29.7875 15.7485 29.7356 15.9141 29.5388 15.7048C29.647 15.4508 29.5415 15.1372 29.5482 14.7146L29.6046 14.6675C29.6333 14.6462 29.663 14.6182 29.6641 14.5829C29.6763 14.5279 29.4617 13.3357 29.6438 13.3733ZM29.2724 15.6061C29.1977 15.5915 29.1231 15.5765 29.0484 15.5622C29.0787 15.4765 29.1083 15.3933 29.1377 15.3068C29.0929 15.2417 29.0483 15.1741 29.0029 15.1094C29.1075 15.0871 29.2119 15.0641 29.3163 15.0405C29.3042 15.23 29.2894 15.4188 29.2724 15.6061ZM32.2917 11.1986C32.3425 11.1716 32.3871 11.1874 32.4249 11.2268C32.7472 12.0142 32.7382 12.155 32.7962 12.3847C32.8363 12.5816 32.8511 12.713 32.8652 12.8155C32.8878 12.763 32.912 12.7144 32.9326 12.6542C33.0185 13.3925 32.9769 14.0633 33.3008 14.0941C33.354 14.3827 33.0705 14.2665 33.0422 14.3589C33.0314 14.3938 33.2063 14.7572 33.0109 15.0389C33.0123 15.1039 33.0132 15.1704 33.014 15.2363C33.119 15.2487 33.2241 15.2611 33.329 15.2739C33.2015 15.3663 33.0735 15.4576 32.9451 15.5465C32.939 15.0872 32.9221 14.622 32.8856 14.1176C32.8669 13.8644 32.8436 13.6027 32.8072 13.2997C32.7883 13.1444 32.7685 12.9814 32.7336 12.7685C32.7159 12.6623 32.6936 12.5392 32.6584 12.3721C32.639 12.281 32.6178 12.1851 32.58 12.04C32.5369 11.8881 32.5048 11.7229 32.3231 11.2691C32.3129 11.2461 32.3033 11.2228 32.2933 11.2001L32.2917 11.1986ZM10.5942 14.5516C10.5249 14.6892 10.4561 14.7946 10.3874 14.8994C10.507 14.9043 10.6266 14.9087 10.7462 14.9135C10.6861 14.93 10.626 14.9477 10.566 14.9637C10.6083 15.0408 10.6502 15.116 10.6929 15.1893C10.5869 15.2232 10.4807 15.2559 10.3749 15.2896C10.4937 15.329 10.6131 15.3686 10.7321 15.4071C10.9525 15.0721 10.7429 15.0712 10.7462 14.9981C10.7485 14.9603 10.8243 14.9369 10.8621 14.9245C10.8683 14.9217 10.8748 14.9195 10.8809 14.9167C10.8853 14.8565 10.8156 14.6948 10.7478 14.5563C10.7101 14.5038 10.6729 14.4809 10.6491 14.4827C10.6307 14.5017 10.6127 14.5247 10.5942 14.5516ZM3.56697 10.4904C3.47024 10.5144 3.4347 10.62 3.42125 10.7113C3.36121 10.8739 3.33151 11.0127 3.31941 11.0325C3.22833 11.1803 2.97511 11.3198 2.87756 11.6028C2.8201 11.7673 2.89598 12.164 2.82115 12.4708C2.67946 12.9753 2.27843 13.8576 2.35267 14.304C2.37402 14.3905 2.43084 14.5122 2.54852 14.6221C2.48744 14.6522 2.42628 14.6834 2.36521 14.7146C2.39063 15.064 2.58399 14.9521 2.34954 15.2786C3.15181 15.4937 2.57723 14.3538 2.86659 14.3197C2.8996 14.3073 2.94427 14.3066 3.00291 14.3228C3.03154 14.3286 3.06417 14.3367 3.10005 14.3495C3.09858 14.3412 3.09687 14.3334 3.09535 14.326C3.08805 14.2717 3.08101 14.2071 3.07498 14.1364C2.87657 14.1146 2.67787 14.0909 2.47958 14.0674C2.97351 13.8399 2.52756 13.4004 2.99977 12.7764C2.95332 12.7031 2.90732 12.6278 2.86346 12.5508C2.96411 12.4198 3.28827 11.4673 3.62964 10.8288C3.71513 10.6236 3.73671 10.4483 3.56697 10.4904ZM6.83225 13.7274C6.66196 13.7109 6.60422 14.0635 6.65049 14.4325C6.69269 14.8536 6.80934 15.2687 6.86045 15.1956C6.84201 14.9275 6.88028 14.6865 6.89649 14.4404C6.91219 14.1931 6.90955 13.981 6.83225 13.7274ZM24.8822 14.3401C24.8765 14.6072 24.8482 14.9001 24.7929 15.2018C24.8901 15.0295 24.979 14.853 25.0577 14.6832C25.0035 14.5624 24.9449 14.4493 24.8837 14.3385L24.8822 14.3401ZM7.68617 14.7443C7.67331 14.8845 7.66022 15.0219 7.64857 15.158C7.61515 15.0211 7.58361 14.8827 7.55142 14.7412C7.59633 14.7426 7.64127 14.7429 7.68617 14.7443ZM30.9254 14.4404C30.9905 14.3883 31.0552 14.3332 31.1197 14.2805C31.1511 14.4575 31.1809 14.6293 31.2075 14.8007C31.1387 14.7301 31.0687 14.656 30.9991 14.5861C30.981 14.7333 30.9607 14.8799 30.9395 15.0232C30.664 15.2044 30.6227 14.2621 30.645 14.1599C30.6521 14.1389 30.8588 14.0266 30.9019 13.986C30.9123 14.1407 30.9194 14.2914 30.9254 14.4404ZM1.12741 14.2664C1.18595 14.3831 1.11153 14.7295 1.13994 14.9762C1.40336 14.7585 1.23505 14.5007 1.24649 14.2711C1.24787 14.2391 1.25128 14.199 1.25745 14.1536C1.19767 14.1522 1.13705 14.1503 1.07727 14.1489C1.09989 14.1844 1.11619 14.2273 1.12741 14.2664ZM11.6675 14.9699C11.806 14.5666 11.7659 14.2797 11.7208 14.5861C11.715 14.6417 11.7095 14.6913 11.7035 14.7334C11.6912 14.8162 11.6792 14.8952 11.6675 14.9699ZM22.886 14.6284C23.0183 14.8308 23.0371 14.8408 23.1336 14.8368C23.0879 14.7379 23.0541 14.6713 23.0302 14.6205C22.9821 14.6232 22.9341 14.6257 22.886 14.6284ZM22.6024 14.3902C22.6079 14.4243 22.6152 14.4643 22.6369 14.5579C22.6406 14.5711 22.6444 14.5843 22.6479 14.5986C22.648 14.5822 22.6486 14.5667 22.651 14.5516C22.6455 14.4922 22.6347 14.4245 22.6212 14.3683C22.612 14.3306 22.6009 14.2961 22.5962 14.3056C22.5945 14.313 22.593 14.3277 22.6024 14.3902ZM22.9753 14.5673C22.9867 14.572 22.9983 14.5786 23.0114 14.5845C23.0079 14.5774 23.0052 14.5705 23.002 14.5641C22.9931 14.565 22.9842 14.5663 22.9753 14.5673ZM29.0531 14.0377C29.4388 14.1436 29.2818 14.4384 28.992 14.5814C28.9482 14.4202 29.1045 14.4028 29.1111 14.3651C29.1289 14.247 29.059 14.1532 29.0531 14.0377ZM14.2857 6.97753C13.6455 6.97117 13.1688 7.2113 12.5073 7.58232C12.4618 7.60647 12.4156 7.63299 12.3694 7.6591C12.2347 7.72224 11.4307 7.99013 11.5202 8.39394C11.5891 8.69281 11.9097 8.17706 11.9903 8.12758C12.0486 8.0899 12.1263 8.19546 12.1642 8.16989C12.2034 8.14284 12.1204 8.09169 12.1657 8.05864C12.3116 7.95406 12.4808 7.86809 12.6264 7.79385C12.6865 7.76259 12.7431 7.73265 12.794 7.7014C13.3661 7.34041 13.7341 7.175 14.2857 7.17025C14.8823 7.16338 15.4762 7.16846 16.0531 7.20002C16.341 7.21621 16.6258 7.2397 16.8913 7.27836C17.1368 7.30742 17.4523 7.40214 17.4522 7.41624C17.784 7.65353 18.1123 7.89843 18.4221 8.14952C18.6236 8.31459 18.5129 8.36161 18.5224 8.37044L18.7652 8.58353C19.1633 8.95576 19.5609 9.36003 19.9874 9.82446C20.5159 10.3586 20.9249 10.7878 20.8867 11.0983C20.8813 11.2671 20.8719 11.4327 20.857 11.595C20.7587 12.5536 20.6321 13.3357 20.1159 13.823C20.002 13.9515 19.8973 14.0799 19.8041 14.1944C19.8065 14.2357 19.8102 14.2764 19.8135 14.3166C19.9546 14.2093 20.1053 14.0767 20.2647 13.9421C21.054 13.4563 21.163 12.2399 21.186 11.103C21.194 10.8698 21.0906 10.6447 20.9322 10.4167C20.8927 10.3946 20.86 10.3598 20.8507 10.3086C20.6781 10.0831 20.4622 9.85125 20.2459 9.60981C20.0461 9.37663 19.8561 9.1517 19.663 8.9345C19.5026 8.75441 19.5899 8.64277 19.5189 8.58823C19.4723 8.55287 19.3956 8.63801 19.3434 8.58353C19.2475 8.48374 19.1497 8.38699 19.0504 8.2921C18.6292 7.90636 18.1049 7.54187 17.6027 7.20158C16.8339 6.90491 15.4167 6.98151 14.2857 6.97753ZM22.3298 13.0192C22.2442 13.1478 22.0887 13.9152 21.8864 14.138C21.9797 14.2073 22.1857 13.9415 22.3063 13.6303C22.4307 13.3202 22.4745 13.0032 22.463 12.9472C22.4271 12.9662 22.351 12.9907 22.3298 13.0192ZM30.6779 13.7729C30.2727 13.3816 31.093 13.4036 30.8894 13.8277C30.8738 13.8462 30.7071 13.8004 30.6779 13.7729ZM11.3197 13.4799C11.3331 13.5226 11.3463 13.5659 11.3604 13.6084C11.4109 13.6005 11.4612 13.5934 11.5108 13.588C11.481 13.5307 11.453 13.4724 11.4246 13.4141C11.3898 13.4349 11.3546 13.4574 11.3197 13.4799ZM19.5816 13.1007C19.5702 13.1649 19.5466 13.2431 19.5001 13.3373C19.459 13.4016 19.4199 13.4645 19.3841 13.5253C19.4323 13.4736 19.4832 13.4198 19.5361 13.3655C19.6185 13.2975 19.683 13.2418 19.7383 13.19C19.6861 13.1603 19.6337 13.1304 19.5816 13.1007ZM11.5014 13.2496C11.5478 13.3108 11.5948 13.3714 11.6424 13.4313C11.6473 13.3561 11.6542 13.2801 11.6644 13.2026C11.6096 13.2175 11.5555 13.2332 11.5014 13.2496ZM20.2381 12.8516C20.0874 12.9349 20.0867 13.1551 19.978 13.2198C20.1522 13.2213 20.2046 13.0098 20.2381 12.8516ZM7.35557 11.4461C7.39147 11.4042 8.30309 10.0218 7.56083 10.3995C7.44395 10.5662 7.33244 10.7354 7.22709 10.9071C7.7976 11.1041 7.06701 11.2513 7.0328 11.2879C6.86991 11.4373 6.84957 11.7389 6.76801 11.8645C6.69719 11.9723 6.56971 11.9871 6.52671 12.0666C6.47765 12.1585 6.41797 12.2682 6.36846 12.3784C6.24643 12.6357 6.20808 12.9082 6.3434 13.0051C6.40818 12.8328 6.48742 12.6632 6.57999 12.4975C6.61501 12.4347 6.64888 12.3707 6.6834 12.3063C6.80956 12.0742 7.11278 11.993 7.11428 11.4038C7.2096 11.317 7.33917 11.4534 7.35557 11.4461ZM25.1438 12.9566C25.2812 12.9401 25.4187 12.9233 25.5559 12.9064C25.5147 12.454 25.2897 12.6437 25.2519 12.1418V12.1402C25.2238 12.3918 25.1915 12.6578 25.1438 12.9566ZM22.4254 11.7767C22.4138 11.7566 22.4002 11.7368 22.3878 11.7156C22.3802 12.229 22.3897 12.8686 22.5272 12.8108C22.6554 12.7406 22.606 12.1426 22.6118 11.982C22.6121 11.9779 22.613 11.9738 22.6134 11.9695C22.5962 11.9522 22.585 11.924 22.5836 11.8786C22.5816 11.858 22.6111 11.8352 22.6416 11.8128C22.6497 11.7762 22.6541 11.7366 22.662 11.6968C22.6373 11.6777 22.599 11.6545 22.5382 11.631C22.5007 11.6796 22.4629 11.7282 22.4254 11.7767ZM17.598 10.1645C17.8561 10.4285 18.1065 10.7174 18.4315 11.1124C18.5869 11.294 18.7008 11.4291 18.7841 11.5245C18.7716 11.8269 18.7557 12.1032 18.7261 12.3095C18.7198 12.3524 18.5915 12.3331 18.5851 12.3612C18.5707 12.4473 18.5726 12.5543 18.5929 12.568C18.613 12.5825 18.6584 12.553 18.6415 12.5758C18.6352 12.5828 18.6101 12.5901 18.5741 12.6056C18.526 12.6543 18.4798 12.6991 18.4378 12.7419C17.8562 12.5669 17.2357 12.5297 16.5278 12.3142C16.9436 11.9191 17.29 11.455 17.9677 11.396C18.1817 11.1926 16.6708 11.007 16.5764 10.9103C16.8685 10.779 17.1351 10.6532 17.3911 10.5264C17.1712 10.5685 16.9438 10.61 16.6986 10.6549C16.6956 10.6175 16.6922 10.5795 16.6892 10.5421C17.0145 10.4302 17.3121 10.2821 17.598 10.1645ZM20.3321 11.0889V11.0905C20.3213 11.5968 20.3033 12.0962 20.2475 12.5225C20.3701 12.5766 20.396 12.3367 20.4104 12.2515C20.4727 11.926 20.4461 11.4817 20.4559 11.092C20.4564 11.0874 20.4562 11.0819 20.4574 11.0764C20.416 11.0842 20.374 11.0882 20.3321 11.0889ZM29.2333 11.9538C29.2903 11.8791 29.3465 11.8028 29.4025 11.7266C29.4515 11.7811 29.5004 11.8342 29.5482 11.888C29.4644 12.052 29.3785 12.2138 29.2897 12.3706C29.1586 12.1154 29.0178 11.8492 28.8635 11.5793C28.9213 11.5783 28.9796 11.5783 29.0374 11.5777C29.1052 11.7043 29.171 11.8303 29.2333 11.9538ZM15.9779 11.4273C15.8326 11.9166 15.8974 12.0866 15.9387 11.9209C15.9732 11.8071 15.9967 11.5784 16.0155 11.3067C16.0029 11.3463 15.9899 11.3868 15.9779 11.4273ZM18.8013 11.067C18.7988 11.5366 18.9911 11.7765 18.9533 11.7235C18.9382 11.6976 18.8838 11.6388 18.7841 11.5245C18.7901 11.3765 18.7982 11.2224 18.8013 11.067ZM8.24553 10.9683C8.1002 11.1781 7.96317 11.394 7.83502 11.6154H7.83659C8.24163 11.7262 7.91991 11.4698 8.33484 11.1845C8.30423 11.1129 8.27473 11.0408 8.24553 10.9683ZM19.2964 11.4399C19.275 11.4589 19.2392 11.4779 19.1805 11.4947C19.2485 11.5127 19.3376 11.5557 19.2964 11.4399ZM22.3909 11.5135C22.4143 11.5012 22.4381 11.4899 22.4614 11.4775C22.4391 11.4625 22.4166 11.444 22.3925 11.4258C22.3918 11.4538 22.3916 11.4832 22.3909 11.5135ZM9.27494 10.5765C9.12903 10.2979 8.97181 10.6295 8.81116 10.6424C8.5479 10.6636 8.61746 10.3479 8.39281 10.7834C8.35894 10.7301 8.32587 10.6757 8.29254 10.622C8.09508 10.8297 8.48084 11.019 8.49152 11.0905C8.49259 11.1132 8.36306 11.224 8.36618 11.2644C8.4087 11.7636 8.76252 10.9728 8.80019 10.9479C8.82895 10.9135 9.31933 10.66 9.27494 10.5765ZM22.6651 11.3051C22.6388 11.2327 22.5932 11.1729 22.5053 11.139C22.5621 11.2006 22.6163 11.2543 22.6651 11.3051ZM19.8479 11.0826C19.8765 11.2207 19.8858 11.2454 19.8432 11.1892C19.8438 11.1536 19.8476 11.1181 19.8479 11.0826ZM27.5552 9.36851C27.9927 9.43802 28.0962 9.97448 28.2665 10.2679C28.5963 10.8433 28.5299 10.356 28.6582 10.4105C28.6895 10.425 28.6821 10.5496 28.6927 10.6784C28.6965 10.8001 28.7235 10.9294 28.8478 10.9479C28.7071 10.982 28.5851 10.913 28.4781 10.7959C28.1774 10.4401 27.8799 9.66921 27.5552 9.36851ZM29.3022 9.76962C29.3744 9.78824 29.5272 9.96322 29.6469 10.1598C29.7824 10.3751 29.8854 10.6634 29.7158 10.6596C29.6422 10.5257 29.5461 10.4379 29.4855 10.3086C29.482 10.2982 29.5101 10.2668 29.5263 10.2256C29.5478 10.1521 29.5343 10.0446 29.3038 9.95138C29.3038 9.89141 29.3031 9.82988 29.3022 9.76962ZM20.5561 8.88906C20.5431 8.92723 20.6156 9.05082 20.7285 9.2087C20.8853 9.43067 21.1782 9.73106 21.3975 10.0297C21.5278 10.1991 21.6233 10.3759 21.6858 10.4982C21.7323 10.5358 21.7799 10.5688 21.8174 10.6032C21.8291 10.6138 21.8384 10.6259 21.8488 10.6361C21.8598 10.6315 21.8704 10.6258 21.8801 10.6251C21.5551 10.1443 21.2649 9.53275 21.0058 9.2087C20.9358 9.12217 20.885 9.2082 20.8789 9.20556L20.8476 9.11155C20.8152 8.99009 20.7545 8.80879 20.5561 8.88906ZM19.5189 9.8276C19.5012 9.80673 19.3408 9.78157 19.3779 9.86833C19.4637 9.94496 19.5508 10.0255 19.6427 10.1096C19.8196 10.2778 19.97 10.3976 20.1018 10.5092C19.9914 10.3793 19.8601 10.2386 19.7069 10.0548C19.6421 9.97642 19.5796 9.90098 19.5189 9.8276ZM8.98664 8.96584C8.90482 9.08045 8.84405 9.17752 8.84406 9.27137C8.84314 9.31925 8.85831 9.36692 8.8942 9.41395C8.80753 9.4118 8.72012 9.41065 8.63254 9.41082C8.58725 9.51614 8.54393 9.62293 8.50249 9.72889C8.38605 9.59624 8.38424 9.60873 8.35834 9.80879C8.27465 9.83124 8.19151 9.85422 8.10765 9.8793C8.14103 9.95317 8.17515 10.027 8.20949 10.1002C8.08962 10.0773 7.96921 10.0549 7.84756 10.036C7.76789 10.3031 8.02406 10.316 8.12018 10.4763C8.1621 10.1206 8.81685 9.80272 9.05402 9.50483C9.10115 9.44374 9.13105 9.38122 9.13549 9.31524C9.13717 9.28945 8.93402 9.31582 8.98664 8.96584ZM4.00098 10.0156C3.96809 10.0163 3.5303 10.4431 3.80983 10.4731C3.94682 10.4947 4.06621 10.0338 4.00098 10.0156ZM24.1677 7.57919C24.1323 7.60687 24.0965 7.63455 24.0611 7.66223C23.6407 7.13246 23.9269 7.86239 24.4403 8.36104C24.4167 8.4368 24.3918 8.51368 24.3667 8.5898C24.4827 8.67189 24.6019 8.76715 24.7208 8.87653C24.7722 9.08585 24.8175 9.31204 24.8508 9.5534C25.0803 9.76738 25.3044 10.0342 25.5011 10.3509C25.359 8.79724 24.7758 7.94823 24.5187 8.31717C24.4108 8.14117 24.3061 7.98715 24.2069 7.85182C24.4412 7.86684 24.4725 7.79137 24.3087 7.39274C24.0575 7.48235 23.8955 7.09003 23.6992 6.95559C23.7996 7.09257 23.9672 7.29961 24.1677 7.57919ZM21.2032 10.1974C21.2067 10.1989 21.2129 10.1928 21.222 10.188L21.15 10.1331C21.1787 10.1669 21.1993 10.1948 21.2032 10.1974ZM10.7509 10.0501C10.6264 10.1897 10.4951 10.2585 10.414 10.1096C10.4929 10.049 10.5716 9.9878 10.6506 9.92787C10.6842 9.96824 10.7173 10.0097 10.7509 10.0501ZM17.6418 9.5346C17.6837 9.56094 17.7297 9.61009 17.7374 9.63488C17.776 9.68495 17.8122 9.74222 17.8487 9.79783C17.8389 9.80646 17.8288 9.81558 17.8189 9.82446C17.8332 9.82381 17.8485 9.82226 17.8643 9.82133C17.9144 9.89866 17.9657 9.96998 18.0038 10.025C17.87 10.0598 17.7351 10.108 17.598 10.1645C17.5349 10.0999 17.4723 10.0359 17.4068 9.97331C17.3539 9.9241 17.2486 9.84367 17.1185 9.74299C17.2467 9.68482 17.333 9.64939 17.4334 9.60981C17.5151 9.57886 17.5837 9.55497 17.6418 9.5346ZM4.5243 9.43119C4.47117 9.23419 4.34099 9.07036 4.06052 9.31994H4.05895C4.33104 9.5306 3.91928 9.66431 3.86466 9.80096C3.87686 9.85295 3.88933 9.90493 3.90227 9.95608C4.09953 9.78725 4.30758 9.60933 4.5243 9.43119ZM11.5343 8.51929C11.4391 8.24914 10.9595 8.78358 10.8136 8.87339C10.7409 8.91507 10.2142 8.99854 10.0552 9.34344C10.0683 9.35597 10.0813 9.36852 10.0944 9.38105C10.5101 9.72793 11.0862 8.72911 11.5343 8.51929ZM18.571 9.29644C18.5962 9.29968 18.5346 9.32551 18.4613 9.36538C18.4251 9.38442 18.3859 9.40961 18.3422 9.43589C18.3158 9.40892 18.289 9.38258 18.2623 9.35598C18.31 9.34497 18.3448 9.336 18.3751 9.32934C18.5223 9.29916 18.5518 9.29633 18.571 9.29644ZM16.2552 9.10999C16.7039 9.40106 16.7309 9.34626 16.7456 9.36538C16.747 9.36719 16.68 9.35595 16.5983 9.34658C16.5934 9.34599 16.5877 9.3456 16.5827 9.34501C16.4707 9.26477 16.3608 9.18163 16.2552 9.10999ZM30.2094 9.13192C30.1116 9.1733 30.0139 9.21528 29.9164 9.25727C29.7617 9.04376 30.0025 8.94219 30.0747 8.911C30.1203 8.98436 30.165 9.05787 30.2094 9.13192ZM9.26084 8.90316C9.2952 8.97269 9.32978 9.0421 9.36425 9.11155C9.41504 9.01662 9.46611 8.92135 9.5178 8.82639C9.43205 8.85162 9.34658 8.87745 9.26084 8.90316ZM16.4761 8.79819C16.529 8.83189 16.5765 8.85555 16.6171 8.87496C16.558 8.84299 16.5082 8.81913 16.4824 8.80132C16.4805 8.79999 16.478 8.79957 16.4761 8.79819ZM28.7193 7.7014C28.9053 7.64859 29.3143 8.05033 29.4824 8.2686C29.4874 8.27803 29.3688 8.27371 29.4855 8.42528C29.5237 8.46802 30.1318 8.75805 29.7268 8.86869C29.4079 8.45646 29.0647 8.06017 28.7193 7.7014ZM5.36882 7.84555C5.04694 8.13113 5.18255 8.1316 4.77656 8.3062C4.63078 8.91855 4.89629 8.50902 5.07896 8.6509C5.10287 8.50815 5.13015 8.3645 5.16044 8.22003C5.52827 8.11452 5.42181 8.41493 5.43933 8.42685L5.50201 8.46445C5.52336 8.46638 5.55148 8.45566 5.60542 8.42371C5.5229 8.2338 5.4446 8.04006 5.36882 7.84555ZM17.0355 8.36261L16.9853 8.35007C16.9418 8.31962 16.8994 8.28854 16.8568 8.2592C17.0247 8.36706 17.0511 8.37002 17.0355 8.36261ZM11.2209 7.51338C11.2202 7.47696 11.22 7.44011 11.2194 7.40371C10.917 7.52741 10.9288 7.75501 10.7822 7.83615L10.7196 7.81265C10.6893 7.80032 10.6544 7.79165 10.6271 7.81108C10.5015 7.89898 10.138 8.14655 10.1696 8.26546C10.236 8.51418 10.8341 7.87581 10.975 7.78601C11.0364 7.74461 11.1647 7.76657 11.2021 7.74214C11.2423 7.71459 11.2185 7.57063 11.3181 7.50242C11.3476 7.4811 11.7535 7.38053 11.8822 7.27366C11.8368 7.24017 11.7916 7.2064 11.7458 7.17338C11.5664 7.28202 11.3923 7.39599 11.2209 7.51338ZM6.34966 6.80988C6.08603 7.07264 5.82577 7.35119 5.57565 7.645C5.6161 7.68706 5.65737 7.72988 5.69786 7.77191C5.79931 7.34876 6.07258 7.39607 6.14441 7.3473C6.34846 7.20093 6.53966 7.06204 6.7445 6.95089C6.76602 6.94087 6.78824 6.93205 6.81031 6.92269C6.76601 6.9077 6.72145 6.89219 6.67713 6.87725C6.56826 6.85402 6.45915 6.83134 6.34966 6.80988ZM28.7757 7.34103C28.746 7.43485 28.7137 7.52765 28.6833 7.62149C28.5933 7.54336 28.5052 7.46994 28.4169 7.39744C28.4304 7.33843 28.4429 7.27785 28.4561 7.21882C28.5615 7.2573 28.6679 7.29717 28.7757 7.34103ZM23.6882 6.66416C23.695 6.58658 23.1531 6.53752 23.1728 6.67826C23.294 6.7511 23.4113 6.81967 23.5143 6.87098C23.5722 6.80211 23.6309 6.73372 23.6882 6.66416ZM7.3587 6.39623C7.05122 6.12005 6.96671 6.13015 6.83225 6.63909C6.87879 6.66508 6.92514 6.69143 6.9717 6.71743C7.12066 6.5432 7.15891 6.38278 7.27096 6.57015C7.29984 6.51274 7.32925 6.45388 7.3587 6.39623ZM14.9578 6.27402C15.0804 6.26025 15.2017 6.24583 15.3245 6.23328C15.2631 6.11344 15.1296 6.22523 15.0816 6.20508C15.0712 6.19946 15.1603 6.10347 15.0534 6.0719C15.0216 6.13913 14.9897 6.20671 14.9578 6.27402ZM26.0166 4.42672C26.3728 4.30512 26.2511 4.49927 26.4662 4.63824C26.4797 4.64664 26.5227 4.58665 26.5273 4.58967C26.5797 4.62701 26.5718 4.73583 26.6214 4.77613C26.7187 4.85543 26.8568 4.85296 27.0601 5.04092C27.2201 5.19119 27.1267 5.30053 27.187 5.35272C27.2328 5.38365 28.0359 5.64917 28.1569 6.06406C28.2602 6.44915 27.8587 6.06325 27.2168 5.50157C26.5496 4.93208 26.1309 4.63624 26.0855 4.57087C26.0623 4.52277 26.0388 4.47414 26.0166 4.42672ZM10.3686 3.77805C10.2189 3.89286 10.0854 4.00492 9.96121 4.11492C9.92859 4.0646 9.89515 4.01481 9.8625 3.96451C9.71856 4.30008 8.88505 4.79254 8.78609 4.60691C8.79974 4.7091 8.81419 4.8114 8.82996 4.91244C8.32973 4.99028 8.21405 5.4193 7.72378 5.52194C7.74554 5.60093 7.76715 5.67998 7.78958 5.75853C7.73394 5.72717 7.67771 5.69571 7.62193 5.66452C7.49592 5.76229 7.37151 5.86048 7.24903 5.95752C7.02927 6.47144 7.97292 6.06129 8.04654 5.95595C8.05431 5.9405 7.95339 5.82365 8.01521 5.73973C8.12123 5.58968 9.02892 5.052 9.27337 4.75576C9.33672 4.83708 9.40128 4.91879 9.46453 5.00018C9.52553 4.82558 9.59143 4.64811 9.66978 4.46746C9.77988 4.59446 10.0899 4.08238 10.2025 4.4941C10.268 4.30365 10.3457 4.10949 10.4438 3.90967C10.4454 3.89104 10.4465 3.8721 10.4485 3.85326C10.4292 3.82067 10.4098 3.78715 10.3905 3.75455C10.3831 3.76222 10.3756 3.7706 10.3686 3.77805ZM22.1151 5.15687C21.6423 4.81767 21.4407 4.633 21.3239 4.89834C21.8295 5.10028 21.8011 5.13602 21.9444 5.33235C21.9843 5.40187 22.0585 5.5058 22.2342 5.68802C22.2946 5.55571 22.3538 5.42141 22.4113 5.28691C22.307 5.2624 22.2082 5.21311 22.1151 5.15687ZM24.0831 3.01657C23.8759 3.12554 24.0197 3.1861 24.4278 3.38008L24.6142 3.47879C24.6489 3.49713 24.687 3.5173 24.7255 3.53833C24.6923 3.59162 24.6263 3.59608 24.5563 3.58063L24.3761 3.48349C24.0131 3.35691 23.7622 3.2231 23.613 3.20459C23.708 3.1163 23.807 3.02885 23.9107 2.9445C23.9635 2.9659 24.0201 2.9901 24.0831 3.01657Z" fill="black"/>
</svg>
