<svg width="27" height="28" viewBox="0 0 27 28" fill="none" xmlns="http://www.w3.org/2000/svg">
<path d="M13.443 0.50474C13.4868 0.387465 14.1556 0.447789 14.2169 0.473129C14.4055 0.567174 14.1628 0.797239 14.5975 0.776597C14.6536 0.678664 14.7178 0.581818 14.7833 0.485774C14.7854 0.479223 14.7876 0.472093 14.7897 0.465542C15.0358 0.456951 14.909 0.553435 15.0059 0.638772C15.0551 0.630437 15.0466 0.544254 15.1159 0.545203C15.3248 0.560666 15.5692 0.53072 16.5017 0.738663C17.4045 0.809508 19.5494 2.25195 19.9575 3.10445C19.9826 3.14079 20.0037 3.17323 20.0207 3.20181C20.07 3.30031 20.0085 3.32297 20.0321 3.35987C20.1054 3.47218 20.3273 3.64352 20.4531 3.87197C20.5052 3.82479 20.5757 3.77843 20.6693 3.73541C20.8371 3.7445 21.0791 3.76165 21.4128 3.83783C20.9729 3.83455 21.1026 3.87865 21.5823 4.02244L22.083 4.20958C22.9665 4.65331 23.3611 5.17872 23.5472 5.39437C23.502 5.41779 23.4242 5.35812 23.2589 5.20217C23.0782 5.05582 22.8691 4.74398 22.0286 4.32844L21.5469 4.14762C20.9972 4.00973 20.6884 3.99462 20.5201 4.00094C20.8742 4.67453 21.1873 5.45994 21.3888 6.40213C21.5364 7.44378 21.9224 8.504 21.0082 10.8226C21.0019 10.8333 20.9957 10.8446 20.9893 10.8555C20.9645 10.8978 20.875 10.8676 20.8552 10.8985C20.83 10.941 20.8458 11.0956 20.8059 11.1653C20.7695 11.229 20.6834 11.2458 20.6365 11.3272C20.4724 11.6106 20.205 12.3071 19.6843 12.823C19.6506 12.8468 19.6134 12.867 19.5743 12.8862C19.715 12.8611 19.847 12.6755 19.9157 12.8723C19.9789 13.0556 19.824 13.11 19.8285 13.1973C19.8328 13.2764 19.9406 13.3147 19.9486 13.4009C19.9969 13.9604 19.9792 14.45 19.9018 14.8613C19.8997 14.8743 19.8964 14.8876 19.8942 14.9005C19.8754 15.0094 19.9185 15.113 19.9044 15.185C19.8879 15.2649 19.765 15.1505 19.7868 15.2571C19.8097 15.3675 19.9154 15.4021 19.9145 15.4303C19.9135 15.4474 19.8105 15.4913 19.8045 15.5403C19.7806 15.7466 19.8304 16.0085 19.826 16.0221C19.8246 16.0317 19.7628 16.1783 19.7425 16.1447C19.7996 15.9331 19.7114 16.0962 19.7109 16.0726C19.6985 16.077 19.3914 15.8848 19.6957 16.1308C19.6906 16.1542 19.6852 16.1786 19.678 16.2041C19.6184 16.1632 19.5584 16.1219 19.4985 16.0815C19.6539 16.3497 19.5502 16.2299 19.4782 16.3698C19.4327 16.4551 19.3688 16.5475 19.2924 16.6404C19.0768 16.9077 18.6327 17.2777 18.2821 17.6001C18.1782 17.6963 18.1919 17.7974 18.0633 17.9124C17.9445 18.019 17.4494 18.0873 17.7459 18.3069C17.6222 18.3042 17.5495 18.3329 17.5032 18.3739C17.4442 18.4322 17.5211 18.6595 17.2831 18.5269C17.2952 18.5777 17.3063 18.6298 17.3173 18.6812C17.043 18.6198 17.0934 18.8052 16.9177 18.9581C16.8411 19.0245 16.8107 18.777 16.7824 19.0972C16.7398 19.1048 16.6967 19.113 16.6535 19.1212C16.6301 19.0722 16.6071 19.0224 16.5839 18.9733C16.5115 19.0477 16.4643 19.0878 16.4461 19.1212C16.4108 19.1731 16.4374 19.2044 16.5194 19.2843C16.3779 19.3415 16.2424 19.3999 16.1211 19.45C16.1497 19.5112 16.1789 19.5727 16.2084 19.6333C16.2397 19.6476 16.3732 19.5499 16.6244 19.3691C16.9268 19.1501 17.458 18.7575 17.6498 18.5573C17.9794 18.249 18.2439 17.9761 18.3162 17.8859C18.6986 17.7632 19.0869 17.1616 19.2633 17.021C19.3386 16.963 19.4765 17.0327 19.5756 16.9476C19.588 16.9369 19.5994 16.9235 19.6085 16.9097C19.6759 16.8087 19.6726 16.6448 19.702 16.5961C19.7375 16.5399 19.82 16.4216 19.8917 16.3142C19.9586 16.2251 20.0415 16.0536 20.0005 16.2307C20.0236 16.2294 20.0549 16.23 20.0877 16.2598C20.1401 16.1649 20.1467 16.215 20.1408 16.2724C20.1754 16.2821 20.21 16.2919 20.2445 16.3015C20.1918 16.2451 20.279 16.2861 20.333 16.1194C20.3643 16.0237 20.2465 15.7107 20.5695 15.7692C20.5995 16.012 20.4513 16.2393 20.4278 16.3344C20.4271 16.3377 20.4418 16.3605 20.4594 16.3824C20.5312 16.3084 20.5232 16.4597 20.4771 16.4874C20.4015 16.5467 20.1672 16.3289 20.3659 16.6796C19.9966 16.6206 20.2052 16.8627 20.2053 16.9198C20.2081 17.0127 20.0672 16.9184 20.008 16.9628C19.9443 17.0102 19.994 17.1202 19.9891 17.1322C19.9787 17.1453 19.9626 17.1666 19.941 17.1929C19.8307 17.3356 19.5006 17.6665 19.439 17.6418C19.4371 17.6021 19.4353 17.5624 19.4327 17.523C19.2803 17.6028 19.4228 17.7044 19.4049 17.7506C19.3803 17.7728 19.3553 17.7966 19.3303 17.8188C19.3157 17.7833 19.3008 17.7469 19.286 17.7114C19.1412 17.8549 19.3428 17.842 19.1191 18.0376C18.9765 18.1608 18.736 18.1862 18.7259 18.2058C18.7235 18.2116 18.8302 18.2435 18.7777 18.3044C18.691 18.4049 18.5126 18.5494 18.4123 18.4688C18.3739 18.5232 18.4527 18.6131 18.4502 18.623C18.4355 18.6462 18.2037 18.8663 18.0266 19.0277C17.9766 19.0769 17.9154 19.1286 17.8913 19.149C17.6709 19.3349 17.3315 19.5322 17.0328 19.7699C17.002 19.7942 16.9761 19.7157 16.9455 19.7395C16.938 19.7457 16.9261 19.7587 16.9127 19.775C16.814 19.8807 16.6574 20.1186 16.632 20.1492C16.5383 20.2521 16.2985 20.3825 16.2956 20.4274C16.294 20.4351 16.4228 20.4724 16.369 20.5551C16.3117 20.6424 16.2705 20.4991 16.264 20.497C16.0856 20.5655 16.0591 20.6933 15.958 20.7663C15.9255 20.7894 15.817 20.7211 15.7772 20.7701C15.7701 20.7553 15.7658 20.7432 15.7633 20.7397C15.7147 20.7172 15.7544 20.851 15.7544 20.851C15.7139 20.8608 15.6373 20.8172 15.5407 20.8257C15.149 20.8575 14.7349 20.8238 14.2548 20.7473C14.1901 20.7368 14.1235 20.7258 14.055 20.7132C13.9824 20.6999 13.913 20.5889 13.902 20.5867C13.8681 20.5821 13.8566 20.6952 13.7579 20.674C13.5493 20.6283 13.3538 20.5923 13.1471 20.5425C13.1054 20.5323 13.1112 20.4257 13.0801 20.416C12.9769 20.3864 12.5445 20.559 12.6274 20.2251C12.3392 20.4622 12.2698 20.1694 12.1052 20.1227C12.0774 20.1147 12.0479 20.1069 12.018 20.0986C11.6068 19.9859 11.0279 19.8437 10.6979 19.6725C10.6228 19.6339 10.6192 19.5373 10.579 19.5157C10.5013 19.4781 10.0753 19.3371 10.0669 19.3134C10.0432 19.2732 10.2009 18.9983 9.98095 19.0959C9.95416 19.1038 9.92273 19.1154 9.88612 19.1313C9.74212 19.0788 9.8345 18.9503 9.81278 18.9265C9.6358 18.7536 9.25767 18.9371 9.46253 18.6812C9.18553 18.6163 8.93894 18.6672 9.02377 18.3575C8.94213 18.4809 8.78825 18.4837 8.70765 18.3537C8.97451 18.239 9.03905 18.0957 9.31332 18.3309C9.31653 18.3356 9.25361 18.414 9.2539 18.422C9.29364 18.4565 9.41659 18.4704 9.49161 18.5231C9.56563 18.5753 9.48586 18.6113 9.5169 18.6294C9.5471 18.6459 9.59912 18.5574 9.64208 18.5813C9.78083 18.6593 9.91948 18.706 10.0012 18.7495C10.0454 18.7732 10.0615 18.8562 10.091 18.8949C10.0944 18.9007 10.099 18.905 10.1036 18.9075C10.2197 18.972 10.5425 19.0463 10.7346 19.1339C10.7741 19.1525 10.719 19.239 10.8066 19.2831C10.8172 19.2881 10.8944 19.2057 10.9824 19.2161C11.0705 19.2265 11.1164 19.2992 11.1733 19.3084C11.2208 19.3155 11.2343 19.2218 11.3276 19.2489C11.3854 19.2678 11.8957 19.4806 12.176 19.5916C12.2592 19.6258 12.318 19.6502 12.329 19.6574C12.3916 19.6984 12.3882 19.8349 12.4352 19.8319C12.4437 19.8307 12.4918 19.7119 12.52 19.7105C12.9685 19.6924 13.8523 20.0586 14.3484 20.1353C14.362 20.1376 14.3759 20.1397 14.3888 20.1416C14.6978 20.1873 14.9949 20.213 15.2537 20.215C15.3585 20.2158 15.4586 20.211 15.5382 20.2036C15.7502 20.094 15.7911 20.0516 16.1426 19.7522C16.1455 19.7215 16.15 19.6902 16.154 19.6586C16.0514 19.7403 15.9682 19.8074 15.9024 19.8571C15.8654 19.8102 15.8281 19.7625 15.7911 19.7155C15.7056 19.7689 15.8044 19.8706 15.8556 19.9393C15.8067 19.9303 15.7618 19.9172 15.7203 19.9014C15.7807 20.0259 15.7113 20.0514 15.6305 20.0658C15.62 20.0304 15.6123 19.9924 15.6115 19.9886C15.6056 19.9939 15.5182 20.1047 15.4168 20.0986C15.2648 20.0886 15.2632 19.8927 15.0147 20.0405C14.8279 19.9598 14.6124 19.9298 14.3838 19.9052C14.2498 19.8909 14.1111 19.8787 13.9741 19.8597C14.0763 19.6933 13.7203 19.802 13.572 19.7661C13.1535 19.6678 12.6921 19.5276 12.2468 19.3602C11.7023 19.1586 11.1815 18.9363 10.7889 18.7267C10.6943 18.6765 10.6693 18.5471 10.6195 18.5269C10.5923 18.5162 10.5261 18.625 10.4968 18.5927C10.4923 18.5868 10.5376 18.4779 10.4842 18.4308C10.4578 18.4075 10.4193 18.3883 10.378 18.3714C10.1289 18.2599 9.75587 18.1416 9.76347 17.9301C9.31692 17.6877 8.90202 17.3827 8.80502 17.2903C8.67729 17.1505 8.55874 17.0085 8.44844 16.8629C8.47947 16.8226 8.51031 16.7823 8.54201 16.7428C8.26535 16.7804 8.15073 16.2966 8.06152 16.1093C8.02799 16.0445 7.99247 15.9763 7.95783 15.907C7.8622 15.7009 7.83962 15.6833 7.81116 15.6276C7.78246 15.5686 7.75606 15.4155 7.75046 15.2634C7.74715 15.1808 7.81804 15.1077 7.81748 15.0206C7.8173 15.0036 7.79751 14.9842 7.77702 14.9637C7.75284 14.9364 7.72674 14.9073 7.72644 14.8815C7.72624 14.3548 7.8308 13.6575 7.84403 13.1505C7.8545 12.7443 7.87151 12.3371 7.89967 12.0112C7.96207 11.2682 8.03448 10.8759 8.16647 10.6203C8.18203 10.5882 8.19982 10.5546 8.21958 10.5192C8.52442 9.97492 9.01177 9.39761 9.49414 9.02334C9.72369 8.84798 9.94861 8.66002 10.1049 8.53147C10.2632 8.40157 10.3535 8.33214 10.4804 8.24823C10.9788 7.92087 11.3764 7.7206 11.7006 7.62233C11.6373 8.14626 11.7907 8.33021 11.8612 8.46066C11.9907 8.62214 12.1127 8.60535 12.1482 8.57446C12.2053 8.52358 12.1874 8.38675 12.1988 8.36582C12.3986 8.68293 12.9416 9.24017 13.4721 9.50509C13.998 9.77772 14.2807 9.80424 14.3458 9.81994C14.2658 9.81045 13.9895 9.77909 13.7313 9.75419C13.7583 9.75832 13.4138 9.75111 13.132 9.7643C12.8313 9.77534 12.5018 9.7953 12.1634 9.81741C12.3469 9.83623 12.3537 9.79778 12.023 9.97167C11.9292 10.0206 11.8125 10.085 11.6778 10.1651C11.6233 10.1963 11.6305 10.1834 11.4945 10.284C11.3625 10.3822 11.0918 10.5964 10.8193 10.7923C10.5897 10.9228 10.2123 11.3056 10.0429 11.5573C10.0374 11.5582 10.0402 11.5452 10.0442 11.5257C10.046 11.5176 10.0119 11.4965 9.98601 11.4814C9.99611 11.5373 10.0003 11.6483 9.97716 11.8127C9.96235 11.9077 9.94707 12.0312 9.93164 12.1807C9.87305 12.7035 9.85015 13.8286 9.76473 14.4187C9.7361 14.6208 9.71736 14.8319 9.64208 14.989C9.60204 15.0508 9.5461 15.0955 9.46379 15.1243C9.45466 15.1839 9.58019 15.2156 9.64335 15.233C9.67024 15.1816 9.69675 15.1326 9.69898 15.1306C9.70247 15.1174 9.70553 15.1343 9.73186 15.2204C9.7594 15.3561 9.80359 15.6007 9.88612 15.7274C9.90182 15.7527 9.96275 15.7348 9.98095 15.7603C9.98999 15.7731 9.95052 15.8288 9.95187 15.8349C9.96688 15.8537 10.2715 15.7604 9.7622 16.0752C9.85959 16.1465 9.99969 16.0019 10.1049 15.9285C10.1835 16.0071 10.012 16.2208 10.2427 16.0764C10.2847 16.12 10.3549 16.1863 10.4387 16.2484C10.6415 16.4069 10.9294 16.5977 11.2454 16.7871C11.2901 16.8192 11.3771 16.8695 11.4844 16.9236C11.5041 16.8793 11.5241 16.8352 11.5438 16.7908C11.6495 17.0479 11.8546 16.7744 11.8827 17.0867C11.9864 17.0593 12.093 17.0323 12.2013 17.0045C12.4135 17.0985 12.6468 17.1896 12.893 17.2777C13.4758 17.4916 14.1385 17.651 14.7163 17.7316C14.746 17.7358 14.7757 17.738 14.8048 17.7417C14.9209 17.6475 15.0638 17.5359 15.2284 17.4142C15.6432 17.1065 16.1653 16.7402 16.178 16.72C16.2859 16.6324 16.3915 16.5455 16.4954 16.4608C16.5854 16.3873 16.6752 16.4491 16.8191 16.3306C16.9775 16.1998 17.1103 15.929 17.2781 15.7793C17.4278 15.6469 17.6794 15.5381 17.7725 15.4581C17.7941 15.4394 17.7566 15.3827 17.7586 15.381C17.7712 15.373 17.8484 15.4394 17.8597 15.4316C17.8619 15.4299 17.8617 15.4268 17.861 15.4227C17.8595 15.3997 17.8323 15.353 17.8446 15.3418C17.9065 15.2927 17.9254 15.2213 17.9305 15.2153C17.9573 15.193 18.0416 15.24 18.0481 15.2406C18.0757 15.22 17.991 15.1842 17.9988 15.1812C18.0116 15.1784 18.0411 15.1902 18.0671 15.2052C18.0728 15.1966 18.0785 15.1877 18.0861 15.1799C18.2175 15.0493 18.4272 15.2432 18.4743 15.2128C18.4822 15.2087 18.4754 15.0483 18.5489 15.0333C18.6278 15.0177 18.6126 15.1566 18.645 15.1572C18.6682 15.1589 18.8488 14.9414 18.951 14.9953C19.0548 15.0445 18.8858 15.3441 18.9269 15.4088C18.9339 15.4202 19.0669 15.4168 19.0723 15.4265C19.0783 15.4428 19.0643 15.5884 19.0458 15.7173C19.102 15.7482 19.1768 15.7893 19.2532 15.8311C19.5224 15.5272 19.1909 15.7159 19.2709 15.4493C19.3302 15.4142 19.3899 15.3776 19.4492 15.3393C19.2223 15.3296 19.3785 15.2092 19.2974 15.0269C19.3685 15.0546 19.4401 15.0824 19.5111 15.1104C19.5067 15.0337 19.5417 14.9341 19.5807 14.8347C19.664 14.6803 19.7636 14.4731 19.4795 14.5502C19.516 14.5017 19.5524 14.4509 19.5882 14.3985C19.5232 14.3524 19.4578 14.3054 19.3923 14.2594C19.4007 14.1969 19.4087 14.1331 19.4163 14.0685C19.452 14.0682 19.4881 14.0688 19.5238 14.0685C19.524 14.1204 19.5241 14.1723 19.5238 14.2228C19.6332 14.1862 19.7421 14.1467 19.8512 14.1077C19.8332 14.0686 19.8152 14.0294 19.7969 13.9901C19.6941 14.1537 19.5246 13.9401 19.3796 13.8902C19.3249 13.7549 19.5098 13.6622 19.5174 13.6146C19.5213 13.5921 19.1829 13.3435 19.5478 13.4325C19.4991 13.2995 19.4497 13.1663 19.3986 13.0342C19.415 12.9986 19.4304 12.9625 19.4466 12.9267C19.308 12.9443 18.9305 12.9817 18.9029 12.976C18.8217 12.9461 18.7974 12.8116 18.7069 12.7408C18.7113 12.8111 18.7171 12.8815 18.7208 12.952C18.6231 12.9194 18.5253 12.8874 18.4275 12.8559C18.5015 13.2355 18.4869 13.1093 18.7006 13.2099C18.6231 13.279 18.5449 13.3474 18.4667 13.4148C18.553 13.5519 18.6389 13.6898 18.7221 13.827C18.6612 13.7964 18.5998 13.7661 18.5387 13.7359C18.4304 13.9448 18.5024 13.8855 18.65 13.9964C18.5897 13.9969 18.5295 13.9972 18.4692 13.9977C18.6166 14.191 18.4338 14.2244 18.4313 14.2645C18.429 14.3334 19.1389 14.5057 18.4136 14.6994C18.4703 14.719 18.4982 14.7336 18.5059 14.7437C18.5398 14.836 18.1107 14.8068 18.3959 14.9043C18.1295 15.0408 18.1163 14.8982 18.1468 14.7134C18.1586 14.6676 18.1827 14.5952 18.1898 14.5376C18.1914 14.525 18.1259 14.5422 18.1329 14.4971C18.1337 14.4924 18.2348 14.4928 18.2403 14.4541C18.2588 14.3137 18.2997 14.0987 18.3048 13.9787C18.3205 13.7506 18.1758 13.1116 18.2631 12.8028L18.258 12.8053C18.4423 12.2916 18.1218 12.1767 17.5095 12.603C17.7486 12.2876 17.8973 12.0365 18.0431 11.7874C18.0122 11.7623 17.9804 11.7367 17.9495 11.7116C17.6292 11.7925 17.4437 11.9318 17.0758 12.2919C17.0612 12.2541 17.0458 12.2164 17.0303 12.1794C17.2017 11.732 17.4109 11.4082 17.3679 11.0578C16.9965 11.2264 16.6316 11.3905 16.1818 11.5763C16.1783 11.5392 16.173 11.5035 16.1679 11.4675C16.2656 11.2649 16.4763 10.947 16.5093 10.7936C16.6354 10.2134 16.0568 11.0264 16.0339 10.7923C16.1808 10.6259 16.3189 10.4595 16.4524 10.2928C16.7019 9.9827 16.8596 9.63511 16.9923 9.34071C16.9366 9.2983 16.6687 9.754 16.2185 10.1095C15.7845 10.4375 15.285 10.7041 15.1665 10.5508C15.257 10.4284 15.3446 10.2927 15.4295 10.155C15.3129 10.1497 15.1973 10.1422 15.0843 10.1297C15.0747 10.0966 15.0651 10.0629 15.0552 10.0298C15.1486 9.83415 15.2404 9.62574 15.3308 9.41405C15.3395 9.3829 15.347 9.35187 15.3536 9.32048C15.3396 9.34825 15.3244 9.37429 15.3093 9.39888C15.1086 9.69807 14.9335 9.89054 14.7467 9.94259C14.5968 9.98244 14.4047 9.93224 14.313 9.68591C14.4914 9.71617 14.76 9.38163 14.9098 9.08529C14.9221 9.0435 14.9282 9.0029 14.9338 8.96264C14.8681 8.94753 14.8372 8.97757 14.8112 9.00816C14.7356 9.10229 14.6674 9.19998 14.6101 9.20415C14.5788 9.20626 14.554 9.08973 14.4862 9.09794C14.2933 9.14715 13.8967 9.34422 13.8451 9.17507C13.7808 9.1442 13.9714 8.79441 14.1536 8.49353C14.142 8.48762 14.1381 8.48223 14.1435 8.47836C14.1086 8.46826 14.0858 8.44756 14.0677 8.42652C13.7997 8.60046 13.4622 8.87483 13.3937 8.69837C13.1404 8.53173 13.002 8.16512 13.2483 7.82211C13.2308 7.7186 13.0256 7.8325 12.8513 7.91062C12.6619 8.00607 12.5964 7.95822 12.5933 7.90303C12.482 7.8869 12.4929 7.74421 12.4947 7.5983C12.4508 7.68955 12.4097 7.77025 12.4352 7.77785C12.4137 7.75683 12.3923 7.73567 12.3708 7.71463C12.3376 7.6883 12.3251 7.62444 12.3252 7.5414C12.9513 7.51777 13.6202 7.50655 13.9829 7.54267C14.05 7.55008 14.1177 7.55834 14.184 7.56543C14.2518 7.69972 14.4191 7.95255 14.4369 8.075C14.4598 8.19463 14.3046 8.29772 14.4647 8.28743C14.6151 8.18791 14.5987 7.90446 14.5203 7.60462C14.6256 7.61671 14.7089 7.62379 14.7505 7.63244C14.7971 7.63868 14.7416 7.64678 14.5494 7.55025C14.5317 7.54183 14.5156 7.52913 14.4976 7.51864C14.4661 7.41291 14.4283 7.30717 14.3876 7.20885C14.2954 7.18842 14.1944 7.16824 14.0904 7.15195C14.0842 7.14304 14.0771 7.13545 14.0727 7.12793C14.0776 7.13553 14.0818 7.14416 14.0866 7.15195C14.0672 7.14893 14.048 7.14467 14.0285 7.14184C13.9321 7.12278 13.7941 7.11865 13.7427 7.13046C13.6945 7.1415 13.7241 7.23499 13.7149 7.24046C13.6726 7.2594 13.6578 7.1307 13.6188 7.1254C13.5164 7.11341 13.2335 7.21545 13.1787 7.21517C13.0555 7.21288 12.6711 7.11257 12.4985 7.14184C12.4379 7.152 12.4069 7.17956 12.3821 7.20885C12.3907 7.18156 12.3972 7.15333 12.4074 7.12666C12.3359 7.18315 12.2728 7.25747 12.2329 7.31759C12.1663 7.32361 12.1902 7.27871 12.1457 7.23793C12.1562 7.16988 12.2049 7.0882 12.2633 7.01413C12.249 7.03207 12.2364 7.04859 12.2254 7.06218C12.2212 7.03318 12.2177 7.0042 12.2152 6.97619C12.0166 7.0408 11.8673 7.13969 11.7866 7.18103C11.7781 7.213 11.7711 7.2443 11.7638 7.2746C11.7397 7.28517 11.7205 7.29501 11.7082 7.29863C11.6536 7.31108 11.5684 7.24986 11.4856 7.28219C11.3694 7.32466 11.1053 7.48326 10.9748 7.5806C10.967 7.58613 10.9935 7.68959 10.9723 7.69819C10.928 7.71607 10.8813 7.59619 10.842 7.60083C10.8152 7.60257 10.5079 7.77772 10.2794 7.92706C10.2104 7.97167 10.159 8.00812 10.1365 8.02316C10.0826 8.06001 10.0904 8.14997 10.0593 8.17236C10.0343 8.18909 9.96663 8.10608 9.93923 8.12558C9.93068 8.13361 9.91796 8.2597 9.83175 8.32662C9.75989 8.38259 9.33007 8.60863 9.28171 8.64147C9.25893 8.65918 9.30699 8.68788 9.27666 8.73251C9.27362 8.7395 9.26701 8.74608 9.25769 8.75274C9.21005 8.78614 9.11767 8.73322 9.08952 8.75401C9.02443 8.80252 9.0099 8.92543 8.94663 8.98287C8.76488 9.15052 8.68894 9.05941 8.67478 9.06633C8.63745 9.08871 8.70318 9.17791 8.69754 9.19151C8.663 9.2394 8.5799 9.35882 8.54833 9.40141C8.50901 9.45364 8.40887 9.40431 8.36246 9.45831C8.32829 9.49921 8.34111 9.64649 8.27395 9.74281C8.14396 9.92795 8.01032 10.1547 7.90726 10.3409C7.89191 10.3686 7.87773 10.3948 7.86427 10.4193C7.83809 10.4676 7.7464 10.4326 7.73656 10.4471C7.68623 10.5234 7.77122 10.6081 7.76185 10.6292C7.69253 10.7611 7.44383 11.0995 7.39895 11.3803C7.38578 11.4509 7.39428 11.7028 7.39136 11.9682C7.39128 12.0743 7.38983 12.1887 7.37998 12.2806C7.37614 12.3127 7.30179 12.2784 7.3117 12.316C7.33628 12.4058 7.49193 12.4064 7.48493 12.4513C7.47977 12.4728 7.39025 12.5191 7.37872 12.5828C7.31858 12.9183 7.38144 13.1607 7.37239 13.3187C7.34226 13.8552 7.31906 14.4032 7.29779 14.9574C7.28582 15.2329 7.28564 15.49 7.29906 15.6465C7.31425 15.8033 7.3193 15.8508 7.41539 16.1169C7.50926 16.3775 7.63033 16.6332 7.76943 16.8768C7.8327 16.9866 7.99042 17.0668 8.02611 17.2751C7.98973 17.3078 7.95361 17.3409 7.91737 17.3738C7.96041 17.3519 8.00346 17.3301 8.04635 17.308C8.18083 17.4558 8.27477 17.4909 8.36246 17.6532C8.36536 17.6627 8.36807 17.6745 8.37131 17.6873C8.37255 17.6968 8.23586 17.8768 8.4535 17.705C8.41771 17.953 8.5008 17.7524 8.60397 17.8226C8.71324 17.896 8.79044 18.0352 8.90997 18.14C8.92216 18.2734 8.48974 18.2344 8.47499 18.2171C8.44693 18.1926 8.50744 18.0632 8.48764 18.0363C8.42891 17.9569 8.29333 17.976 8.36625 17.8757C8.19955 17.8912 8.33754 17.9406 8.24739 18.0148C8.22596 17.9265 8.21585 17.842 8.21958 17.7708L8.21831 17.7695C7.87036 17.9789 7.9555 17.226 7.73656 17.4319C7.76137 17.3614 7.78775 17.2918 7.81495 17.2233C7.39523 17.2738 7.55426 17.0264 7.5393 16.763C7.50489 16.8012 7.47064 16.8403 7.43688 16.8794C7.41415 16.8831 7.24724 16.7264 7.4647 16.7011C7.12154 16.6233 7.53548 16.4404 7.1587 16.3938C7.09042 16.3188 7.21056 16.2989 7.21687 16.194C7.21709 16.1662 7.21102 16.1336 7.19664 16.0967C7.1501 15.9777 7.02536 15.9127 7.00065 15.8286C6.9972 15.8086 7.10225 15.7794 7.09927 15.7629C7.0962 15.7456 6.98802 15.7542 6.98168 15.73C6.96835 15.6804 7.03527 15.5979 7.02594 15.5593C7.01716 15.5253 6.91812 15.4796 6.89949 15.381C6.83879 15.0246 6.97939 15.1242 7.02467 15.0687C7.05326 15.0307 7.00494 15 6.96398 14.9523C6.93449 14.9161 6.90895 14.87 6.91846 14.8095C6.92245 14.7957 7.03218 14.8342 7.02846 14.7867C7.02552 14.7492 6.90419 14.728 6.88305 14.6021C6.87422 14.5511 6.86054 13.7773 6.86156 13.6601C6.86181 13.4799 6.97453 13.0844 6.98042 12.9027C6.98276 12.8322 6.88827 12.753 6.8919 12.6789C6.90175 12.4783 6.92231 12.1763 6.94754 11.9316C6.95366 11.8708 6.95945 11.8119 6.96524 11.7571C6.99309 11.4711 7.26064 11.0801 7.09548 10.9364C7.13195 10.6281 7.31688 10.6301 7.32308 10.6102C7.34456 10.5632 7.2472 10.5045 7.26618 10.4395C7.30229 10.3187 7.35314 10.1962 7.42297 10.0652C7.76696 9.41938 8.38835 8.74215 8.97192 8.32536C9.27019 8.10732 9.53148 7.88783 9.70783 7.75256C9.81723 7.6681 9.91676 7.5981 10.029 7.52623C10.7891 7.03681 11.4522 6.73207 12.0673 6.70939C12.7714 6.68145 13.5449 6.65616 14.0778 6.7056C14.3716 6.73803 14.6743 6.76573 14.8592 6.79538C15.0165 7.06457 15.1496 7.37279 15.2309 7.6729C15.2792 7.66476 15.328 7.65659 15.3764 7.64888C15.335 7.38655 15.2843 7.04282 15.1677 6.79032C15.1384 6.72612 15.0957 6.66257 15.0489 6.59939C15.0597 6.60751 15.0661 6.60993 15.0628 6.60065C15.0589 6.59255 15.0411 6.57951 15.0173 6.55892C15.008 6.54711 15.0002 6.53392 14.9907 6.52226C14.9853 6.52122 14.9828 6.52267 14.9831 6.52605C14.94 6.48706 14.8864 6.43422 14.8428 6.36673C14.9754 6.35439 15.0674 6.50734 15.1032 6.34144C14.9822 6.29505 14.7406 6.25406 14.5001 6.21626C14.499 6.29546 14.4975 6.37479 14.4963 6.45398C14.3724 6.4518 14.2418 6.43986 14.1094 6.42489C14.0137 6.41411 13.896 6.40542 13.7768 6.40593C13.7363 6.40603 13.7614 6.4778 13.7263 6.47674C13.6872 6.47502 13.7159 6.40426 13.7086 6.4034C13.6079 6.39934 13.574 6.47185 13.5619 6.47041C13.5306 6.46619 13.5563 6.39689 13.4632 6.37558C13.2884 6.33622 13.1589 6.5234 13.2015 6.21247C13.1436 6.21236 13.0853 6.21213 13.027 6.21247C13.0124 6.29706 12.9983 6.382 12.984 6.46662C12.6212 6.12837 12.4648 6.73306 12.2519 6.26304C12.1878 6.33677 12.1232 6.41039 12.0597 6.48432L12.0584 6.48685C12.0291 6.40302 11.998 6.31923 11.9636 6.23649C11.9624 6.30931 11.9614 6.38245 11.9611 6.45524C11.6969 6.41891 11.4356 6.56634 11.1834 6.64617C11.0052 6.70374 10.9501 6.69592 10.7915 6.77262C10.4347 6.95754 10.7367 6.64787 10.354 6.66767C10.412 6.73781 10.4692 6.80913 10.5259 6.88009C10.4908 6.93495 10.4553 6.9898 10.421 7.04574C10.3514 7.00118 10.2802 6.9582 10.2086 6.9155C10.2381 7.33111 9.98514 7.13361 9.96072 7.14689C9.94897 7.15464 9.97129 7.26094 9.89877 7.31633C9.86821 7.34013 9.81743 7.35092 9.73059 7.33403C9.96695 7.54676 9.61468 7.41675 9.59403 7.42887C9.57934 7.43656 9.43748 7.63216 9.34873 7.70072C9.28229 7.75073 9.08898 7.82048 8.97825 7.91062C8.88241 7.98872 8.95171 8.06362 8.9479 8.07247C8.84764 8.15801 8.85131 8.08519 8.80122 8.0965C8.79331 8.09737 8.78346 8.10143 8.77214 8.10914C8.70207 8.15729 8.70604 8.26846 8.68742 8.27478C8.6775 8.27734 8.63938 8.18176 8.60017 8.20144C8.49368 8.25437 8.39285 8.45655 8.29671 8.54664C8.26235 8.57844 8.16046 8.56088 8.12095 8.59722C8.06071 8.65322 8.11476 8.75769 8.08049 8.78941C8.06875 8.79987 7.87055 8.76169 7.80231 8.88045C7.79059 8.90742 8.01806 9.18703 7.56206 8.93988C7.61293 8.99146 7.66389 9.04291 7.71506 9.09415C7.58754 9.5401 7.0393 9.32358 7.36987 9.7681C7.16037 9.99958 7.09509 9.71692 7.05122 9.7289C7.03122 9.73564 7.02224 9.79633 7.01708 9.83385C7.01523 9.84879 7.01428 9.8602 7.01203 9.86293C6.99755 9.87617 6.94206 9.84216 6.93237 9.8604C6.77142 10.201 6.96213 10.1041 6.98674 10.2359C7.06857 10.5326 6.61125 10.6076 6.88811 10.2069C6.85463 10.193 6.82044 10.179 6.78695 10.1651C6.76994 10.2846 6.66825 10.5711 6.52142 10.4218C6.38563 10.2924 6.80607 9.60402 6.43164 9.93121C6.34671 10.0128 6.45358 10.1031 6.1522 10.1993C6.10135 10.3181 6.41238 10.422 6.24577 10.547C6.36401 10.5475 6.48226 10.5505 6.59982 10.5558C6.69348 10.7842 6.45278 11.009 6.4936 11.1969C6.5068 11.2609 7.02926 11.5347 6.48854 11.4258C6.5027 11.4919 6.44969 11.7063 6.42026 11.8873C6.40319 11.9877 6.39535 12.0765 6.41141 12.1124C6.42225 12.1359 6.71084 12.1794 6.59349 12.4955C6.55605 12.516 6.51837 12.5364 6.48096 12.5575C6.38783 12.2549 6.25508 12.7778 5.98403 12.6232C6.11045 12.5789 6.1985 12.344 6.26347 12.3096C6.37476 12.252 6.50278 12.4486 6.47843 12.2047C6.02427 12.0221 6.21255 12.4787 5.77666 12.3893C5.96633 12.7278 5.77224 12.7534 5.76022 12.8281C5.71605 13.1482 5.75749 13.3524 5.69953 13.655C5.78804 13.7302 5.93152 13.1858 5.89552 13.1164C6.20883 13.3737 6.23421 12.9472 6.05105 12.761C6.14827 12.7495 6.2459 12.7382 6.34313 12.7269C6.28186 12.9572 6.24919 13.1855 6.3229 13.4198C6.28636 13.4341 6.24943 13.4485 6.21289 13.4628C6.15971 13.4094 6.10663 13.3558 6.05357 13.3022C5.95938 13.4943 6.24368 13.3837 5.99035 13.6373C6.09932 13.6477 6.20887 13.6586 6.31784 13.6689C6.27644 13.9159 6.23629 14.1638 6.19646 14.4124C6.38458 14.5287 6.34208 14.905 6.14209 14.941C6.12104 14.9446 6.09825 14.9442 6.07381 14.9397C6.06394 14.9379 6.05385 14.9354 6.04346 14.9321C6.04316 14.9346 6.04243 14.9373 6.04219 14.9397C6.02508 15.1133 6.17526 14.8939 6.24198 15.0649C6.27125 15.14 6.28035 15.2814 6.20531 15.3178C5.93469 15.3102 5.89876 15.0881 5.7147 15.0168C5.63755 15.0736 5.89323 16.0733 5.59458 16.0309C5.57334 16.1214 5.72428 16.0559 5.79815 16.1864C5.87417 16.3187 5.91658 16.4896 5.97012 16.6758C6.05811 16.9921 6.18459 17.3264 6.5113 17.3877C6.52712 16.9434 6.27242 16.9495 6.14841 16.6745C6.14242 16.6608 6.13316 16.6416 6.12312 16.6176C5.95463 16.3321 5.84038 15.4522 6.13197 15.6478C6.09265 15.6117 6.05412 15.5733 6.01564 15.534C6.09807 15.4881 6.18134 15.4438 6.26474 15.4C6.28085 15.5145 6.29971 15.6236 6.3229 15.7237C6.24151 15.7571 6.1605 15.7919 6.08013 15.8286C6.14155 15.8322 6.20339 15.8355 6.26474 15.8375C6.28271 15.8773 6.30076 15.9158 6.32037 15.9525C6.24718 15.956 6.17384 15.9591 6.10036 15.9601C6.10063 16.0293 6.10392 16.0974 6.11047 16.1675C6.19891 16.1236 6.28852 16.0817 6.37854 16.0423C6.48238 16.3167 6.39919 16.2388 6.29508 16.4849C6.32207 16.5924 6.37073 16.4649 6.45567 16.4886C6.48901 16.4969 6.52663 16.5271 6.572 16.6012C6.76445 16.9005 6.39285 16.8143 6.6643 17.2081C6.71007 17.1914 6.75649 17.1746 6.80213 17.1575C6.80767 17.2702 6.81655 17.3844 6.82868 17.4989C6.87323 17.4563 6.91778 17.4134 6.96271 17.3712C7.04929 17.5665 7.30621 17.7401 7.15491 17.9339C7.12423 17.6926 6.78491 17.9194 6.75408 18.0123C6.73025 18.0863 6.89356 18.3581 7.14353 18.6534C7.50859 19.0938 8.1838 19.4809 8.36499 19.5929C8.73722 19.8228 8.97307 20.0993 9.40816 20.1416C9.42378 20.1428 9.43992 20.1438 9.45621 20.1442C9.44856 20.1311 9.4389 20.1182 9.42839 20.105C9.1968 19.8364 8.36861 19.4642 8.29418 19.2666C8.28544 19.2465 8.50899 18.9422 8.16773 19.2211C7.93549 18.9713 7.56997 18.7981 7.31929 18.5092C7.29087 18.4761 7.26227 18.4407 7.23583 18.4056C7.33012 18.3493 7.42408 18.292 7.51781 18.2348C7.51717 18.2726 7.52284 18.3055 7.53298 18.3335C7.60186 18.5497 7.99805 18.4102 7.71506 18.6648C7.75278 18.7003 7.79261 18.7373 7.83265 18.7722C7.88063 18.7173 7.92882 18.6615 7.9768 18.6066C8.0345 18.657 8.09534 18.7077 8.15762 18.7571C8.11238 18.8141 8.0663 18.8708 8.02106 18.9278C8.0743 18.97 8.13003 19.0131 8.18544 19.0542C8.23458 19.0002 8.28327 18.9454 8.33211 18.8911C8.40321 19.1405 9.23205 19.1875 8.73168 19.3842C8.81619 19.438 8.90251 19.4911 8.98963 19.5436C9.01677 19.4978 9.04339 19.4514 9.07055 19.4057C9.11062 19.4215 9.1528 19.4383 9.1932 19.4538C9.15664 19.488 9.1202 19.5223 9.0832 19.5562C9.29675 19.5834 9.3386 19.8966 9.53587 19.8154C9.47739 19.7417 9.41961 19.6672 9.36264 19.5929C9.41808 19.6646 9.53063 19.7058 9.63323 19.7307C9.72443 19.7498 9.80694 19.7531 9.8191 19.7585C9.88721 19.7919 9.87743 19.9066 9.95314 19.9482C10.0215 19.9851 10.0463 19.9057 10.0581 19.914C10.4076 20.16 10.0992 20.5111 10.4829 20.0949C10.4761 20.1702 10.4688 20.2457 10.4627 20.3212C10.5119 20.2755 10.5608 20.2295 10.6094 20.1834C10.7274 20.2347 10.8475 20.2849 10.9685 20.3338C10.9578 20.2339 10.9471 20.1338 10.9381 20.0342C11.1312 20.0611 11.158 20.2615 11.1746 20.2719C11.2215 20.2991 11.2812 20.1998 11.2972 20.2036C12.0116 20.4488 11.6086 20.4115 11.7828 20.8586C11.7925 20.8833 11.8045 20.9092 11.8182 20.937C12.0039 20.818 11.914 20.6153 11.9459 20.4464C12.1001 20.5772 12.1703 20.5486 12.3569 20.6108C12.4052 20.6269 12.4346 20.7291 12.4656 20.7397C12.4925 20.7481 12.6028 20.676 12.6679 20.6917C12.7765 20.719 12.908 20.8125 13.0586 20.8459C13.184 20.8744 13.5818 20.8896 13.8476 20.9357C13.9607 20.9561 13.9208 21.0316 13.9501 21.0369C13.9638 21.0379 14.0678 20.9576 14.1397 20.9686C14.1661 20.9727 14.1931 20.9771 14.2194 20.9812C14.7745 21.0696 15.3978 21.1868 15.7999 21.1342C15.848 21.1287 15.8984 21.1086 15.8556 21.1178C16.1217 20.991 16.2913 20.8353 16.5384 20.6499C16.6059 20.5993 16.6157 20.6829 16.6471 20.6613C16.6577 20.6515 16.5897 20.5484 16.7356 20.4944C16.7896 20.4742 16.796 20.5811 16.8406 20.5513C16.8635 20.5358 16.8 20.4452 16.9165 20.3212C17.0026 20.2301 17.0967 20.1751 17.1769 20.1442C17.2815 20.1082 17.3598 20.1151 17.3729 20.105C17.4069 20.0707 17.3439 20.0034 17.3932 19.9646C17.6354 19.7751 17.8364 19.6198 18.0317 19.4702C18.0618 19.4469 18.1597 19.3729 18.2454 19.3008C18.469 19.1156 18.7543 18.8756 18.7841 18.8645C18.8862 18.8274 18.9344 19.035 19.0319 18.9455C19.0294 18.8849 19.0274 18.8236 19.0243 18.7634C18.9564 18.7727 18.8878 18.782 18.8195 18.7912C18.9826 18.735 19.0652 18.5528 19.1558 18.4789C19.1731 18.4653 19.3805 18.4002 19.4492 18.3259C19.441 18.3811 19.4316 18.436 19.4226 18.4915C19.4543 18.5043 19.487 18.5167 19.5187 18.5295C19.6412 18.3598 19.799 18.2177 19.9486 18.0819C20.0022 18.0331 20.0361 18.1025 20.0902 18.0528C20.3542 17.8041 20.1729 17.6773 20.5277 17.6937C20.5946 17.6951 20.6802 17.701 20.792 17.7076C20.7598 17.7267 20.7194 17.7673 20.6744 17.8188C20.5433 17.9717 20.3546 18.2182 20.3027 18.2488C20.2545 18.2786 19.7688 18.0665 20.1699 18.3765C19.8553 18.6696 19.941 18.2135 19.6869 18.5269C19.7336 18.5671 19.7804 18.607 19.8272 18.6471C19.7479 18.7702 19.689 18.8631 19.5528 18.838C19.7267 19.0823 19.2403 19.268 19.0445 19.4525C18.9215 19.5692 18.7948 19.6977 18.6665 19.8268C18.5161 19.9806 18.3354 20.1374 18.1607 20.2681C18.0539 20.3475 17.9249 20.2968 17.9103 20.306C17.8904 20.3209 17.891 20.444 17.8509 20.4729C17.7903 20.5166 17.6633 20.5731 17.536 20.6462C17.3364 20.7622 17.1567 20.9209 17.1997 21.1026C17.3358 20.9923 17.4767 20.8788 17.6258 20.7726C18.011 20.4949 18.4151 20.2334 18.7701 19.9558C19.1149 19.6795 19.4574 19.4009 19.7893 19.1136C19.6027 19.0989 20.3944 18.3666 20.4266 18.3272C20.4661 18.2966 20.5055 18.3942 20.5201 18.3878C20.6289 18.3376 20.592 18.1715 20.615 18.1463C20.6329 18.127 20.7188 18.1321 20.7806 18.0604C20.7906 18.0466 20.7423 17.9969 20.7541 17.9832C20.7703 17.9647 20.7864 17.946 20.8021 17.9276C20.8648 17.8543 20.9264 17.7807 20.9855 17.7038C20.9906 17.6983 21.0913 17.7355 21.1106 17.7101C21.128 17.6848 21.0678 17.6036 21.0689 17.5938C21.1272 17.5167 21.2772 17.4162 21.3281 17.3371C21.3452 17.3101 21.2707 17.2885 21.2902 17.2587C21.3487 17.1671 21.4569 17.2729 21.4925 17.1348C21.5039 17.0879 21.4047 17.0369 21.4571 16.9691C21.4939 16.9221 21.6695 17.0166 21.6809 17.0109C21.6907 17.0059 21.6714 16.8581 21.6973 16.7959C21.7092 16.7665 21.7315 16.7433 21.7707 16.7352C22.0589 16.9869 21.8363 16.569 21.6847 16.5569C21.7397 16.484 21.7934 16.406 21.8453 16.3255C21.814 16.29 21.7822 16.2543 21.7505 16.2193C21.9715 15.8957 21.896 15.6598 21.9818 15.3127C21.9853 15.2996 22.0528 15.1196 22.1058 15.0484C22.1202 15.0298 22.134 15.0186 22.145 15.0219C22.149 15.032 22.1541 15.0423 22.1576 15.0522C22.2187 15.2289 22.197 15.3964 22.0299 15.4885C22.3241 15.7099 22.0749 15.689 22.0767 15.9968C22.0767 16.0986 22.1562 16.1202 22.1589 16.1321C22.1489 16.3508 22.1236 16.6451 22.0135 16.9009C21.9082 17.1248 21.7558 17.2689 21.5949 17.3169C21.6152 17.417 21.7746 17.1958 21.7656 17.3118C21.7809 17.3755 21.253 18.2197 21.0816 18.1653C21.0705 18.1622 21.0614 18.1544 21.055 18.1425C21.0434 18.1205 21.0389 18.0822 21.0449 18.0262C21.0311 18.0504 21.0175 18.0753 21.0032 18.0996C20.9942 18.1149 20.9846 18.1309 20.9753 18.1463C21.1527 18.3601 20.9465 18.4932 20.7667 18.2867C20.7929 18.3401 20.8186 18.3944 20.8438 18.4485C20.8484 18.5117 20.8306 18.5664 20.7907 18.6281C20.6494 18.8856 19.3502 19.8695 19.3037 19.9457C19.3428 19.9967 19.3823 20.0476 19.4213 20.0986C20.0267 19.6958 20.4559 19.1373 21.1486 18.6774C21.0884 18.6534 21.0284 18.6291 20.969 18.6041C21.0879 18.5315 21.2073 18.4536 21.3243 18.3714C21.4837 18.2596 21.64 18.1401 21.7922 18.011C21.7385 18.1726 21.6479 18.3666 21.5292 18.5472C21.3874 18.7632 21.2099 18.9539 21.0348 19.058C20.977 19.0923 20.9514 18.998 20.9336 19.0011C20.888 19.009 20.9604 19.1441 20.8691 19.2502C20.7772 19.3581 20.452 19.5113 20.4304 19.5334C20.3897 19.5786 20.3758 19.8103 20.2963 19.8761C20.1914 19.962 20.1932 19.8249 20.1712 19.8407C20.0792 19.9057 20.0361 20.0092 19.9638 20.0595C19.8565 20.1341 19.5349 20.1623 19.6338 20.4261C19.7126 20.3778 19.7925 20.3287 19.8715 20.2795C19.7173 20.465 19.5195 20.557 19.3316 20.6563C19.0925 20.7889 18.8868 20.8945 18.7537 21.157C18.8469 21.4866 19.1553 21.219 18.9522 21.5287C19.0002 21.4898 19.0484 21.4499 19.0976 21.4099C19.0709 21.3459 19.0448 21.2816 19.018 21.2177C19.1355 21.1944 19.2554 21.169 19.3809 21.1368C19.3173 21.1085 19.2543 21.0794 19.1925 21.0495C19.2764 20.9733 19.363 20.892 19.4542 20.8105C19.6488 20.6327 19.8467 20.5137 20.0713 20.6335C20.0276 20.5678 19.9835 20.5019 19.9398 20.4363C20.2778 20.2844 20.4723 19.6754 20.682 20.0708C20.68 20.0421 20.6779 20.0135 20.6757 19.9848C20.9016 19.9054 20.7106 19.8314 20.7591 19.761C20.7754 19.7415 21.1576 19.517 21.1031 19.7433C21.4892 19.5179 21.1079 19.3118 21.1802 19.2173C21.5232 19.1703 21.649 18.5702 21.7403 18.948C21.7787 18.923 21.8171 18.8983 21.8554 18.8721C21.8477 18.8496 21.8418 18.8294 21.839 18.8114C21.806 18.6116 22.0794 18.6678 22.2398 18.6015C22.2775 18.5613 22.3144 18.5197 22.3511 18.4789C22.3046 18.3989 22.2565 18.3207 22.2082 18.2424C22.8335 18.0357 21.7977 17.5971 22.7178 17.8644C22.7465 17.9258 22.7748 17.9886 22.8025 18.0502C22.7774 18.1434 22.7498 18.2349 22.7215 18.3259C22.9247 18.0389 23.0789 17.8764 23.3083 17.3333C23.3304 17.2764 23.3509 17.2205 23.3689 17.1677C23.7636 16.6823 23.5056 16.4097 23.7698 15.974C23.7504 15.9291 23.7313 15.883 23.7116 15.8387C23.915 15.9047 23.8658 16.0668 23.9936 15.7692C24.144 15.7582 24.1402 15.9707 24.0151 16.0549C23.9847 16.0744 23.8958 15.8637 23.8646 16.0853C23.841 16.24 24.0595 15.9764 23.9266 16.4406C23.965 16.4281 24.0033 16.4148 24.0416 16.4027C24.0329 16.4545 24.0236 16.5086 24.0138 16.562C23.9232 16.597 23.8318 16.6312 23.7407 16.6644C23.8343 16.8162 24.0006 16.9031 23.8709 17.2612C23.8457 17.1497 23.6573 17.2304 23.5928 17.4269C23.5918 17.4296 23.5911 17.433 23.5902 17.4357C23.6476 17.4551 23.7049 17.4745 23.7622 17.4939C23.6359 17.8908 23.5953 17.8536 23.5422 17.9213C23.4941 17.9676 23.4621 18.0107 23.4423 18.1906C23.3838 18.1967 23.3258 18.2004 23.2678 18.2045C23.3591 18.4604 23.1144 19.0583 22.9352 18.7899C23.0746 19.0978 22.743 19.3116 22.4838 19.2578C22.5236 19.3038 22.5632 19.3506 22.6027 19.3969C22.5944 19.4112 22.5859 19.4255 22.5774 19.4399C22.5493 19.4873 22.5199 19.5341 22.4914 19.5802C22.4381 19.5856 22.386 19.5903 22.3334 19.5941C22.3281 19.6539 22.3215 19.7144 22.3157 19.7737C22.2518 19.7533 22.1876 19.7322 22.1247 19.7105C22.1254 19.8144 22.1256 19.9182 22.1247 20.0215C22.0583 20.0199 21.993 20.0172 21.9275 20.0139C22.013 20.1089 21.7173 20.4298 21.576 20.4438C21.5747 20.4942 21.5735 20.5441 21.5722 20.5943C21.5196 20.5611 21.4663 20.5281 21.4141 20.4944C21.4272 20.547 21.4407 20.5996 21.4533 20.6525C21.3776 20.6554 21.3019 20.6585 21.227 20.6601C21.2418 21.0369 21.0671 20.8458 21.0284 20.8813C20.9562 20.9485 20.8204 21.2989 20.7718 21.3277C20.7233 21.3553 20.6353 21.2909 20.5947 21.3113C19.9332 21.6359 20.3408 21.6685 20.2571 21.7943C20.2549 21.7975 20.252 21.8003 20.2495 21.8031C20.1729 21.8801 20.0631 21.8525 20.0042 21.9093C19.8814 22.0268 19.4699 22.4699 19.4428 22.4733C19.3934 22.4816 19.2195 22.0412 19.1634 22.2242C19.3006 22.4325 18.8989 22.4067 19.219 22.6073C19.1449 22.6368 19.0715 22.6667 18.999 22.6958C18.9668 22.7039 18.9324 22.7129 18.8966 22.7249C19.0817 22.9559 18.8919 22.8618 18.7613 22.9892C18.637 23.1449 17.8983 23.8885 17.7674 23.5923C17.7142 23.7038 17.6544 23.8155 17.5929 23.9249C17.3956 23.9944 17.21 24.0627 17.0328 24.1297C16.3944 24.3518 16.1879 24.341 15.91 24.3851C15.6542 24.4152 15.4376 24.4287 15.2284 24.4243C14.6791 24.4108 14.1931 24.3476 13.7174 24.2663C12.7469 24.0966 11.8299 23.8358 10.9558 23.5253C10.9154 23.5107 10.8749 23.4958 10.8345 23.4811C10.774 23.4588 10.8122 23.3669 10.7687 23.3508C10.541 23.2688 9.90416 23.1293 9.56621 22.974C9.45862 22.9254 9.44028 22.8137 9.40689 22.7957C9.29398 22.7337 9.27379 22.8622 9.21976 22.8362C9.13448 22.7973 8.7113 22.4834 8.54707 22.3835C8.46698 22.3368 8.31954 22.3747 8.23222 22.2912V22.2899C8.23289 22.2844 8.24193 22.2685 8.25245 22.252C8.2688 22.2271 8.28767 22.1995 8.28406 22.1964L8.2828 22.1951C8.14188 22.1038 8.18727 22.2301 8.13992 22.1989C7.79638 21.969 7.41066 21.74 7.02214 21.4529C6.92551 21.3814 6.81541 21.2141 6.73385 21.1456C6.70272 21.1202 6.71518 21.2277 6.60487 21.138C6.56743 21.1072 6.61459 21.0151 6.57579 20.9762C6.40638 20.8094 6.12619 21.0061 6.13197 20.6588C5.95864 20.5175 5.70205 20.3142 5.4479 20.043C5.27372 19.8667 5.10963 19.6823 5.00914 19.5436C4.96027 19.4755 4.98541 19.4072 4.93959 19.3425C4.90672 19.2961 4.77239 19.2647 4.72211 19.1895C4.67215 19.114 4.67099 18.9473 4.58049 18.8013C4.48428 18.6473 4.32914 18.4724 4.3099 18.4346C4.28631 18.39 4.37697 18.3165 4.35289 18.2728C4.27978 18.1433 4.00442 17.8194 3.91918 17.6355C3.89443 17.5837 3.87783 17.5356 3.86481 17.4914C3.83462 17.384 3.83137 17.2924 3.8117 17.2397C3.78587 17.174 3.66746 17.1175 3.65491 17.0817C3.6357 17.0263 3.73798 16.9795 3.71561 16.9072C3.67922 16.789 3.57468 16.673 3.53479 16.4798C3.40518 15.8159 3.41621 15.3399 3.4172 14.9043C3.43358 13.8474 3.45422 12.8298 3.57272 11.6483C3.64928 11.0202 3.72474 10.2424 4.05827 9.36474C4.18231 9.05396 4.18536 8.83126 4.44899 8.42399C4.45885 8.40914 4.46889 8.39642 4.47807 8.38605C4.56311 8.29521 4.61829 8.38451 4.66394 8.26972C4.68631 8.21373 4.60114 8.17887 4.63739 8.11167C4.79819 7.814 5.09165 7.55479 5.17605 7.44277C5.2093 7.3983 5.16698 7.28425 5.238 7.19241C5.66969 6.63411 6.25215 6.05983 6.90581 5.5676C6.99542 5.49964 7.08185 5.4299 7.17514 5.35138C7.35438 5.20025 7.75114 4.83129 8.17153 4.55224C8.29574 4.46671 8.4224 4.3843 8.54454 4.31073C9.38583 3.79513 10.6246 3.24391 11.9586 3.21698C12.3532 3.20584 12.7455 3.19672 13.1294 3.19296C13.5379 3.1918 13.9186 3.18139 14.4723 3.23089C14.7603 3.25975 15.0305 3.26568 15.5319 3.34469C15.7833 3.39066 16.1371 3.45416 16.5953 3.68989C17.0573 3.92008 17.5033 4.36419 17.7257 4.71662C18.2979 5.59912 18.6506 6.47364 18.7765 7.59324C18.8263 6.58777 18.4758 5.55085 17.8812 4.61294C17.5788 4.07806 16.758 3.45996 16.2324 3.3055C15.171 2.97432 14.9017 3.04681 14.5001 2.97674C13.4243 2.87434 12.744 2.92835 11.951 2.95777C10.3042 3.02162 8.97271 3.77409 8.05393 4.3651C7.77167 4.54369 7.47361 4.76724 7.25859 4.94169C7.04105 5.11737 6.89665 5.23571 6.7427 5.35011C6.73066 5.35911 6.71925 5.3689 6.70729 5.37793C5.75906 6.09208 4.85737 7.10227 4.16828 8.2103C4.12507 8.28061 4.08282 8.35211 4.04183 8.42399C4.00667 8.48624 4.01115 8.65119 3.94068 8.78815C3.92375 8.81343 3.63284 9.14384 3.58916 9.28002C3.87129 9.23899 3.48761 9.67859 3.46145 9.83764C3.41867 10.0379 3.46532 10.4547 3.34765 10.8226C3.24246 11.1515 3.15843 11.0508 3.14787 11.0667C3.09572 11.1791 3.24942 11.2343 3.25788 11.3208C3.26348 11.3832 3.2596 11.491 3.25155 11.6218C3.20456 12.3203 3.12056 13.4718 3.10867 13.851C3.1049 13.9686 3.00355 13.9698 3.00246 13.9964C3.00059 14.0664 3.09837 14.1683 3.09603 14.2797C3.0915 14.4815 2.99423 14.7101 2.99234 14.8183C2.9919 14.8434 2.99224 14.8703 2.99361 14.898C3.00707 15.2138 3.09378 15.7586 3.17695 16.3002C3.20285 16.4644 3.10014 16.4748 3.11499 16.5531C3.15749 16.817 3.40725 17.3823 3.54364 17.6153C3.59609 17.7178 3.64316 17.8103 3.67514 17.8846C3.88017 18.3621 4.07065 18.8618 4.37565 19.2768C4.35345 19.3291 4.33129 19.3818 4.3099 19.4348C4.37925 19.4511 4.44943 19.4683 4.51853 19.4829C4.69734 19.7765 4.9108 20.0498 5.13558 20.301C5.62116 20.8495 6.08072 21.1626 6.48854 21.4706C6.5681 21.5333 6.90196 21.8703 6.96524 21.9093C7.01826 21.9438 7.13389 21.8793 7.20169 21.9422C7.29721 22.0302 7.07845 22.1547 7.29021 22.2103C7.34648 22.2241 7.35008 22.117 7.45964 22.1483C7.49417 22.1612 8.0139 22.4225 8.12727 22.4809C8.14118 22.4884 8.1505 22.4936 8.15382 22.496C8.21541 22.5423 8.18121 22.7516 8.19682 22.7666C8.27717 22.8338 8.34393 22.6931 8.40924 22.7097C8.60144 22.7583 8.77574 22.9491 8.80502 22.9601C9.15025 23.0844 9.77208 23.1874 10.0619 23.3635C10.1021 23.3884 10.0592 23.4963 10.0657 23.5025C10.1076 23.5421 10.181 23.4284 10.2288 23.4406C10.4232 23.4945 10.6773 23.6268 10.8926 23.7289C10.9671 23.7634 11.0383 23.7942 11.1013 23.8187C11.1312 23.8301 11.2144 23.7883 11.2669 23.8098C11.5642 23.9317 11.4379 24.0015 11.454 24.0109C11.4932 24.0325 11.596 23.9442 11.7082 23.9666C11.9977 24.0255 12.5427 24.1698 12.8538 24.2397C13.0862 24.2933 13.0602 24.4187 13.0751 24.4243C13.1081 24.4341 13.2192 24.3519 13.3773 24.3674C13.5981 24.3884 13.6355 24.4415 13.6858 24.4762C13.7055 24.4896 13.7276 24.5 13.7629 24.504C13.7737 24.504 13.7693 24.4044 13.9109 24.4142C14.1798 24.4352 14.8057 24.6007 15.1601 24.6039C15.2933 24.6063 15.3272 24.5108 15.4699 24.509C15.6738 24.5154 16.3302 24.5628 16.4473 24.5305C16.4671 24.5266 16.4861 24.4127 16.6143 24.3839C16.7449 24.3538 16.9162 24.3564 17.0973 24.2941C17.1023 24.2928 17.1079 24.2921 17.1124 24.2903C17.4337 24.1731 17.9027 23.6942 17.9369 24.1221C17.9973 23.9779 18.0522 23.8322 18.0975 23.6884C18.7028 23.3149 18.986 22.9892 19.1267 22.8754C19.1588 22.8496 19.1911 22.824 19.2241 22.7982C19.2965 22.7418 19.4031 22.7583 19.4669 22.7097C19.5272 22.663 19.7649 22.3483 19.8234 22.3038C19.8811 22.2594 20.0846 22.1155 20.3368 21.9119C20.4555 21.8146 20.562 21.7283 20.5909 21.7096C20.7249 21.6229 20.9482 21.6483 20.9791 21.5818C21.0038 21.5283 20.9082 21.489 20.969 21.4048C21.0749 21.2594 21.3831 21.1523 21.4242 21.114C21.4411 21.0977 21.3614 21.0728 21.5254 20.9231C21.6142 20.8413 21.7161 20.8558 21.7492 20.8257C21.7561 20.8136 21.6612 20.7357 21.8516 20.5842C21.9841 20.4782 22.1053 20.4947 22.1209 20.483C22.1418 20.4639 22.1185 20.3424 22.2019 20.2656C22.3563 20.1248 22.6656 19.9157 22.8897 19.7067C22.9467 19.6543 22.9968 19.6042 23.0351 19.56C23.0712 19.5176 22.9624 19.4544 23.1047 19.2894C23.2055 19.1705 23.2696 19.2507 23.3083 19.2059C23.3695 19.1322 23.3515 18.9471 23.4701 18.7722C23.504 18.7219 23.588 18.605 23.6977 18.4359C23.753 18.3503 23.8137 18.2534 23.881 18.135C23.9521 18.002 24.0078 17.9286 24.1301 17.6064C24.4215 16.7877 24.4763 16.3692 24.5145 16.3002C24.5446 16.2442 24.5542 16.1774 24.6119 16.1561C24.6609 16.1858 24.7099 16.2186 24.7586 16.2497C24.5418 16.4832 24.7638 16.4082 24.7674 16.4811C24.7745 16.581 24.6767 16.9947 24.6916 17.1335C24.6982 17.1816 24.8341 17.0964 24.8319 17.3573C24.8265 17.5501 24.7135 17.6762 24.6979 17.7961C24.6627 17.9376 24.6742 18.0059 24.7358 18.1021C24.4778 18.3273 24.4053 18.4658 24.4096 18.5737C24.4168 18.6714 24.5122 18.714 24.6612 18.5156C24.6792 18.4909 24.7122 18.4409 24.7573 18.3588C24.8065 18.2619 24.8499 18.2039 24.9685 17.8859C25.3634 16.7908 25.4545 15.9206 25.5084 15.6364C25.5205 15.5535 25.5247 15.4518 25.5261 15.338C25.5359 15.0086 25.5125 14.6754 25.5312 14.4377C25.5491 14.2322 25.56 13.7525 25.7044 13.7713C25.72 13.5986 25.5783 13.7834 25.5577 13.7473C25.5164 13.6709 25.6013 13.1403 25.5918 13.0418C25.5531 12.5509 25.35 11.9575 25.4831 11.4587C25.5239 11.4772 25.565 11.4955 25.6058 11.5143C25.6886 11.6176 25.6284 12.1242 25.8169 12.1668C25.7987 11.9136 25.7772 11.6594 25.7512 11.4018C25.6989 10.8852 25.6253 10.3726 25.5299 9.86167C25.3827 9.90336 25.1795 8.945 25.2302 8.88045C25.3088 8.87902 25.388 8.87874 25.4667 8.87792C25.3131 9.49385 25.6736 9.3615 25.5476 9.77189C25.5731 9.92202 25.6898 9.85494 25.7271 9.92489C26.0895 10.6281 25.4767 9.97961 25.6778 10.5268C25.834 10.3289 25.9708 10.7862 26.018 10.9959C26.0235 11.0203 26.0338 11.196 26.0407 11.3727C26.0466 11.5348 26.0502 11.6962 26.0546 11.7305C26.1068 12.12 26.2478 12.779 26.1596 13.172C26.1581 13.4782 26.2926 13.6452 26.3252 13.9332C26.349 14.1536 26.2559 14.0919 26.2544 14.1962C26.2504 14.4167 26.5283 14.5007 26.1343 14.6388C26.1783 14.7974 26.2194 14.9628 26.2569 15.142C26.1967 15.1382 26.1364 15.1344 26.0761 15.1306C26.071 15.2117 26.0645 15.2957 26.0572 15.3823C26.0552 15.4051 26.0528 15.4281 26.0508 15.4505C26.1088 15.4813 26.1675 15.511 26.2253 15.5428C26.1172 15.8155 25.9815 15.6851 25.8055 15.7211C25.788 15.7807 25.7705 15.8397 25.7524 15.8994C25.8787 15.9606 26.0049 16.0237 26.1305 16.0878C26.0876 16.373 26.04 16.668 25.9674 17.0235C25.9039 17.0359 25.8402 17.0486 25.7765 17.0614C25.8357 17.073 25.8955 17.084 25.9547 17.0956C25.9091 17.3631 25.8605 17.6616 25.712 18.1337C25.5884 18.4952 25.5396 18.5848 25.4768 18.7292C25.4183 18.858 25.364 18.9677 25.3111 19.0707C25.2059 19.2751 25.1046 19.4547 25.0001 19.627C24.9858 19.8496 25.6326 18.9028 25.7221 18.6546C25.7659 18.56 25.8076 18.4806 25.9054 18.1982C26.2135 17.2528 26.1968 16.6155 26.3986 16.6176C26.2746 16.3596 26.3782 15.7648 26.5844 15.6048C26.548 15.8787 26.5083 16.1616 26.4567 16.4709C26.5295 16.4702 26.6026 16.4682 26.6755 16.4671C26.3311 16.8336 26.3497 16.8577 26.5149 17.4484C26.4201 17.4293 26.3252 17.4106 26.2304 17.3915C26.3526 17.6111 26.2339 17.9079 26.0685 18.2526C25.9 18.6595 25.8327 18.7188 25.7891 18.8418C25.7511 18.945 25.7617 19.0166 25.8536 19.0707C25.7042 19.2963 25.5667 19.4708 25.4287 19.6359C25.2292 20.0223 25.9011 19.7046 24.8003 20.9585C24.7228 21.0393 24.6557 20.9554 24.555 21.0862C24.5513 21.091 24.5464 21.101 24.5411 21.114C24.5033 21.2062 24.4035 21.502 24.1036 21.7892C24.05 21.8401 23.9809 21.7793 23.9202 21.8234C23.7791 21.9269 23.6734 22.2779 23.5738 21.9637C23.0653 22.3237 23.4182 22.3226 23.3449 22.5213C23.2967 22.6509 23.1987 22.5038 23.1477 22.6023C23.0875 22.7205 23.2666 22.8017 22.8442 23.0562C22.8775 23.0122 22.9117 22.9681 22.9454 22.9234C22.8933 22.905 22.8405 22.8865 22.7886 22.8678C22.6544 23.1327 22.5663 22.9856 22.6419 23.2737C22.4162 23.3053 22.2832 23.4023 22.1007 23.5784C21.9536 23.7203 21.935 23.8141 21.9123 23.8794C21.8221 24.0165 21.7034 24.1156 21.2497 24.1575C21.1952 24.2635 21.1485 24.3626 21.1068 24.4585C20.9245 24.4445 20.932 24.2638 20.7515 24.3535C21.0386 24.5017 20.6452 24.6486 20.7477 24.8884C20.7075 24.8425 20.6666 24.7964 20.6264 24.7506C20.5948 24.7729 20.5632 24.7959 20.5328 24.8176C20.5609 24.8573 20.5894 24.8967 20.6175 24.9364C20.6109 24.9363 20.6039 24.9365 20.5973 24.9364C20.5776 24.9105 20.5547 24.8866 20.5252 24.8682C20.5461 24.9128 20.5634 24.9604 20.577 25.011C20.4873 24.9523 20.3813 24.907 20.2584 24.8757C20.2171 24.9002 20.1692 24.9305 20.1143 24.9655C20.1753 25.0091 20.2363 25.0526 20.2963 25.097C20.2211 25.1265 20.1341 25.1655 20.0359 25.2108C20.1964 25.235 20.2563 25.3736 19.9347 25.6053C19.6443 25.8016 19.8586 25.3736 19.2393 25.8873C19.1955 25.9151 19.1976 26.1535 18.5147 26.5081C18.2375 26.6465 18.1051 26.6874 18.0355 26.6991C17.547 26.8469 18.0378 26.6118 17.7029 26.7244C17.5752 26.7745 16.9459 27.0264 16.6143 27.0746C16.4081 27.1102 16.2456 27.0508 16.2223 27.0531C16.1232 27.0646 16.0997 27.1684 15.9719 27.1796C15.6467 27.2066 15.2984 27.1528 15.0704 27.1492C14.9649 27.1477 14.8674 27.2028 14.8238 27.2011C14.7539 27.1979 14.6759 27.1007 14.6088 27.0961C14.3672 27.082 13.9903 27.3475 13.9412 26.914C13.6809 27.2776 13.3335 26.7508 13.3267 27.0139C13.3183 27.011 13.3091 27.0079 13.3001 27.0051C12.7536 26.8491 11.4217 26.8606 11.5603 26.4437C11.1948 26.7415 11.2833 26.4814 11.167 26.4576C11.0368 26.4302 11.0844 26.5183 10.9824 26.4879C10.7441 26.4164 10.5232 26.3212 10.2844 26.2477C10.3394 26.2014 10.3945 26.1553 10.4488 26.1086C10.2747 26.0423 10.248 26.1044 10.1504 26.1263C10.1153 26.1361 10.0699 26.1394 10.0024 26.1263C9.56372 26.0387 9.77582 25.9878 9.7622 25.8178C9.73467 25.9703 9.2248 25.7761 9.17423 25.7356C9.14561 25.7123 9.35382 25.5773 9.00606 25.5206C9.00357 25.584 9.00077 25.6481 8.99848 25.7115C8.87889 25.5825 8.41766 25.5189 8.34729 25.4675C8.3151 25.4406 8.32014 24.9236 7.99703 25.2032C7.99962 25.1385 8.00285 25.0731 8.00588 25.0085C7.78316 24.9911 7.54959 24.9645 7.29906 24.9213C7.3127 24.8066 7.32728 24.6919 7.34205 24.5773C7.27374 24.5425 7.20365 24.5057 7.13215 24.4673C7.13424 24.5783 7.13522 24.6892 7.13847 24.7999C7.07207 24.7577 6.99978 24.7168 6.92478 24.676C6.65531 24.5303 6.3376 24.4197 6.42153 24.1499C6.3232 24.162 6.22445 24.1737 6.12312 24.1828C6.1342 24.0628 6.14524 23.9424 6.15726 23.8225C5.82145 23.6446 5.776 23.6987 5.47951 23.6391C5.53605 23.5755 5.59271 23.512 5.64895 23.4482C5.4143 23.4339 5.02893 23.2981 4.7436 23.0903C4.61037 22.9952 4.45473 22.7121 4.41358 22.687C4.38078 22.677 3.72425 22.6949 3.95965 22.3658C3.66775 22.1921 3.47021 21.9785 3.32995 21.7804C3.24226 21.6416 3.20851 21.5167 3.13775 21.4289C3.05226 21.3224 2.93896 21.3286 2.83808 21.2076C2.69324 21.0334 2.60232 20.8182 2.5245 20.7119C2.47944 20.651 2.39387 20.6904 2.36265 20.6474C2.21737 20.4451 2.37447 20.5188 2.23241 20.2984C2.21927 20.2787 2.02138 20.1707 1.92641 19.9697C1.87193 19.8577 1.83713 19.5134 1.82525 19.4879C1.7683 19.3765 1.57708 19.5789 1.65961 19.0593C1.62087 19.0908 1.58314 19.1236 1.54455 19.1554C1.24146 18.754 1.35064 18.5701 1.35614 18.4625C1.35773 18.4522 1.35796 18.4425 1.35614 18.4334C1.35366 18.4236 1.23506 18.3467 1.21705 18.2639C1.18751 18.126 1.2728 18.0205 1.26637 17.9858C1.24442 17.8757 1.03942 17.3835 1.08176 17.0096C0.930654 17.081 0.759582 16.8037 0.69863 16.5051C0.635599 16.2031 0.682724 15.9163 0.861744 15.8147C0.78093 15.6683 0.703019 15.5325 0.627821 15.4037C0.687343 15.3428 0.747107 15.2868 0.807373 15.2305C0.746974 15.1978 0.686752 15.166 0.626557 15.1332C0.697783 15.0406 0.769043 14.9537 0.841513 14.8689C0.903995 14.8153 0.967415 14.7605 1.02992 14.7045C0.896634 14.6951 0.762366 14.6849 0.629085 14.6754C0.644712 14.6416 0.661501 14.6069 0.677135 14.573C0.783286 14.5475 0.889622 14.5223 0.995776 14.4971C0.976145 14.4535 0.955949 14.4096 0.936347 14.3656C0.860069 14.3538 0.783761 14.3419 0.707481 14.3302C0.622705 14.0936 1.35135 14.2286 0.716332 13.7638C0.778116 13.6937 0.840266 13.6239 0.902207 13.5539C0.609587 13.4669 0.790467 13.3184 0.760588 13.1935C0.739223 13.1058 0.62322 13.1067 0.624028 12.9861C0.625339 12.8657 0.736834 12.8728 0.737828 12.8635C0.747684 12.7649 0.651274 12.6857 0.673341 12.6118C0.676676 12.6007 0.810084 12.5778 0.822546 12.4829C0.834742 12.3872 0.696677 12.3229 0.730241 12.1756C0.747534 12.1003 0.859161 12.0828 0.873124 12.015C0.909884 11.8322 0.7574 11.6248 0.741621 11.4119C0.725877 11.2844 0.792628 11.1631 1.0982 11.0793C1.01735 11.0221 0.767102 10.5423 0.820017 10.303C0.901022 9.94435 1.01167 10.1021 1.06026 9.9565C1.06907 9.93326 1.03949 9.81667 1.12601 9.46084C1.14198 9.39684 1.06543 9.39448 1.06658 9.38497C1.152 8.96673 1.51572 8.05651 1.76456 7.59324C1.78373 7.55677 1.71411 7.24337 2.11102 7.03815C2.12204 7.03355 2.13458 7.0286 2.14642 7.02424C2.21995 6.47184 3.06244 6.01782 3.19845 5.37161C3.24621 5.30264 3.3688 5.27223 3.39064 5.24263C3.58008 4.99122 3.33107 4.91336 4.07092 4.61926C3.94797 4.58104 3.99192 4.38503 4.17587 4.22096C4.45512 3.97661 4.40761 4.3123 4.61463 4.10083C4.5745 4.05585 4.53463 4.01052 4.49451 3.96554C4.90068 3.74723 5.02642 3.55882 5.22662 3.32699C5.24832 3.26761 5.27285 3.20925 5.3518 3.14618C5.42507 3.08849 5.7029 3.03641 5.74758 3.00203C5.7562 2.99411 5.86124 2.72726 5.88667 2.70741C6.00231 2.61458 6.11569 2.61396 6.22933 2.53418C6.39017 2.4213 6.55219 2.27551 6.68706 2.17634C6.81549 2.07552 6.92758 2.03227 6.99432 2.22313C7.03497 2.11351 7.07918 2.00267 7.12709 1.89058C7.62654 2.02376 7.66452 1.43452 7.90852 1.71103C7.94104 1.61154 7.97547 1.51069 8.01347 1.41009C8.99727 0.946974 10.3825 0.495969 11.8738 0.479451C12.3631 0.48003 12.8693 0.483456 13.443 0.50474ZM13.0637 4.21337C12.9464 4.40414 12.4163 4.44708 11.9978 4.4612C11.8106 4.46687 11.6407 4.48024 11.5198 4.49281C11.3783 4.50825 11.3859 4.40057 11.3377 4.4081C11.3077 4.41574 11.339 4.54103 10.9761 4.59903C10.7946 4.63122 10.7194 4.54934 10.6309 4.58006C10.5833 4.59734 10.6217 4.68996 10.555 4.71283C10.1671 4.84608 9.85693 4.95452 9.51184 5.11492C9.41653 5.15971 9.37571 5.08859 9.35505 5.09975C9.27939 5.14555 9.21672 5.34278 9.03388 5.45253C8.97152 5.48985 8.89671 5.53471 8.8164 5.58403C8.47042 5.79003 8.05826 6.11459 7.87312 6.19223C7.83677 6.20818 7.74928 6.14903 7.72897 6.16694C7.69846 6.19479 7.75091 6.28709 7.74541 6.29213C7.63869 6.37749 7.64339 6.24983 7.58609 6.32374C7.56945 6.34543 7.57223 6.39342 7.56333 6.44512C7.54968 6.49254 7.52738 6.5428 7.48114 6.58674C7.34696 6.71572 7.28632 6.584 7.23457 6.64491C7.23008 6.65236 7.29127 6.73009 7.23583 6.78147C7.02241 6.97609 6.74188 7.28028 6.56188 7.47818C6.50986 7.53474 6.42135 7.53264 6.34946 7.61348C6.18463 7.76298 5.50759 8.79663 5.44032 8.88425C5.4314 8.89025 5.37201 8.74358 5.29364 8.85137C5.28753 8.85998 5.28095 8.86997 5.27467 8.88172C5.30007 8.9603 5.32581 9.03914 5.35433 9.11564C5.22582 9.15246 5.09632 9.19587 4.96741 9.24588C5.26473 9.38526 5.12523 9.89654 4.80556 9.79465C4.77319 9.85018 4.74102 9.90641 4.71073 9.96282C4.90545 10.149 4.79894 10.2083 4.88902 10.4635C4.81075 10.4843 4.73189 10.5065 4.65383 10.5293C4.69986 10.5469 4.74678 10.5639 4.79292 10.5811C4.51439 10.6573 4.73905 10.8904 4.74234 10.915C4.73616 11.004 4.66282 11.0623 4.66015 11.1034C4.64839 11.2557 4.70638 11.5725 4.65636 11.7394C4.65528 11.7431 4.65501 11.7472 4.65383 11.7508C4.65036 11.7588 4.53901 11.7409 4.52106 11.7912C4.48906 11.8818 4.65284 11.9019 4.45278 12.01C4.49946 12.0369 4.54637 12.0639 4.59313 12.0909C4.5666 12.1148 4.53993 12.1388 4.51347 12.163C4.51802 12.3133 4.52415 12.4612 4.53118 12.6081C4.34688 12.4665 4.23382 12.6181 4.37818 12.7686C4.42714 12.8194 4.54435 12.7796 4.56152 12.7965C4.58341 12.8204 4.50622 13.4699 4.43129 13.5109C4.46692 13.5423 4.50309 13.573 4.53876 13.6044C4.46556 13.6184 4.39194 13.6334 4.31875 13.6474C4.34389 13.6649 4.36947 13.6818 4.39462 13.6993C4.26291 13.8657 4.54946 14.306 4.52612 14.3846C4.51312 14.4265 4.20254 14.3848 4.2315 14.5869C4.31658 14.5951 4.40184 14.6028 4.48692 14.6109C4.49852 14.657 4.51071 14.7045 4.52233 14.75C4.51667 14.8048 4.45447 14.8737 4.3845 14.9169C4.34364 14.9452 4.30034 14.9649 4.26311 14.9662C4.32327 14.9959 4.3836 15.0251 4.44393 15.0548C4.24427 15.1281 4.31987 15.57 4.4629 15.754C4.40771 15.8142 4.35262 15.8766 4.29978 15.9424C4.38048 16.0141 4.46433 16.0867 4.54888 16.1548C4.60212 16.3364 4.44944 16.1605 4.44646 16.2016C4.4349 16.2984 4.74191 16.6758 4.49451 16.7162C4.51134 16.7743 4.52869 16.8307 4.54635 16.8844C4.62424 16.8888 4.70175 16.8907 4.77901 16.892C4.66103 16.9892 4.65707 17.0717 4.67785 17.1765C4.69568 17.2601 4.72999 17.3606 4.74866 17.5002C4.812 17.5019 4.87532 17.5024 4.93833 17.5027C4.90332 17.6246 4.87036 17.7479 4.84097 17.8732C4.93539 17.8493 5.03021 17.8249 5.1242 17.7999C5.15506 17.8309 5.18656 17.8619 5.21777 17.8922C5.06796 18.0668 5.34342 18.0907 5.30502 18.1994C5.25032 18.3609 5.07271 18.3644 4.94212 18.1868C4.80853 18.2778 5.20156 18.8076 5.29743 18.9189C5.31714 18.8941 5.33706 18.869 5.35686 18.8443C5.25376 18.7318 5.15431 18.6159 5.05592 18.4966C5.32878 18.1921 5.4431 18.5901 5.58826 18.7128C5.60206 18.7239 5.77545 18.7209 5.8677 18.8747C5.90178 18.9342 5.89232 19.284 5.91701 19.3337C5.99263 19.4954 6.04779 19.5179 6.08645 19.5208C6.15091 19.5315 6.16984 19.4987 6.25209 19.8217C6.33237 19.604 6.40077 19.9315 6.63269 20.0809C6.67374 20.1115 7.06838 20.219 7.08916 20.2264C7.22623 20.2974 6.98315 20.3444 7.18905 20.4388C7.23891 20.4158 7.28774 20.3917 7.33699 20.368C7.37792 20.3976 7.41887 20.4267 7.45964 20.4552C7.46527 20.9822 7.70561 20.7572 7.81369 20.7789C7.85847 20.788 7.75191 20.8538 7.85794 20.8927C7.89835 20.9076 7.98682 20.8523 8.08428 20.9041C8.38674 21.0632 8.29479 21.4704 8.76961 21.2582C8.77175 21.2707 8.77375 21.2836 8.77593 21.2961C8.79051 21.3612 8.80651 21.427 8.82272 21.4921C8.88842 21.4451 8.95244 21.3965 9.01618 21.3479C9.16153 21.6534 9.17041 21.4184 9.2539 21.4605C9.47626 21.5747 9.91691 21.7944 9.89624 21.97C10.2306 21.6739 10.3032 22.1741 10.3868 22.1875C10.4481 22.1579 10.5096 22.128 10.5702 22.0977C10.6072 22.1617 10.6438 22.2262 10.6815 22.2899C10.7787 21.9145 10.9288 22.3582 10.9558 22.3785C10.9726 22.3875 11.1371 22.4007 11.2998 22.4177C11.4177 22.4308 11.5359 22.4456 11.602 22.4657C11.761 22.5152 12.0141 22.693 12.0395 22.6996C12.0685 22.7075 12.3704 22.6765 12.5857 22.7274C12.7696 22.7824 13.8825 23.1426 13.8426 22.9525C13.7748 22.8932 13.6756 22.8341 13.5884 22.7957C13.3264 22.6984 11.8965 22.2857 11.4047 22.0813C11.3743 22.0697 11.3468 22.0586 11.3238 22.0497C10.548 21.7459 9.71262 21.4794 8.92893 21.0154C8.92503 21.013 8.92144 21.0102 8.91755 21.0078C8.87465 20.9817 8.91653 20.8901 8.88088 20.8674C8.82544 20.8335 8.63262 20.8401 8.57741 20.8055C8.37386 20.6787 8.13057 20.5106 8.02232 20.4375C7.77931 20.2753 7.64879 20.1089 7.47481 19.9671C7.42145 19.925 7.05681 19.8019 6.90202 19.5828C6.88744 19.5305 6.87239 19.4777 6.85903 19.4247C6.97667 19.4978 7.28389 19.6514 7.40906 19.7345C7.59431 19.8616 7.64166 19.9947 7.71 20.0417C7.76884 20.083 8.10883 20.2 8.24234 20.2795C8.28406 20.3051 8.23674 20.3992 8.27268 20.4211C8.46786 20.5393 8.7281 20.6867 8.94916 20.6904C8.91163 20.6864 8.96626 20.7416 9.044 20.8055C9.14853 20.8906 9.2932 20.985 9.307 20.9914C9.34915 21.0107 9.43697 20.9439 9.52069 20.9825C9.68235 21.056 9.58133 21.239 9.86715 21.1342C9.89459 21.211 9.92297 21.2878 9.95187 21.3644C10.0549 21.1121 10.5727 21.7069 10.8673 21.4478C10.8771 21.4154 10.0892 21.0152 10.0265 20.9762C9.78636 20.8567 9.46075 20.7335 9.16791 20.5791C8.98587 20.4835 8.81504 20.3841 8.68363 20.2845C8.57968 20.208 8.33259 19.8567 8.30682 19.8407C8.26392 19.8184 8.24774 19.9218 8.22843 19.914C7.83081 19.7346 8.11879 19.6931 8.10325 19.6156C8.09375 19.5638 7.90778 19.5675 7.89461 19.5575C7.87143 19.54 7.91055 19.5009 7.91864 19.4892C7.75881 19.3827 7.80011 19.6247 7.66195 19.5663C7.63674 19.5568 7.42287 19.2792 7.31929 19.1895C7.15384 19.0543 7.01903 18.8867 6.96651 18.8266C6.96193 18.8215 6.95667 18.8166 6.95133 18.8114C6.85225 18.7165 6.61545 18.6009 6.48728 18.4308C6.43206 18.3571 6.49691 18.2721 6.44429 18.1982C6.21063 17.8784 5.82281 17.333 5.60469 16.8187C5.49886 16.5801 5.4216 16.3383 5.40744 16.1599C5.39507 16.0225 5.51069 15.8814 5.49342 15.816C5.43922 15.7681 5.38535 15.7166 5.33284 15.6655C5.75888 15.4712 5.36986 15.4441 5.32525 15.2609C5.29801 15.1466 5.42804 15.0934 5.42767 15.0788C5.42627 15.0161 5.4023 14.9745 5.38215 14.9308C5.36985 14.9057 5.35911 14.8801 5.3556 14.8499C5.34546 14.7621 5.40494 14.6367 5.3948 14.6046C5.38612 14.586 5.21475 14.6427 5.22283 14.3037C5.23148 13.9561 5.25604 13.6111 5.27341 13.2567C4.74979 13.3617 5.10322 13.4747 5.11915 13.6196C5.12273 13.6578 5.04246 13.6321 5.04454 13.6651C5.05237 13.761 5.12984 13.9456 5.10903 14.0242C5.08636 14.1092 4.89639 14.077 4.96488 14.1861C4.96844 14.1916 5.0479 14.176 5.06098 14.2013C5.18801 14.4593 5.04908 14.5415 5.04075 14.8638C5.04034 14.8795 5.03927 14.9006 5.03949 14.9258C5.04144 15.098 5.05364 15.4723 5.10144 15.8311C5.14487 16.1904 5.25306 16.5124 5.238 16.5418C5.15142 16.7125 4.96057 16.4214 4.87258 16.0183C4.78434 15.6231 4.79476 15.2178 4.8043 15.1319C4.81199 15.0721 4.89997 15.1331 4.91683 15.08C4.91901 15.0671 4.87606 15.0072 4.83338 14.9233C4.79346 14.8498 4.75281 14.7565 4.7474 14.664C4.7336 14.4318 4.85422 13.9639 4.85488 13.741C4.85742 13.0863 4.87491 12.4407 4.93833 11.7634C5.01811 10.9277 5.16171 9.91257 5.68183 9.07265C5.90534 8.69568 6.15587 8.34471 6.42912 8.01051C6.4563 7.9767 6.41708 7.86791 6.5113 7.75889C6.86544 7.35172 7.26456 6.97469 7.71253 6.64491C8.06675 6.39049 8.45117 6.04388 8.92514 5.75979C9.78782 5.2323 10.832 4.7112 12.0041 4.67995C12.5511 4.66297 13.0977 4.64627 13.6618 4.65087C13.8693 4.65341 14.0775 4.6466 14.3092 4.65846C14.6496 4.67668 14.982 4.66892 15.4219 4.81146C15.5265 4.76119 15.6445 4.71745 15.7822 4.69133C15.4689 4.6312 15.1244 4.42978 15.0893 4.41948C15.0772 4.4171 14.9897 4.48818 14.8782 4.47132C14.7218 4.44774 14.6638 4.37028 14.6518 4.3689C14.6147 4.36544 14.6311 4.44267 14.5949 4.43844C14.5023 4.42741 14.4189 4.41937 14.3382 4.41315C14.1426 4.39703 13.9805 4.39839 13.8034 4.39166C13.4999 4.38154 13.351 4.23979 13.137 4.39419C13.1129 4.33392 13.088 4.27357 13.0637 4.21337ZM6.55809 22.2634C6.13759 22.5524 6.70692 22.3945 6.73132 22.8501C6.8086 22.5634 7.13955 22.7791 7.16882 22.773C7.17895 22.6673 7.19046 22.5622 7.20169 22.4568C7.01171 22.4549 6.81753 22.4481 6.61878 22.4341C6.59799 22.3772 6.57872 22.3208 6.55809 22.2634ZM16.6901 22.8286C16.7766 22.7926 16.8633 22.7545 16.9493 22.7123C16.9222 22.6695 16.8251 22.7171 16.7748 22.7022C16.7191 22.685 16.7093 22.6179 16.6269 22.6225C16.6482 22.6911 16.6696 22.7597 16.6901 22.8286ZM12.0711 21.9688C12.1042 22.0742 12.1386 22.1796 12.1735 22.2849C12.1888 22.1636 12.2044 22.0419 12.2203 21.9207C12.1707 21.9366 12.121 21.9533 12.0711 21.9688ZM3.64733 18.8911C3.44722 18.7596 3.43859 19.1585 3.32616 19.2161C3.43993 19.3563 3.70626 19.6535 3.80538 19.7952C3.86175 19.8752 3.60912 19.9163 4.06839 20.1176C4.07239 20.2288 4.07791 20.3401 4.08483 20.4514C4.266 20.532 4.44626 20.6059 4.62601 20.6727C4.60822 20.7026 4.5907 20.7327 4.5729 20.7625C4.55138 20.8178 4.53005 20.8733 4.50968 20.9294C4.52209 20.9736 5.03442 21.2405 5.05592 21.1658C5.08591 21.4269 5.36619 21.7242 5.65148 21.9574C5.70766 21.9433 5.76405 21.9294 5.81965 21.9144C5.47967 21.7734 5.76092 21.8057 5.73367 21.6716C5.71724 21.5936 5.63595 21.3963 5.63251 21.291C5.63332 21.5666 5.0349 21.1112 4.7082 20.6512C4.6816 20.6124 4.65788 20.5757 4.64118 20.545C4.60725 20.4821 4.63254 20.3053 4.58934 20.2744C4.53293 20.2798 4.47557 20.2828 4.41864 20.2871C4.52661 20.1605 4.04424 19.8098 3.84585 19.6574C3.88503 19.6066 3.92516 19.5561 3.9647 19.5056C3.90007 19.4483 3.83519 19.3899 3.77124 19.3299C3.82833 19.3079 3.8862 19.2863 3.94321 19.2641C3.84895 19.2482 3.75344 19.23 3.65871 19.211C3.46405 19.0315 3.82704 19.0058 3.64733 18.8911ZM24.1428 21.3897C23.8828 21.602 23.5179 21.8487 23.742 21.9536C23.8651 21.8167 23.9915 21.6726 24.1226 21.5161C24.1293 21.474 24.1359 21.4323 24.1428 21.3897ZM16.3196 21.6438C16.1823 21.6534 16.121 21.6692 16.0819 21.6969C16.0409 21.7318 16.0463 21.8312 15.7999 21.8499C15.7934 21.9132 16.0085 21.9008 16.1312 21.8234C16.2362 21.7619 16.3178 21.6867 16.3196 21.6438ZM18.2492 20.9117C18.31 20.9723 18.3707 21.033 18.4313 21.0938C18.4446 20.9814 18.4592 20.8688 18.473 20.7562C18.3982 20.8081 18.3235 20.8599 18.2492 20.9117ZM15.7936 20.8118C15.8063 20.838 15.8213 20.8685 15.8189 20.8725C15.8063 20.8893 15.7886 20.8966 15.7696 20.8978C15.7995 20.8761 15.8007 20.8426 15.7936 20.8118ZM15.7772 20.7701C15.783 20.7823 15.7901 20.7962 15.7936 20.8118C15.7839 20.7918 15.7751 20.7739 15.7772 20.7713V20.7701ZM19.0938 20.4198C19.0665 20.3845 18.9409 20.4819 18.913 20.4805L18.8903 20.4388C18.8782 20.4201 18.8583 20.4056 18.8232 20.4186C18.7733 20.4934 18.7224 20.5675 18.6715 20.6411C18.7745 20.8094 19.1376 20.4884 19.0938 20.4198ZM19.243 20.0898C19.2197 20.0825 19.0336 20.2416 19.0306 20.2605C19.0304 20.2682 19.03 20.2755 19.0306 20.282C19.0336 20.3204 19.0519 20.3381 19.0774 20.3402C19.1741 20.3501 19.3736 20.1387 19.243 20.0898ZM15.6305 20.0658C15.635 20.0807 15.6404 20.095 15.6457 20.1062C15.6251 20.097 15.5773 20.0941 15.4674 20.1214C15.4815 20.1088 15.4945 20.0985 15.5091 20.0923C15.5414 20.0799 15.5876 20.0734 15.6305 20.0658ZM24.0834 19.302C23.9364 19.2191 23.7819 19.3399 23.7344 19.6055C23.7806 19.6253 23.827 19.6456 23.8735 19.6649C23.833 19.4755 24.1326 19.4983 24.3312 19.12C24.2592 19.0753 24.187 19.0306 24.115 18.9859C24.106 19.092 24.0953 19.1973 24.0834 19.302ZM5.3733 16.9072C5.3835 16.9157 5.39343 16.9253 5.40365 16.9337C5.68478 17.7013 6.11226 18.4745 6.65798 19.0517C6.70902 19.1066 6.76244 19.1574 6.81604 19.2059C6.80293 19.2788 6.79134 19.3527 6.7819 19.4272C6.69748 19.3412 6.61461 19.2504 6.53533 19.1528C6.00382 18.4974 5.55503 17.7606 5.24812 16.9552C5.22065 16.883 5.193 16.8082 5.16593 16.7302C5.23492 16.7938 5.30464 16.8514 5.3733 16.9072ZM15.6432 18.7596C15.3995 18.772 15.5599 19.0369 15.5875 19.0365C15.7541 19.0232 15.7732 18.7512 15.6432 18.7596ZM20.2255 18.7242C20.0122 18.7817 20.264 19.1888 20.3052 18.8734C20.306 18.8636 20.2375 18.728 20.2255 18.7242ZM16.4246 17.9263C16.4699 18.0805 16.474 18.3123 16.6648 18.3664C16.7002 18.3757 16.7845 18.3358 16.8292 18.3524C16.8704 18.0763 16.6944 17.9431 16.4246 17.9263ZM20.0333 17.7923C19.8929 17.9541 19.7395 18.1165 19.5794 18.2778C19.5613 18.2454 19.5433 18.2129 19.525 18.1805C19.6775 18.0258 19.823 17.8705 19.9562 17.7164C19.9819 17.7417 20.0077 17.767 20.0333 17.7923ZM15.4333 17.7809L15.432 17.7796L15.4295 17.7809C15.4087 17.7816 15.3779 17.7808 15.3321 17.786C15.3412 17.7861 15.3501 17.7885 15.3587 17.7885C15.3851 17.7888 15.4091 17.7831 15.4282 17.7822C15.0131 18.1694 15.0533 18.2521 15.1032 18.2589C15.1635 18.2607 15.325 18.1327 15.4257 17.9491C15.4645 17.8777 15.4712 17.8156 15.4333 17.7822C15.4642 17.7804 15.4794 17.7818 15.4661 17.7796C15.4602 17.7791 15.4505 17.7804 15.4333 17.7809ZM16.9873 17.8859C16.8603 18.0917 17.1533 17.9916 17.1554 18.1678C17.1832 18.1325 17.2075 18.0999 17.2225 18.073C17.1465 18.0094 17.0679 17.9467 16.9873 17.8859ZM12.262 18.0629C12.3141 18.0748 12.3671 18.0865 12.4201 18.0983C12.4526 18.0376 12.4851 17.9769 12.5174 17.9162C12.4322 17.9654 12.3469 18.0141 12.262 18.0629ZM2.58392 17.5571C2.67968 17.728 2.73319 17.8417 2.77865 17.9124C2.85206 18.0345 2.9144 18.072 3.04418 17.9567L2.98602 17.8315C2.93107 17.7153 2.8678 17.5742 2.80015 17.399C2.72824 17.4516 2.65538 17.5042 2.58392 17.5571ZM17.1807 17.5584C17.1643 17.5587 17.0406 17.6145 16.938 17.6684C16.9177 17.6651 16.8779 17.6829 16.8785 17.6949C16.9286 17.748 16.9791 17.8011 17.029 17.8543C17.0089 17.7938 17.0042 17.763 17.0062 17.7531C17.0944 17.6556 17.318 17.7468 17.3312 17.6595C17.3346 17.6347 17.2252 17.5577 17.1807 17.5584ZM15.4333 17.7822H15.4282L15.4295 17.7809H15.4333V17.7822ZM24.4551 17.3308C24.4347 17.4106 24.4108 17.4965 24.3818 17.59C24.4438 17.6422 24.5048 17.6965 24.5651 17.7518C24.5677 17.7572 24.5701 17.7629 24.5727 17.7683C24.5741 17.7643 24.5763 17.7597 24.5778 17.7556C24.6394 17.5881 24.6847 17.4416 24.7219 17.3118C24.633 17.3195 24.5442 17.3241 24.4551 17.3308ZM9.75841 16.4962C9.73933 16.5158 9.72073 16.5362 9.70151 16.5557C9.69964 16.5565 9.69706 16.5573 9.69519 16.5582L9.69645 16.5595C9.65109 16.5601 9.62567 16.587 9.61553 16.6265C9.5512 16.6915 9.48659 16.7564 9.42207 16.8212C9.4286 16.7931 9.43881 16.768 9.45494 16.7491C9.42343 16.7764 9.39176 16.8042 9.36011 16.8313C9.28272 16.901 9.21734 16.984 9.16159 17.0753C9.20864 17.0708 9.26137 17.0701 9.31838 17.0716C9.33499 17.0222 9.35418 16.9746 9.37528 16.9287C9.47677 16.9496 9.31674 17.1034 9.3462 17.2372C9.42925 17.1951 9.51322 17.1528 9.59656 17.1095C9.59236 17.2127 9.59391 17.3192 9.60162 17.4281C9.72033 17.4618 9.76562 17.4129 9.75588 17.289C9.86414 17.2302 9.82076 17.4105 9.90762 17.413C9.91589 17.4099 9.96205 17.3189 9.96705 17.3207C10.3229 17.4642 10.181 17.6896 10.2275 17.7341C10.2642 17.7655 10.5224 17.6993 10.5563 17.6456C10.5973 17.5715 10.4369 17.1134 10.9293 17.3636C10.9343 17.3659 10.94 17.3684 10.9457 17.3712C10.9447 17.3604 10.9432 17.3503 10.9419 17.3409C10.7626 17.0291 10.3934 17.0744 10.4083 17.4635C10.3354 17.3846 9.95365 17.2435 9.93923 17.2208C9.91814 17.1882 9.99902 17.0866 9.96578 17.0602C9.94458 17.0516 9.71326 17.2416 9.7268 16.935C9.68081 16.9608 9.63489 16.9867 9.58897 17.0121C9.59799 16.9689 9.60805 16.9262 9.61932 16.8844C9.73621 16.7961 9.85188 16.7049 9.96705 16.6138C9.77677 16.6395 9.85969 16.4357 9.75841 16.4962ZM22.4257 17.0387C22.3388 17.3225 22.2811 17.4916 22.0552 17.6481C22.0797 17.3513 22.3031 17.3331 22.2777 16.9894C22.2742 16.971 22.27 16.9513 22.2638 16.9312L22.4674 16.8781C22.4528 16.9304 22.4394 16.9853 22.4257 17.0387ZM20.6554 17.4673C20.6404 17.2347 20.812 16.9528 21.0095 17.2258C20.7828 17.2992 20.812 17.4709 20.5707 17.6317C20.55 17.5622 20.5283 17.4933 20.505 17.4256L20.6554 17.4673ZM16.6648 17.327C16.6435 17.3046 16.6318 17.3632 16.704 17.461C16.7445 17.4686 16.779 17.4803 16.8027 17.5002C16.8395 17.4941 16.8763 17.4883 16.9127 17.4825C16.8722 17.4598 16.7954 17.3343 16.771 17.327C16.7325 17.3173 16.6956 17.3176 16.6648 17.327ZM23.5308 15.8172C23.3563 16.0599 23.4543 16.4579 23.4208 16.6037C23.4087 16.6584 23.308 16.6505 23.2981 16.6935C23.2485 16.9278 23.3674 17.2968 23.0617 17.2498C23.0549 17.2494 23.0472 17.2496 23.0402 17.2486L23.0427 17.2448C23.2317 16.9695 23.0466 16.7146 23.0731 16.6808C23.0948 16.6561 23.4538 16.5064 23.1843 16.2497C23.3029 16.1058 23.4174 15.961 23.5308 15.8172ZM2.71163 16.9653C2.76401 16.7865 2.38694 16.3889 2.42713 16.6922C2.46237 16.9327 2.68263 17.0652 2.71163 16.9653ZM21.3888 16.6935C21.4315 16.7193 21.4102 16.8697 21.337 16.8844C21.2557 16.9023 21.2825 16.7794 21.2915 16.7491C21.3096 16.6955 21.3209 16.6708 21.3281 16.6733C21.3499 16.6471 21.3732 16.661 21.3888 16.6935ZM9.91015 16.7302C9.90171 16.7764 9.89363 16.8231 9.88738 16.8705C9.94816 16.8538 10.0107 16.8378 10.0733 16.8212C10.0744 16.7793 10.0766 16.737 10.0796 16.696C10.0221 16.7071 9.9652 16.7185 9.91015 16.7302ZM17.2541 16.7807C17.5227 16.989 17.4082 16.6641 17.684 16.7871C17.722 16.7572 17.7596 16.7267 17.7965 16.6973C17.7381 16.6285 17.6792 16.56 17.6208 16.4912C17.5045 16.5855 17.3813 16.6816 17.2541 16.7807ZM21.1511 16.5847C21.24 16.5342 21.2626 16.5828 21.2497 16.6467C21.2507 16.6864 21.0993 16.8694 21.0929 16.7213C21.0926 16.715 21.1436 16.5981 21.1397 16.61C21.145 16.5966 21.149 16.5861 21.1511 16.5847ZM19.9524 16.581C19.9397 16.5801 19.8447 16.5066 19.807 16.5367C19.7149 16.6065 19.9033 16.9362 20.0472 16.5708C20.0166 16.551 19.9855 16.53 19.9549 16.5101C19.952 16.5254 19.9562 16.5803 19.9524 16.581ZM8.96307 16.2825C8.94814 16.4084 8.9398 16.5385 8.93778 16.672C9.01675 16.6161 9.09654 16.5609 9.1755 16.5051C9.10202 16.4322 9.03048 16.3579 8.96307 16.2825ZM9.30953 15.6718C8.93047 15.9506 9.61953 16.1923 9.46127 16.586C9.53293 16.5596 9.60415 16.5318 9.67496 16.5038C9.55028 16.4511 9.6239 16.2963 9.61047 16.2408C9.59951 16.1969 9.5394 16.2441 9.5384 16.2408L9.52575 16.1713C9.52361 16.1075 9.54368 16.0583 9.52069 16.0094C9.44705 15.8483 9.17382 15.8773 9.30953 15.6718ZM21.6139 15.9121C21.5521 16.1371 21.4835 16.3616 21.404 16.5493C21.3261 16.4911 21.2463 16.4348 21.1663 16.3799C21.2434 16.3083 21.32 16.2264 21.3951 16.1397C21.3986 16.197 21.4017 16.2534 21.404 16.3091C21.4766 16.1841 21.5468 16.0499 21.6139 15.9121ZM17.8496 16.2256C17.7132 16.2942 17.861 16.5489 18.0064 16.4178C18.0663 16.3626 17.9892 16.1554 17.8496 16.2256ZM8.97572 15.9892C8.76147 15.8884 8.75143 16.0289 8.738 16.0423C8.66325 16.0866 8.5463 16.0834 8.49396 16.1978C8.54323 16.2255 8.59309 16.2527 8.64317 16.2787C8.61269 16.3227 8.58273 16.3676 8.55339 16.4128C8.6918 16.4436 8.65203 16.3203 8.76455 16.2408C8.80939 16.2105 8.90578 16.2474 9.0225 16.0638C9.01716 16.0207 8.95415 16.0755 8.9479 16.0764C8.93672 16.0515 8.98554 15.9956 8.97572 15.9892ZM2.80647 15.1875C2.50029 15.1928 2.46963 14.9726 2.18942 15.2836C2.19561 15.3446 2.20234 15.4072 2.20965 15.4733C2.27792 15.5137 2.34692 15.5551 2.41575 15.5959C2.15363 16.0337 2.31117 16.4388 2.42966 16.4001C2.5509 16.376 2.62441 15.9204 2.44357 15.2798L2.80647 15.1875ZM10.2718 16.0878C10.2654 16.0816 10.2583 16.0766 10.2528 16.0714L10.2579 16.0688C10.2624 16.0752 10.2673 16.0816 10.2718 16.0878ZM10.2528 16.0714C10.2496 16.0734 10.2458 16.0745 10.2427 16.0764C10.1894 16.0212 10.1809 16.0031 10.2528 16.0714ZM25.1455 15.7591C25.1135 15.8353 25.0811 15.9107 25.0481 15.9879C25.0242 15.8783 24.9995 15.769 24.9735 15.6642C25.0309 15.6957 25.0882 15.7274 25.1455 15.7591ZM9.4992 15.7199C9.5752 15.7914 9.56877 16.051 9.77991 15.9095C9.71641 15.8317 9.65775 15.7534 9.60415 15.6769C9.56912 15.6911 9.53432 15.7059 9.4992 15.7199ZM3.95712 15.7945C4.00882 15.8411 4.06097 15.8878 4.11391 15.9336C4.09967 15.705 4.1694 15.4792 4.01022 15.3658C3.98899 15.4997 3.96975 15.6428 3.95712 15.7945ZM24.8521 15.5997C25.2463 15.7639 24.3245 16.0119 24.6928 15.6516C24.7301 15.615 24.814 15.5845 24.8521 15.5997ZM24.0593 15.2786C24.0277 15.3398 23.8866 15.8665 23.8317 15.7502C23.8888 15.53 23.8038 15.3991 23.9721 15.2229C24.001 15.2415 24.0305 15.2601 24.0593 15.2786ZM18.3782 15.6035C18.0803 15.4836 18.0011 15.7658 18.4616 15.7641C18.4783 15.7551 18.4961 15.7437 18.5135 15.73C18.4681 15.6916 18.4233 15.6486 18.3782 15.6035ZM18.5033 15.5403C18.4905 15.5363 18.4859 15.541 18.4844 15.5504C18.4791 15.5517 18.4744 15.5513 18.4717 15.553C18.4147 15.5926 18.4394 15.6816 18.5666 15.6781C18.5838 15.6896 18.6017 15.6966 18.6209 15.6971C18.6367 15.6809 18.6519 15.6678 18.6665 15.6566C18.6591 15.644 18.6453 15.63 18.6273 15.6162C18.6428 15.6136 18.6652 15.6205 18.7019 15.6313C18.7251 15.619 18.747 15.6131 18.7676 15.6111C18.7442 15.5838 18.6989 15.5643 18.6488 15.5542C18.6277 15.5601 18.602 15.5687 18.5704 15.5795C18.5627 15.5749 18.5559 15.5696 18.5489 15.5656C18.5532 15.5584 18.5566 15.5515 18.5602 15.5454C18.5435 15.5447 18.5281 15.5458 18.5147 15.5466C18.5086 15.5436 18.5033 15.5403 18.5033 15.5403ZM18.5489 15.5656C18.5443 15.5732 18.5404 15.582 18.535 15.5909C18.5474 15.5864 18.5594 15.5833 18.5704 15.5795C18.5894 15.5909 18.61 15.6029 18.6273 15.6162C18.5803 15.6239 18.6099 15.6766 18.5931 15.6781C18.5839 15.6792 18.5749 15.6779 18.5666 15.6781C18.5158 15.6444 18.4799 15.5774 18.4844 15.5504C18.4922 15.5486 18.5023 15.5474 18.5147 15.5466C18.5231 15.5508 18.5349 15.5578 18.5489 15.5656ZM17.904 15.6377C17.8945 15.6426 17.8877 15.6874 17.8989 15.6617C17.9016 15.6563 17.9031 15.6471 17.9065 15.6377H17.904ZM20.663 15.0358C20.6975 15.0421 20.7352 15.0475 20.7579 15.0358C20.7034 15.1035 20.6484 15.1691 20.5935 15.2343C20.6469 15.3035 20.7001 15.3726 20.7528 15.4429C20.7273 15.4608 20.7012 15.478 20.6757 15.4961C20.6669 15.467 20.658 15.439 20.6491 15.4101C20.4031 16.0524 20.3246 15.1965 20.5859 15.0295L20.663 15.0358ZM23.5523 15.6225C23.4861 15.5796 23.419 15.539 23.3525 15.4973C23.359 15.4401 23.3643 15.3814 23.3702 15.3254C23.4426 15.2967 23.5154 15.2667 23.5877 15.2381C23.5767 15.3651 23.5655 15.4936 23.5523 15.6225ZM18.0368 15.3532C18.0133 15.3875 17.9803 15.4438 17.9305 15.5403C17.9172 15.5507 17.9016 15.5604 17.8863 15.5694C17.9 15.5725 17.9143 15.5751 17.928 15.5782C17.9288 15.5758 17.9305 15.5732 17.9305 15.5732C17.9547 15.5149 18.0673 15.525 18.0696 15.5201C18.0729 15.5135 18.0426 15.4375 18.0368 15.3532ZM18.3187 15.3039C18.3145 15.3365 18.3105 15.3697 18.3061 15.4012C18.3626 15.4113 18.4191 15.4214 18.4755 15.4316C18.4928 15.4462 18.5393 15.4733 18.5881 15.4973C18.6096 15.4541 18.5752 15.491 18.559 15.4657C18.54 15.4563 18.518 15.4444 18.5033 15.4366C18.6525 15.4634 18.8018 15.4903 18.951 15.5175C18.9042 15.5004 18.8574 15.4831 18.8106 15.4657C18.8222 15.3747 18.833 15.2774 18.8435 15.1774C18.6687 15.2236 18.4934 15.2657 18.3187 15.3039ZM18.4869 15.4278C18.4888 15.4287 18.4948 15.4321 18.5033 15.4366C18.4941 15.435 18.4848 15.4332 18.4755 15.4316C18.464 15.4218 18.4651 15.419 18.4869 15.4278ZM25.1721 14.6122C25.1708 14.8294 25.1651 15.0548 25.1493 15.3064C25.147 15.3457 25.1453 15.3845 25.143 15.4227C25.1294 15.3829 25.1149 15.3422 25.1012 15.3013C25.0778 15.2086 25.0527 15.1186 25.0266 15.0333C24.9398 15.0508 24.8531 15.0677 24.7662 15.0851C24.7606 14.9942 24.7537 14.9057 24.7459 14.8196C24.7911 14.7623 25.0826 14.9704 25.1721 14.6122ZM9.6876 15.3557C9.68428 15.354 9.62367 15.3628 9.59277 15.3582C9.58527 15.3626 9.58092 15.3674 9.57886 15.3683C9.58701 15.3664 9.73207 15.3595 9.6876 15.3557ZM24.0037 13.3781C24.1518 13.6943 23.9413 13.8177 24.2869 13.8927C24.2145 13.9093 24.1419 13.9259 24.0695 13.942C23.9448 14.2547 24.1938 14.3469 24.2819 14.5338C24.2271 14.5317 24.1723 14.5284 24.1175 14.5262C24.1089 14.6475 24.0994 14.7712 24.0872 14.898C24.1239 14.8822 24.1605 14.8661 24.1972 14.8499C24.195 14.895 24.1924 14.9404 24.1896 14.9865C24.021 15.0892 23.9725 15.2267 23.8229 15.0446C23.9203 14.8406 23.843 14.5909 23.8608 14.2797C23.8636 14.2642 23.953 14.2374 23.9569 14.1873C23.9638 14.1381 23.8501 13.3183 24.0037 13.3781ZM26.5174 12.9229C26.65 12.9052 26.6376 13.1212 26.6388 13.2428C26.6624 13.2238 26.686 13.2038 26.7096 13.1846C26.6948 13.443 26.6498 13.9359 26.9069 13.956C26.9396 14.1501 26.715 14.0654 26.6894 14.1279C26.6797 14.1517 26.8087 14.4094 26.6439 14.6223C26.6431 14.6731 26.6414 14.7256 26.6401 14.7778C26.7243 14.7911 26.8088 14.8047 26.893 14.8183C26.7873 14.8902 26.6811 14.9615 26.5743 15.0333C26.5959 14.2354 26.563 13.589 26.5174 12.9242V12.9229ZM18.7651 14.8588C18.7483 14.9106 18.7315 14.9611 18.7145 15.0105C18.6557 14.9921 18.5963 14.9746 18.5375 14.9561C18.5535 14.9118 18.5698 14.8681 18.5855 14.8234C18.6453 14.8354 18.7053 14.8466 18.7651 14.8588ZM8.70512 14.5591C8.80201 14.5609 8.89906 14.5623 8.99595 14.5642C8.94753 14.5784 8.89895 14.5931 8.85054 14.6071C8.88589 14.6667 8.92139 14.7273 8.95675 14.788C8.87178 14.8163 8.78631 14.8464 8.70133 14.8752C8.79765 14.9062 8.89458 14.94 8.99089 14.9713C9.16628 14.681 8.99457 14.6905 8.99721 14.6299C8.99871 14.6 9.05924 14.5821 9.08952 14.5717C9.09463 14.5693 9.09957 14.5666 9.10469 14.5642C9.10856 14.492 8.96445 14.2393 8.90997 14.2493C8.84154 14.3518 8.77338 14.4557 8.70512 14.5591ZM23.6117 14.9536C23.5519 14.9391 23.492 14.9248 23.4322 14.9106C23.4595 14.8449 23.4856 14.7795 23.5118 14.7146C23.4778 14.6623 23.444 14.6109 23.4094 14.5604C23.4944 14.5464 23.5798 14.532 23.6648 14.5174C23.6497 14.6603 23.6321 14.8049 23.6117 14.9536ZM2.38414 12.5752C2.27314 12.6666 2.41315 12.8759 2.40943 12.8926C2.3949 12.9511 2.25491 13.0238 2.26023 13.1227C2.26352 13.1801 2.42189 13.3037 2.41955 13.4186C2.41266 13.6756 1.96839 14.136 2.37655 14.4706C2.32812 14.4937 2.27957 14.5163 2.23114 14.5389C2.25585 14.768 2.39351 14.7126 2.25517 14.8879C2.24645 14.9016 2.23576 14.9173 2.22482 14.9334C2.3815 14.974 2.47308 14.9504 2.5245 14.8916C2.72177 14.71 2.32772 14.0602 2.81658 14.2455C2.80867 14.1993 2.80042 14.1528 2.79256 14.1064C2.63198 14.0963 2.47138 14.0863 2.3108 14.0761C2.7008 13.951 2.33376 13.7741 2.61301 13.5185C2.56464 13.4938 2.51594 13.4687 2.46759 13.4439C2.57499 13.3517 2.63763 12.3733 2.38414 12.5752ZM22.1702 13.4793C22.3308 13.4809 22.1773 13.8066 22.3928 13.6335C22.2772 13.7977 22.3425 14.242 22.3043 14.3467C22.2819 14.4101 22.1432 14.4233 22.1386 14.4327C22.1246 14.4707 22.2695 14.8069 22.1766 14.8423C21.931 14.9416 22.1999 13.6149 22.1702 13.4793ZM5.79183 13.7018C5.50207 13.7216 5.78759 14.9432 5.86391 14.8373C5.82751 14.4243 5.97116 14.0888 5.79183 13.7018ZM19.2051 14.573C19.1951 14.657 19.184 14.7361 19.1722 14.8006C19.1716 14.8048 19.1716 14.8091 19.171 14.8133C19.1706 14.8087 19.1701 14.8037 19.1697 14.7993C19.1158 14.5227 19.0633 14.7539 18.9687 14.5629C19.0475 14.5664 19.1263 14.5695 19.2051 14.573ZM6.52395 14.4845C6.51615 14.5897 6.50764 14.6951 6.49992 14.8006C6.47123 14.6947 6.44256 14.5889 6.41394 14.4832C6.4504 14.4836 6.48749 14.4841 6.52395 14.4845ZM1.18165 14.1279C1.29569 14.2409 1.21479 14.5337 1.24614 14.7311C1.47684 14.5632 1.28159 14.4006 1.32706 14.1292C1.2788 14.1288 1.22991 14.1283 1.18165 14.1279ZM20.7503 14.6008C20.7193 14.6115 20.6877 14.6222 20.6567 14.6324C20.6296 14.561 20.6017 14.4901 20.5732 14.4175C20.6107 14.3851 20.6486 14.3511 20.6858 14.3176C20.7084 14.413 20.7298 14.5077 20.7503 14.6008ZM24.9799 14.1216C25.0339 14.0867 25.0879 14.0516 25.1417 14.0166C25.1605 14.1396 25.1784 14.2633 25.1948 14.3909C25.1415 14.3362 25.088 14.2809 25.0342 14.2278C25.0151 14.3335 24.9947 14.4417 24.9735 14.5502C24.7456 14.6748 24.7396 13.977 24.7636 13.918C24.7703 13.9041 24.9404 13.8346 24.9773 13.8093C24.9788 13.9127 24.9799 14.0163 24.9799 14.1216ZM23.4865 13.7789C23.7918 13.8663 23.6537 14.0688 23.4157 14.1659C23.386 14.0468 23.5123 14.0403 23.5194 14.0129C23.5381 13.9295 23.4859 13.8584 23.4865 13.7789ZM19.2317 14.1254C19.1503 14.122 19.069 14.1186 18.9876 14.1153C18.9726 14.0881 18.9573 14.0603 18.9421 14.0331C18.9899 14.008 19.0374 13.9816 19.085 13.956C19.1341 14.0126 19.1832 14.0689 19.2317 14.1254ZM24.8092 13.6639C24.5062 13.4067 25.1635 13.4489 24.9761 13.7056C24.9655 13.7179 24.8331 13.6833 24.8092 13.6639ZM5.45549 11.8064C5.46146 11.5189 5.44958 10.7276 5.15708 11.1678C5.14888 11.3164 5.14325 11.4642 5.13938 11.6091C5.44469 11.5604 5.37085 11.685 5.27467 11.7912C5.22051 11.8514 5.16011 11.9078 5.15455 11.9202C5.09722 12.0755 5.19716 12.2789 5.18616 12.3906C5.17654 12.4865 5.09089 12.54 5.09006 12.6081C5.08772 12.8389 5.08067 13.2016 5.27341 13.2567C5.28213 13.0791 5.2903 12.8984 5.29238 12.713C5.29547 12.5154 5.48312 12.3564 5.25697 11.9695C5.2905 11.8784 5.43401 11.9219 5.44284 11.9113C5.44856 11.9051 5.45308 11.8643 5.45549 11.8064ZM20.5821 12.6877C20.556 12.0588 20.8726 12.683 20.6769 13.0089C20.6284 13.0089 20.5846 12.7458 20.5821 12.6877ZM23.9569 12.4019C23.9694 12.4986 23.9809 12.596 23.9923 12.6928C24.057 12.6569 24.1225 12.6203 24.187 12.584C24.208 12.631 24.2283 12.6785 24.249 12.7256C24.139 12.8143 24.0286 12.902 23.9177 12.9887C23.8897 12.779 23.8596 12.57 23.8267 12.3615C23.8701 12.3749 23.9135 12.3883 23.9569 12.4019ZM22.2208 12.3602C22.2002 12.4904 22.1791 12.6203 22.1563 12.7497C22.1294 12.6001 22.1 12.4508 22.0704 12.3021C22.1203 12.3212 22.1709 12.3408 22.2208 12.3602ZM2.51438 12.1263C2.492 12.1352 2.3412 12.5527 2.55105 12.4816C2.65769 12.4473 2.56806 12.1135 2.51438 12.1263ZM22.0135 11.6698C22.0807 11.6939 22.1182 11.7271 22.1374 11.7659C22.1963 11.8857 22.0808 12.0573 22.1361 12.2047C22.0148 12.2175 22.0393 11.947 22.0299 11.7773C22.0275 11.7314 22.0236 11.6929 22.0135 11.6698ZM2.6345 11.5699C2.5493 11.5093 2.4477 11.4758 2.36391 11.5472C2.33584 11.5752 2.30951 11.6207 2.28678 11.6774C2.56114 11.7199 2.32295 11.9354 2.33609 12.0365C2.36463 12.0649 2.3934 12.0925 2.42207 12.12C2.4978 11.9516 2.57487 11.7785 2.65726 11.5902C2.64989 11.5834 2.64216 11.5763 2.6345 11.5699ZM24.7371 11.3208C24.7666 11.3408 24.7979 11.4085 24.8231 11.4953C24.8889 11.7127 24.905 12.0487 24.7472 11.9935C24.7355 11.8915 24.6937 11.8094 24.6903 11.7027C24.6904 11.6841 24.8483 11.637 24.7421 11.5029C24.7264 11.4822 24.705 11.4592 24.6764 11.4346C24.6967 11.3971 24.717 11.3588 24.7371 11.3208ZM23.6256 10.5799C23.9088 10.7553 23.7862 11.1203 23.8102 11.3562C23.8253 11.4998 23.8461 11.5659 23.8709 11.5914C23.8944 11.6146 23.9219 11.602 23.9493 11.5838C23.9847 11.5595 24.0202 11.5255 24.0492 11.5535C24.053 11.5572 24.0531 11.5638 24.0517 11.5725C24.0395 11.6461 23.8634 11.8762 24.0138 11.9543C23.8544 11.9333 23.7849 11.7928 23.7508 11.6041C23.6952 11.2839 23.7222 10.8265 23.6256 10.5799ZM5.84873 11.8393C5.84865 11.8434 5.84881 11.8477 5.84873 11.8519C5.8633 11.8487 5.87709 11.8462 5.8892 11.8431C6.14959 11.7728 5.86188 11.709 6.02196 11.3752C5.97065 11.34 5.91871 11.305 5.8677 11.269C5.85781 11.4579 5.85305 11.6476 5.84873 11.8393ZM9.0402 11.7191C9.06668 11.7493 9.09332 11.7813 9.11986 11.8127C9.15292 11.7756 9.18542 11.74 9.21849 11.7065C9.17499 11.6732 9.13162 11.6399 9.08825 11.6079C9.07249 11.6428 9.05597 11.6797 9.0402 11.7191ZM9.07181 11.4473C9.12993 11.4687 9.18808 11.4903 9.24631 11.5118C9.21775 11.4556 9.18894 11.4047 9.16033 11.36C9.13101 11.3844 9.10164 11.4136 9.07181 11.4473ZM6.39498 10.6229C6.17491 10.5005 6.21469 10.7668 6.11174 10.8378C5.943 10.954 5.85209 10.7241 5.8892 11.0907C5.84329 11.0698 5.79711 11.049 5.75137 11.0275C5.7072 11.2377 6.05093 11.2089 6.08898 11.2513C6.10015 11.2643 6.05779 11.3892 6.07633 11.4157C6.31477 11.733 6.22699 11.0615 6.23818 11.0363C6.24337 11 6.46139 10.6557 6.39498 10.6229ZM25.6171 11.1653C25.5317 11.1655 25.4459 11.165 25.3605 11.1653C25.3237 10.9957 25.5339 10.9987 25.5969 10.9984C25.6038 11.0539 25.6108 11.1097 25.6171 11.1653ZM2.55864 10.3991C2.46552 10.7035 2.55967 10.6532 2.36012 10.8935C2.52469 11.2849 2.52971 10.9701 2.71543 10.9908C2.67009 10.9014 2.62547 10.807 2.58266 10.7101C2.7828 10.5151 2.84321 10.7287 2.86084 10.7341C2.9165 10.7413 2.92741 10.7501 2.97211 10.6722C2.83312 10.5855 2.69494 10.4946 2.55864 10.3991ZM5.54653 9.64797C5.51489 9.82144 5.51387 9.94824 5.64516 10.0045C5.58379 10.0352 5.52252 10.0677 5.46181 10.1019C5.47331 10.192 5.48802 10.2807 5.5048 10.3674C5.369 10.3251 5.37324 10.3351 5.44158 10.4775C5.39449 10.5249 5.34827 10.5735 5.30249 10.6229C5.35711 10.6577 5.41172 10.6919 5.46687 10.7253C5.37577 10.7578 5.28431 10.7923 5.19375 10.8277C5.25642 11.029 5.4356 10.9373 5.57055 11.0022C5.41478 10.7031 5.8949 10.1167 5.77792 9.84776C5.7679 9.82983 5.63018 9.92238 5.54653 9.64797ZM6.71488 10.8846C6.6228 10.8716 6.7747 10.3614 6.87294 10.5786C6.81711 10.6725 6.7645 10.7745 6.71488 10.8846ZM25.0924 9.88822C25.2426 9.91489 25.3704 10.2772 25.4085 10.4534C25.4097 10.4612 25.3253 10.425 25.3516 10.5495C25.3611 10.5858 25.6924 10.9205 25.3617 10.8808C25.2809 10.5469 25.1916 10.2157 25.0924 9.88822ZM23.6231 9.95903C23.5621 10.4234 23.8892 10.141 23.6534 10.418C23.6098 10.2715 23.5633 10.1255 23.5156 9.98053C23.5511 9.97332 23.5876 9.96623 23.6231 9.95903ZM2.82291 9.18898C2.7231 9.53962 2.65684 9.87826 2.61301 10.1828C2.65872 10.1941 2.7051 10.2058 2.75083 10.217C2.63721 9.88326 2.85376 9.78084 2.88233 9.7112H2.88107C2.97664 9.47655 3.07559 9.24175 3.21362 9.0246C3.08273 9.07511 2.95246 9.1307 2.82291 9.18898ZM7.16629 9.96662C7.13102 10.0684 7.0713 10.1273 6.96018 10.0501C6.99054 10.0005 7.02267 9.95102 7.05628 9.90213C7.09293 9.92338 7.12961 9.94542 7.16629 9.96662ZM25.2732 9.68085C25.2151 9.73071 25.1573 9.77992 25.0987 9.82879C25.0669 9.75281 25.0343 9.67709 25.0014 9.60119C25.034 9.56691 25.0663 9.53239 25.0987 9.49751C25.1571 9.55798 25.2155 9.61935 25.2732 9.68085ZM14.2725 9.53797C14.2815 9.59376 14.2969 9.64276 14.313 9.68591C14.2566 9.67636 14.2093 9.63197 14.1777 9.5367C14.2005 9.54251 14.2296 9.54343 14.2725 9.53797ZM7.32561 8.77171C7.1952 8.58205 6.9549 9.04989 6.87294 9.1384C6.83492 9.17467 6.54467 9.29589 6.46578 9.519C6.45494 9.54969 6.44891 9.58158 6.44808 9.6151C6.46145 9.62109 6.47519 9.62679 6.48854 9.6328C6.55923 9.65936 6.61924 9.65874 6.67315 9.63786C6.9252 9.53491 7.08277 8.953 7.32561 8.77171ZM5.72861 9.50762C5.77583 9.54831 5.82348 9.58832 5.87149 9.62774C5.8773 9.54324 5.88567 9.4588 5.89678 9.37359C5.83995 9.41621 5.78411 9.46122 5.72861 9.50762ZM18.6665 9.20036C18.6226 9.26591 18.4124 9.25724 18.6538 9.33439C18.6833 9.33706 18.7087 9.33535 18.7309 9.33439C18.7036 9.27591 18.675 9.22169 18.6665 9.20036ZM18.8561 9.20795C18.8367 9.23842 18.8055 9.27919 18.7562 9.33313C18.8654 9.32053 18.8732 9.26215 18.8561 9.20795ZM18.8131 9.12829C18.7777 9.08444 18.7659 9.13423 18.7663 9.13967C18.7682 9.14098 18.7894 9.13349 18.8131 9.12829ZM6.88558 8.0535C6.87786 8.02582 6.86902 7.99789 6.86156 7.97005C6.65521 8.1083 6.7095 8.28245 6.61499 8.36709L6.56188 8.35824C6.53654 8.35381 6.50797 8.35303 6.49107 8.37215C6.41293 8.45899 6.19155 8.71589 6.24324 8.80079C6.35067 8.97337 6.6592 8.38469 6.75155 8.29754C6.79 8.2568 6.89292 8.2548 6.91593 8.23053C6.93986 8.20292 6.89459 8.09763 6.95639 8.03201C6.97477 8.01121 7.26345 7.87863 7.33952 7.77912C7.29893 7.75953 7.25781 7.74007 7.21687 7.72095C7.10296 7.82807 6.99283 7.9396 6.88558 8.0535ZM13.0915 5.52208C13.0482 5.53068 13.0557 5.62244 12.9979 5.62323C12.6758 5.62776 12.3542 5.63991 12.0344 5.65611C11.1159 5.70015 10.2845 6.15054 9.49288 6.66767C9.11764 6.90572 8.77858 7.22261 8.37005 7.52244C8.1671 7.67227 7.97117 7.83448 7.78208 8.00545C7.69054 8.07774 7.13453 8.38946 7.28894 8.68067C7.40326 8.89484 7.5336 8.46835 7.58609 8.41893C7.62241 8.38174 7.7016 8.45229 7.72518 8.42778C7.74999 8.40185 7.6765 8.37319 7.70494 8.3418C7.8257 8.20801 7.98707 8.09364 8.10325 7.98269C8.22235 7.86883 8.34502 7.76026 8.47247 7.659C8.88242 7.33787 9.2138 7.02571 9.57633 6.8017C10.375 6.29023 11.1965 5.90443 12.042 5.89003C12.1036 5.8885 12.1659 5.8876 12.2279 5.88624C12.4322 5.88178 12.394 5.96608 12.4036 5.96716C12.9733 5.95967 13.6081 5.89469 14.1675 5.91153C14.7456 5.93868 15.4012 5.97122 15.4333 6.16062C15.4422 6.17567 15.4516 6.19209 15.4611 6.2112C15.7944 6.82046 16.0089 7.5607 15.9959 8.17489C16.018 8.19174 16.04 8.20937 16.0617 8.22673C16.2856 7.60418 16.0876 6.73543 15.676 6.06958C15.4908 5.67858 14.7986 5.71913 14.1979 5.64979C13.9283 5.62678 13.6404 5.62641 13.3596 5.6245C13.1766 5.62372 13.1583 5.50964 13.0915 5.52208ZM3.56893 8.16478C3.25249 8.06197 3.15963 8.11833 3.15798 8.72619C3.20416 8.72104 3.25101 8.71661 3.29707 8.71228C3.38385 8.4414 3.39035 8.26339 3.52341 8.38226C3.5376 8.30909 3.5528 8.23691 3.56893 8.16478ZM24.1908 6.43501C24.5231 6.50784 24.3768 6.62528 24.4981 6.81308C24.5058 6.82431 24.5577 6.79397 24.5601 6.79791C24.5859 6.84289 24.5445 6.92064 24.5651 6.96102C24.6061 7.04072 24.7042 7.07686 24.7662 7.21644C24.8143 7.32575 24.7108 7.37189 24.7295 7.40863C24.7374 7.42313 24.8224 7.4634 24.9141 7.53002L25.0722 7.95108C25.1846 8.06793 25.3018 8.23152 25.2656 8.38732C25.2088 8.62166 25.0671 8.3688 24.9065 8.00166L24.756 7.60083C24.538 7.24432 24.2527 6.69162 24.2174 6.60065C24.2101 6.54778 24.2005 6.49102 24.1908 6.43501ZM15.26 7.78291C15.312 7.8896 15.3576 7.99645 15.3941 8.09523C15.4054 7.99023 15.4083 7.8714 15.4016 7.74751C15.3547 7.75956 15.307 7.77086 15.26 7.78291ZM5.27594 5.62576C5.24157 5.59172 5.20663 5.55737 5.17225 5.52334C5.14924 5.78002 4.57053 6.31405 4.45657 6.19223C4.48433 6.27177 4.51213 6.35132 4.54129 6.42995C4.14669 6.60159 4.11939 6.98671 3.72572 7.23288C3.75773 7.2934 3.79041 7.3536 3.82308 7.41369C3.77093 7.40544 3.71861 7.39742 3.66629 7.38967C3.57995 7.51465 3.49439 7.64328 3.41087 7.77785C3.40773 7.78297 3.40515 7.78917 3.40202 7.79429C3.34605 8.0796 3.48269 8.03896 3.64606 7.91315C3.82891 7.78335 4.05048 7.55847 4.07218 7.49841C4.07723 7.48349 3.97032 7.4168 4.00769 7.32518C4.06891 7.15261 4.73343 6.48203 4.87131 6.21879C4.93509 6.27174 4.99855 6.32507 5.06225 6.37811C5.08015 6.22998 5.10219 6.08058 5.128 5.93049C5.23912 6.00986 5.36457 5.58437 5.53136 5.88244C5.53996 5.71316 5.55372 5.5418 5.57308 5.36908C5.55172 5.34722 5.52997 5.32517 5.5086 5.30333C5.42791 5.40982 5.35079 5.51794 5.27594 5.62576ZM12.0825 7.20379C12.1132 7.21321 12.1322 7.22556 12.1457 7.23793C12.1376 7.29031 12.1522 7.33465 12.2039 7.36185C12.2105 7.3479 12.2221 7.33401 12.2329 7.31759L12.2367 7.31886C12.3208 7.3089 12.3427 7.25556 12.3821 7.20885C12.3452 7.32664 12.3254 7.44618 12.3252 7.5414C12.2473 7.54435 12.1698 7.54568 12.0938 7.54899C11.9758 7.55398 11.8453 7.57847 11.7006 7.62233C11.713 7.52006 11.7325 7.40491 11.7638 7.2746C11.8489 7.23741 11.9885 7.17434 12.0395 7.18736C12.0571 7.19117 12.0712 7.19694 12.0825 7.20379ZM14.0904 7.15195C14.1585 7.24976 14.3323 7.42251 14.4976 7.51864C14.5061 7.54725 14.5129 7.57615 14.5203 7.60462C14.4229 7.59345 14.3062 7.5785 14.184 7.56543C14.1797 7.55689 14.1748 7.54892 14.1713 7.5414C14.163 7.51959 14.2568 7.47673 14.2447 7.44783C14.1963 7.34196 14.1418 7.24088 14.0866 7.15195H14.0904ZM15.5079 7.14942C15.4456 7.27597 15.5694 7.4651 15.5509 7.59957C15.6473 7.4808 15.5584 7.27628 15.5079 7.14942ZM16.9923 6.33638C16.985 6.46153 17.1986 6.93908 17.1934 7.12666C17.3895 7.09604 17.1315 6.29089 17.0543 6.23523C17.0375 6.26205 16.9952 6.31038 16.9923 6.33638ZM15.1273 6.45777C15.1196 6.45298 15.0831 6.42025 15.1045 6.44639C15.2015 6.59544 15.2913 6.7573 15.37 6.92435C15.4747 6.90472 15.3957 6.74665 15.3726 6.69169C15.3324 6.58962 15.2698 6.48383 15.1993 6.38443C15.152 6.33674 15.2022 6.39333 15.1551 6.35914C15.1495 6.39315 15.1398 6.42635 15.1273 6.45777ZM14.7795 6.66135C14.7827 6.67308 14.8777 6.77272 14.9452 6.80296C15.0119 6.8353 14.9879 6.81582 14.9009 6.8017C14.8878 6.79931 14.8738 6.79772 14.8592 6.79538C14.8327 6.75001 14.8075 6.70417 14.7795 6.66135ZM15.0173 6.55892C15.0279 6.57246 15.0387 6.58569 15.0489 6.59939C15.0259 6.58224 14.9844 6.53968 14.9831 6.52605C14.996 6.53772 15.0066 6.54976 15.0173 6.55892ZM13.7806 6.18844C13.7621 6.18753 13.6706 6.27318 13.7351 6.29718C13.8737 6.27883 14.0108 6.26238 14.1283 6.25166C14.2149 6.24861 14.3002 6.24547 14.3838 6.24155C14.3016 6.23275 14.2184 6.22338 14.1334 6.21373C14.0285 6.20185 13.9057 6.19396 13.7806 6.18844ZM19.544 6.29339C19.5322 6.19504 19.5186 6.09592 19.5035 5.99877C19.4189 5.97464 19.3338 5.95271 19.2494 5.93176L19.544 6.29339ZM9.40437 6.01521C9.3147 5.95854 9.27752 6.08811 9.23872 6.09487C9.22926 6.09636 9.24465 5.99223 9.16159 6.01521C9.16984 6.0696 9.17824 6.12408 9.18688 6.17833C9.18751 6.18257 9.18877 6.18673 9.18941 6.19097L9.1932 6.18844C9.263 6.13047 9.33301 6.07211 9.40437 6.01521ZM16.6749 5.4108C16.5604 5.09391 16.0126 4.65404 15.8429 4.95181C15.91 4.97647 16.2981 5.19931 16.5055 5.52208C16.7446 5.847 16.9701 6.23089 17.0416 6.12395C17.1036 6.02981 16.8119 5.65316 16.7356 5.53851C16.7167 5.5074 16.6974 5.46206 16.6749 5.4108ZM14.0714 5.0125C13.9825 4.96359 13.8407 4.89225 13.7832 5.06055C13.8048 5.10112 14.0001 5.12559 14.2523 5.16044C14.6804 5.21669 15.2972 5.26647 15.3435 5.25781C15.3593 5.24666 15.3536 5.19635 15.365 5.17056C14.9844 5.23052 14.5787 5.05047 14.2725 4.98468C14.2539 4.98102 14.2352 4.97833 14.2169 4.97583C14.1229 4.96356 14.144 5.04324 14.1385 5.04411L14.0714 5.0125ZM18.7309 4.75708C18.7844 4.86565 18.8349 4.97429 18.8827 5.08331C18.9691 5.01321 19.0553 4.94264 19.1406 4.87088C18.9039 4.56623 18.8513 4.81204 18.5602 4.43086L18.7309 4.75708ZM14.9945 2.06381C14.9341 2.26315 14.7763 2.14228 14.6101 2.16876C14.7282 2.19417 14.8528 2.21902 15.0008 2.24715C14.9969 2.28318 14.9921 2.31986 14.9882 2.35589C14.681 2.31072 15.0106 2.57276 15.3169 2.46717C15.3331 2.51794 15.3488 2.56922 15.365 2.62016C15.4278 2.58046 15.4945 2.54159 15.5686 2.5051C15.6563 2.55604 15.753 2.60956 15.8632 2.67074C16.0241 2.58256 16.215 2.50484 16.4499 2.45579C15.6129 2.11469 15.3264 2.04835 15.327 2.39509C15.241 2.38379 15.1626 2.37403 15.0919 2.36601C15.1712 2.22648 15.16 2.17617 14.9945 2.06381ZM12.7994 1.99553C12.5632 2.19739 12.1845 2.07524 12.2645 2.3698C12.6927 2.15402 12.4262 2.328 12.9044 2.32175C12.8697 2.21307 12.8346 2.1041 12.7994 1.99553ZM14.189 1.98541C14.1065 1.93503 13.7602 2.23208 13.8641 2.29647C13.9793 2.2631 14.1006 2.23143 14.2346 2.2029C14.2191 2.13034 14.2044 2.05784 14.189 1.98541Z" fill="#001AFF"/>
</svg>
