<svg width="278" height="104" viewBox="0 0 278 104" fill="none" xmlns="http://www.w3.org/2000/svg">
<g clip-path="url(#clip0_576_2)">
<path d="M88.0797 74.78C86.7697 73.72 85.0497 73.21 83.3997 73.58C82.2297 73.84 80.9697 73.38 80.2597 72.31C80.1197 72.1 80.0197 71.87 79.9297 71.63L78.8997 68.6C78.7897 68.29 78.6697 67.99 78.5197 67.69L77.6197 65.86C77.0097 64.62 76.0797 63.57 74.9297 62.81L73.9397 62.15C73.1797 61.65 72.3297 61.28 71.4497 61.07C69.9697 60.72 68.4497 60.82 67.0697 61.31C67.5397 60.19 67.9297 59.05 68.2197 57.9C68.5597 58.16 68.9097 58.4 69.2797 58.6C72.0597 60.19 75.4997 59.88 78.1297 58.04C79.7897 56.88 80.9097 55.81 83.9697 56.2C84.7797 56.3 85.5697 56.3 86.3297 56.48L83.7397 54.96C83.6297 54.9 83.5097 54.84 83.3897 54.79C81.1597 53.99 78.7097 54.37 76.7397 55.67C75.8897 56.23 74.8197 56.51 73.6897 56.35C71.6797 56.07 70.1597 54.5 69.9297 52.49C69.6397 49.83 71.7097 47.58 74.3097 47.58C74.6097 47.58 74.8897 47.61 75.1697 47.66C77.2497 48.07 79.3997 47.74 81.2997 46.83C81.1497 46.83 80.9997 46.84 80.8497 46.84C79.5497 46.84 78.3097 46.59 77.1697 46.15C76.7797 46 76.4097 45.82 76.0497 45.63C75.5297 45.35 74.9897 45.09 74.4597 44.83C72.9297 44.38 70.9597 44.27 69.0597 45.55C68.7497 45.76 68.4697 45.99 68.1897 46.23C67.9497 45.28 67.6497 44.35 67.2897 43.44C67.1497 40.75 68.4797 38.09 70.9697 36.65C72.3797 35.84 73.9497 35.54 75.4497 35.7C76.4697 35.81 77.4997 35.87 78.5197 35.78H78.6797C79.9097 35.67 81.1197 35.31 82.1997 34.72C83.7897 33.86 84.8997 32.32 85.2597 30.55L85.4697 29.53C85.7097 28.53 86.2797 27.63 87.0797 26.98L89.2897 25.18L86.2997 26.33C84.7297 26.94 83.4297 28.17 82.9297 29.79C82.5697 30.94 81.5397 31.79 80.2597 31.88C80.0097 31.9 79.7497 31.87 79.4997 31.82L76.3597 31.2C76.0397 31.14 75.7097 31.09 75.3797 31.07L73.3397 30.93C71.9597 30.84 70.5897 31.11 69.3497 31.73L68.2897 32.26C67.4697 32.67 66.7397 33.22 66.1097 33.88C65.0697 34.98 64.3997 36.34 64.1297 37.78C63.4197 36.83 62.6197 35.93 61.7597 35.09C62.1497 34.92 62.5297 34.74 62.8897 34.53C65.6597 32.92 67.1097 29.78 66.8297 26.59C66.6497 24.58 66.2897 23.07 68.1597 20.61C68.6497 19.96 69.0397 19.27 69.5797 18.71L66.9697 20.19C66.8597 20.25 66.7497 20.33 66.6497 20.41C64.8397 21.94 63.9497 24.25 64.0897 26.61C64.1497 27.63 63.8597 28.69 63.1597 29.59C61.9197 31.19 59.7897 31.72 57.9397 30.91C55.4897 29.83 54.5797 26.91 55.8797 24.66C56.0297 24.4 56.1997 24.17 56.3897 23.95C57.7897 22.36 58.5697 20.33 58.7397 18.22C58.6697 18.35 58.5997 18.48 58.5297 18.61C57.8797 19.73 57.0497 20.69 56.0897 21.45C55.7697 21.71 55.4297 21.94 55.0797 22.16C54.5697 22.47 54.0797 22.8 53.5897 23.14C52.4397 24.24 51.3497 25.89 51.5197 28.17C51.5397 28.54 51.5997 28.9 51.6697 29.25C50.7197 28.98 49.7497 28.77 48.7897 28.63C46.4097 27.4 44.7697 24.93 44.7697 22.06C44.7697 20.43 45.2997 18.93 46.1897 17.71C46.7997 16.88 47.3597 16.02 47.7997 15.09L47.8697 14.94C48.3997 13.82 48.6897 12.6 48.7297 11.37C48.7797 9.55996 48.0097 7.82996 46.6497 6.63996L45.8697 5.94996C45.1197 5.23996 44.6297 4.29996 44.4697 3.27996L44.0197 0.459961L43.5197 3.61996C43.2597 5.28996 43.6797 7.02996 44.8197 8.26996C45.6297 9.14996 45.8597 10.47 45.2897 11.63C45.1797 11.86 45.0297 12.06 44.8597 12.26L42.7597 14.67C42.5397 14.92 42.3397 15.18 42.1597 15.45L41.0197 17.14C40.2497 18.29 39.7997 19.62 39.7197 20.99L39.6497 22.18C39.5997 23.09 39.6997 24 39.9597 24.88C40.3997 26.33 41.2397 27.6 42.3597 28.55C41.1697 28.7 39.9897 28.94 38.8397 29.26C38.8897 28.84 38.9197 28.41 38.9197 27.99C38.9097 24.79 36.9097 21.96 34.0097 20.61C32.1797 19.76 30.6897 19.31 29.4997 16.47C29.1797 15.72 28.7797 15.03 28.5597 14.29L28.5397 17.29C28.5397 17.42 28.5397 17.55 28.5697 17.67C28.9997 20 30.5397 21.93 32.6597 22.99C33.5797 23.45 34.3397 24.23 34.7697 25.29C35.5297 27.16 34.9297 29.28 33.2997 30.47C31.1397 32.05 28.1597 31.38 26.8597 29.13C26.7097 28.87 26.5897 28.61 26.4997 28.34C25.8197 26.33 24.4597 24.64 22.7097 23.44C22.7897 23.57 22.8697 23.69 22.9397 23.82C23.5897 24.94 23.9997 26.14 24.1797 27.35C24.2397 27.76 24.2797 28.17 24.2897 28.58C24.3097 29.17 24.3497 29.77 24.3897 30.36C24.7597 31.91 25.6497 33.67 27.7097 34.67C28.0397 34.83 28.3797 34.96 28.7197 35.08C28.0297 35.76 27.3697 36.49 26.7497 37.26C24.4997 38.72 21.5297 38.9 19.0497 37.46C17.6397 36.65 16.5997 35.44 15.9897 34.05C15.5797 33.11 15.1097 32.19 14.5297 31.35L14.4397 31.21C13.7397 30.19 12.8297 29.33 11.7697 28.68C10.2297 27.73 8.33973 27.54 6.62973 28.11L5.63973 28.44C4.64973 28.73 3.58973 28.69 2.62973 28.32L-0.0302734 27.3L2.45973 29.31C3.76973 30.37 5.48973 30.88 7.13973 30.51C8.30973 30.25 9.56973 30.71 10.2797 31.78C10.4197 31.99 10.5197 32.22 10.6097 32.46L11.6397 35.49C11.7497 35.8 11.8697 36.1 12.0197 36.4L12.9197 38.23C13.5297 39.47 14.4597 40.52 15.6097 41.28L16.5997 41.94C17.3597 42.44 18.2097 42.81 19.0897 43.02C20.5697 43.37 22.0897 43.27 23.4697 42.78C22.9997 43.9 22.6097 45.04 22.3197 46.19C21.9797 45.93 21.6297 45.69 21.2597 45.49C18.4797 43.9 15.0397 44.21 12.4097 46.05C10.7497 47.21 9.62973 48.28 6.56973 47.89C5.75973 47.79 4.96973 47.79 4.20973 47.61L6.79973 49.13C6.90973 49.19 7.02973 49.25 7.14973 49.3C9.37973 50.1 11.8297 49.72 13.7997 48.42C14.6497 47.86 15.7197 47.58 16.8497 47.74C18.8597 48.02 20.3797 49.59 20.6097 51.6C20.8997 54.26 18.8297 56.51 16.2297 56.51C15.9297 56.51 15.6497 56.48 15.3697 56.43C13.2897 56.02 11.1397 56.35 9.23973 57.26C9.38973 57.26 9.53973 57.25 9.68973 57.25C10.9897 57.25 12.2297 57.5 13.3697 57.94C13.7597 58.09 14.1297 58.27 14.4897 58.46C15.0097 58.74 15.5497 59 16.0797 59.26C17.6097 59.71 19.5797 59.82 21.4797 58.54C21.7897 58.33 22.0697 58.1 22.3497 57.86C22.5897 58.81 22.8897 59.74 23.2497 60.65C23.3897 63.34 22.0597 66 19.5697 67.44C18.1597 68.25 16.5897 68.55 15.0897 68.39C14.0697 68.28 13.0397 68.22 12.0197 68.31H11.8597C10.6297 68.42 9.41973 68.78 8.33973 69.37C6.74973 70.23 5.63973 71.77 5.27973 73.54L5.06973 74.56C4.82973 75.56 4.25973 76.46 3.45973 77.11L1.24973 78.91L4.23973 77.76C5.80973 77.15 7.10973 75.92 7.60973 74.31C7.96973 73.16 8.99973 72.31 10.2797 72.22C10.5297 72.2 10.7897 72.23 11.0397 72.28L14.1797 72.9C14.4997 72.96 14.8297 73.01 15.1597 73.03L17.1997 73.17C18.5797 73.26 19.9497 72.99 21.1897 72.37L22.2497 71.84C23.0697 71.43 23.7997 70.88 24.4297 70.22C25.4697 69.12 26.1397 67.76 26.4097 66.32C27.1197 67.27 27.9197 68.17 28.7797 69.01C28.3897 69.18 28.0097 69.36 27.6497 69.57C24.8797 71.18 23.4297 74.32 23.7097 77.51C23.8897 79.52 24.2497 81.03 22.3797 83.49C21.8897 84.14 21.4997 84.83 20.9597 85.39L23.5697 83.91C23.6797 83.85 23.7897 83.77 23.8897 83.69C25.6997 82.16 26.5897 79.85 26.4497 77.49C26.3897 76.47 26.6797 75.41 27.3797 74.51C28.6197 72.91 30.7497 72.38 32.5997 73.19C35.0497 74.27 35.9597 77.19 34.6597 79.44C34.5097 79.7 34.3397 79.93 34.1497 80.15C32.7497 81.74 31.9697 83.77 31.7997 85.88C31.8697 85.75 31.9397 85.62 32.0097 85.49C32.6597 84.37 33.4897 83.41 34.4497 82.65C34.7697 82.39 35.1097 82.16 35.4597 81.94C35.9697 81.63 36.4597 81.3 36.9497 80.96C38.0997 79.86 39.1897 78.21 39.0197 75.93C38.9997 75.56 38.9397 75.2 38.8697 74.85C39.8197 75.12 40.7897 75.33 41.7497 75.47C44.1297 76.7 45.7697 79.17 45.7697 82.04C45.7697 83.67 45.2397 85.17 44.3497 86.39C43.7397 87.22 43.1797 88.08 42.7397 89.01L42.6697 89.16C42.1397 90.28 41.8497 91.5 41.8097 92.73C41.7597 94.54 42.5297 96.27 43.8897 97.46L44.6697 98.15C45.4197 98.86 45.9097 99.8 46.0697 100.82L46.5197 103.64L47.0197 100.48C47.2797 98.81 46.8597 97.07 45.7197 95.83C44.9097 94.95 44.6797 93.63 45.2497 92.47C45.3597 92.24 45.5097 92.04 45.6797 91.84L47.7797 89.43C47.9997 89.18 48.1997 88.92 48.3797 88.65L49.5197 86.96C50.2897 85.81 50.7397 84.48 50.8197 83.11L50.8897 81.92C50.9397 81.01 50.8397 80.1 50.5797 79.22C50.1397 77.77 49.2997 76.5 48.1797 75.55C49.3697 75.4 50.5497 75.16 51.6997 74.84C51.6497 75.26 51.6197 75.69 51.6197 76.11C51.6297 79.31 53.6297 82.14 56.5297 83.49C58.3597 84.34 59.8497 84.79 61.0397 87.63C61.3597 88.38 61.7597 89.07 61.9797 89.81L61.9997 86.81C61.9997 86.68 61.9997 86.55 61.9697 86.43C61.5397 84.1 59.9997 82.17 57.8797 81.11C56.9597 80.65 56.1997 79.87 55.7697 78.81C55.0097 76.94 55.6097 74.82 57.2397 73.63C59.3997 72.05 62.3797 72.72 63.6797 74.97C63.8297 75.23 63.9497 75.49 64.0397 75.76C64.7197 77.77 66.0797 79.46 67.8297 80.66C67.7497 80.53 67.6697 80.41 67.5997 80.28C66.9497 79.16 66.5397 77.96 66.3597 76.75C66.2997 76.34 66.2597 75.93 66.2497 75.52C66.2297 74.93 66.1897 74.33 66.1497 73.74C65.7797 72.19 64.8897 70.43 62.8297 69.43C62.4997 69.27 62.1597 69.14 61.8197 69.02C62.5097 68.34 63.1697 67.61 63.7897 66.84C66.0397 65.38 69.0097 65.2 71.4897 66.64C72.8997 67.45 73.9397 68.66 74.5497 70.05C74.9597 70.99 75.4297 71.9 76.0097 72.75L76.0997 72.89C76.7997 73.91 77.7097 74.77 78.7697 75.42C80.3097 76.37 82.1997 76.56 83.9097 75.99L84.8997 75.66C85.8897 75.37 86.9497 75.41 87.9097 75.78L90.5697 76.8L88.0797 74.79V74.78ZM45.2597 71.51C41.8797 71.51 38.5297 70.61 35.5697 68.9C31.0797 66.31 27.8697 62.12 26.5197 57.11C25.1797 52.1 25.8697 46.87 28.4597 42.38C31.9197 36.39 38.3697 32.67 45.2997 32.67C48.6797 32.67 52.0297 33.57 54.9897 35.28C59.4797 37.87 62.6897 42.06 64.0397 47.07C65.3797 52.08 64.6897 57.31 62.0997 61.8C58.6397 67.79 52.1897 71.51 45.2597 71.51Z" fill="black"/>
<path d="M99.3301 0V32.38H277.96V0H99.3301ZM124.76 28.54H121.4L107.59 9.3V28.54H104.64V4.56H107.89L108.01 4.72L121.81 23.7V4.56H124.76V28.54ZM147.16 7.44H132.76V15.13H145.4V17.73H132.76V25.74H147.16V28.55H129.75V4.63H147.16V7.44ZM178.82 28.54H176.11L176.02 28.29L168.83 9.5L161.51 28.54H158.8L149.77 4.63H153.02L160.17 24.17L167.59 4.63H170.09L177.51 24.2L184.66 4.63H187.88L178.85 28.54H178.82Z" fill="black"/>
<path d="M99.3301 67.7198H277.96V35.3398H99.3301V67.7198ZM178.54 55.2398H181.45V55.7698C181.45 60.2098 185.52 61.1398 188.93 61.1398C193.53 61.1398 195.67 59.8098 195.67 56.9598V56.8498C195.61 54.5398 194.11 53.3798 190.49 52.8798L186.91 52.4198C182.94 51.9198 178.88 50.7198 178.88 45.5798V45.4698C178.88 40.2798 184.04 39.1898 188.36 39.1898C194.47 39.1898 197.84 41.8198 197.84 46.5998V47.1598H194.93V46.6298C194.9 43.4398 192.68 41.8198 188.33 41.8198C182.57 41.8198 181.9 43.8798 181.9 45.4398V45.5498C181.9 47.9898 183.33 49.0598 187.36 49.6298L191.15 50.1198C196.16 50.7598 198.62 52.9098 198.65 56.7098V56.8498C198.65 61.4398 195.38 63.7698 188.92 63.7698C182.46 63.7698 178.53 60.9298 178.53 55.7598V55.2298L178.54 55.2398ZM154.77 39.4698H158.02L158.14 39.6298L171.94 58.6098V39.4698H174.89V63.4498H171.53L157.72 44.2098V63.4498H154.77V39.4698ZM128.02 39.5398H131.14V52.9898C131.14 58.5298 133.5 60.9998 138.79 60.9998C144.08 60.9998 146.44 58.5298 146.44 52.9898V39.5398H149.56V52.8098C149.56 60.1998 146.03 63.7998 138.78 63.7998C131.53 63.7998 128 60.2098 128 52.8098V39.5398H128.02ZM104 55.2298H106.91V55.7598C106.91 60.1998 110.98 61.1298 114.39 61.1298C118.99 61.1298 121.13 59.7998 121.13 56.9498V56.8398C121.07 54.5298 119.57 53.3698 115.95 52.8698L112.37 52.4098C108.4 51.9098 104.34 50.7098 104.34 45.5698V45.4598C104.34 40.2698 109.5 39.1798 113.82 39.1798C119.93 39.1798 123.3 41.8098 123.3 46.5898V47.1498H120.39V46.6198C120.36 43.4298 118.14 41.8098 113.79 41.8098C108.03 41.8098 107.36 43.8698 107.36 45.4298V45.5398C107.36 47.9798 108.79 49.0498 112.82 49.6198L116.61 50.1098C121.62 50.7498 124.08 52.8998 124.11 56.6998V56.8398C124.11 61.4298 120.84 63.7598 114.38 63.7598C107.92 63.7598 103.99 60.9198 103.99 55.7498V55.2198L104 55.2298Z" fill="black"/>
<path d="M179.25 80.6301V80.4901C179.23 79.0401 178.73 77.1201 174.72 77.1201H167.38V84.6301H173.42C179.25 84.6301 179.25 81.6201 179.25 80.6301Z" fill="black"/>
<path d="M148.39 95.8305C153.93 95.8305 156.4 93.3705 156.4 87.8605V84.7005C156.4 79.3605 153.93 76.9805 148.39 76.9805C142.85 76.9805 140.38 79.3605 140.38 84.7005V87.8605C140.38 93.3705 142.85 95.8305 148.39 95.8305Z" fill="black"/>
<path d="M180.58 91.3402V91.1702C180.55 89.3202 179.86 87.2002 174.68 87.2002H167.38V95.7002H174.75C178.62 95.7002 180.58 94.2402 180.58 91.3502V91.3402Z" fill="black"/>
<path d="M99.3301 103.05H277.96V70.6699H99.3301V103.05ZM251.07 74.4499L258.35 84.9999L265.59 74.4499H269.17L259.9 87.6999V98.4999H256.88V87.7699L247.39 74.4499H251.08H251.07ZM225.24 74.4499H244.66V77.2599H236.48V98.3599H233.43V77.2599H225.25V74.4499H225.24ZM217.59 74.4499H220.61V98.3599H217.59V74.4499ZM196.73 74.4499H199.75V95.5499H213.3V98.3599H196.73V74.4499ZM188.06 74.4499H191.08V98.3599H188.06V74.4499ZM164.36 74.4499H174.96C179.83 74.4499 182.22 76.2599 182.26 79.9899V80.1699C182.23 82.7399 181.07 84.5799 178.9 85.5799C182.02 86.3099 183.63 88.2399 183.7 91.3199V91.4999C183.7 94.6199 182.2 98.3499 175.03 98.3499H164.36V74.4399V74.4499ZM137.26 84.6299C137.26 77.5899 140.9 74.1699 148.39 74.1699C155.88 74.1699 159.52 77.5899 159.52 84.6299V87.9299C159.52 95.1399 155.88 98.6399 148.39 98.6399C140.9 98.6399 137.26 95.1399 137.26 87.9299V84.6299ZM106.05 74.3799H109.54L119.35 92.3499L128.95 74.3799H132.45V98.3599H129.47V79.6799L120.57 96.4199H118.14L108.99 79.5799V98.3499H106.04V74.3699L106.05 74.3799Z" fill="black"/>
</g>
<defs>
<clipPath id="clip0_576_2">
<rect width="277.97" height="103.65" fill="white"/>
</clipPath>
</defs>
</svg>
